<ttFont>
          <CharString index="0">
            rmoveto
            -44 26 39 -32 46 hhcurveto
            48 40 31 45 25 hvcurveto
            120 213 rlineto
            8 15 5 16 14 vvcurveto
            30 -25 31 -36 -19 -20 -5 -15 -14 vhcurveto
            -131 -134 -131 134 rlineto
            14 -14 -20 6 -19 hhcurveto
            -36 -25 -31 -30 -15 5 -15 8 -15 hvcurveto
            endchar
          </CharString>
          <CharString index="1">
            -72 62 -61 73 73 62 61 72 75 -62 60 -73 -73 -62 -60 -75 vhcurveto
            return
          </CharString>
          <CharString index="2">
            237 -21 callgsubr
            hintmask 1001001010000000
            1054 1379 rmoveto
            24 callgsubr
            -994 vlineto
            -67 -56 -40 -64 -65 -52 -30 callsubr
            962 vlineto
            hintmask 1010011010000000
            64 -53 53 -67 vhcurveto
            -218 -99 callsubr
            -28 callgsubr
            52 -51 65 -90 callsubr
            57 vlineto
            4 callgsubr
            46 -902 hlineto
            -163 117 -133 145 76 44 34 34 37 vhcurveto
            hintmask 0101001010000000
            12 12 10 13 16 hhcurveto
            17 6 -14 -11 5 hvcurveto
            hintmask 1001001010000000
            -17 8 29 -51 -23 callsubr
            1161 59 callsubr
            -65 vhcurveto
            return
          </CharString>
          <CharString index="3">
            778 67 callsubr
            -67 -51 51 66 hvcurveto
            89 355 vlineto
            67 52 51 67 hvcurveto
            280 vlineto
            181 -131 120 -10 callgsubr
            -120 -179 vhcurveto
            -491 vlineto
            -84 callsubr
            236 24 callsubr
            hvcurveto
            -148 697 rmoveto
            -225 -237 225 vlineto
            58 callsubr
            -69 callsubr
            return
          </CharString>
          <CharString index="4">
            rmoveto
            26 -22 2 -14 -23 -42 -38 -20 -42 vvcurveto
            -32 25 -28 35 20 32 11 35 29 vhcurveto
            46 54 26 76 89 vvcurveto
            86 -37 64 -87 -62 -53 -47 -63 -31 12 -30 24 -21 vhcurveto
            endchar
          </CharString>
          <CharString index="5">
            192 8 callgsubr
            27 -81 callgsubr
            791 vlineto
            64 58 48 63 65 52 -33 callsubr
            1 -982 rlineto
            -64 53 -53 23 callgsubr
            -1 985 rlineto
            163 -117 133 -145 -81 -49 -33 -35 -38 vhcurveto
            -12 -12 -10 -13 -16 hhcurveto
            -17 -6 14 10 -7 hvcurveto
            42 callgsubr
            -200 hlineto
            -162 -134 -100 callgsubr
            return
          </CharString>
          <CharString index="6">
            -83 callsubr
            -5 callsubr
            -87 callgsubr
            return
          </CharString>
          <CharString index="7">
            rmoveto
            -46 63 -77 31 -64 -62 -58 -55 23 -90 65 -45 220 -154 rcurveline
            29 -20 39 -4 25 26 26 26 -4 36 -21 30 rrcurveto
            endchar
          </CharString>
          <CharString index="8">
            hlineto
            -97 callsubr
            return
          </CharString>
          <CharString index="9">
            163 153 135 187 159 -99 109 -128 42 hvcurveto
            -196 57 rlineto
            -36 16 -35 26 53 vvcurveto
            56 41 46 67 vhcurveto
            225 hlineto
            50 38 39 50 50 -38 41 -50 hvcurveto
            -244 hlineto
            -169 -145 -120 -184 -139 82 -107 122 -38 hvcurveto
            180 -50 rlineto
            54 -17 43 -44 -62 vvcurveto
            -73 -54 -51 -81 vhcurveto
            -221 50 callsubr
            hvcurveto
            return
          </CharString>
          <CharString index="10">
            -163 -133 -133 -163 hvcurveto
            return
          </CharString>
          <CharString index="11">
            238 -21 callgsubr
            hintmask 1010101010000000
            747 1086 rmoveto
            -65 18 callgsubr
            hintmask 1100101010000000
            -65 -56 -42 -63 -66 -51 18 callsubr
            -54 52 14 callsubr
            -693 -14 callgsubr
            106 -9 callsubr
            46 32 36 36 vhcurveto
            hintmask 1011101010000000
            -69 callgsubr
            -217 vlineto
            -65 -52 -92 callgsubr
            135 -83 callgsubr
            1147 vlineto
            hintmask 1010101010000000
            65 -53 52 -67 vhcurveto
            return
          </CharString>
          <CharString index="12">
            818 hmoveto
            49 42 40 50 49 -42 41 -49 hvcurveto
            -361 hlineto
            435 1003 rlineto
            9 16 5 19 21 vvcurveto
            5 callgsubr
            -71 -30 -51 -17 -7 vhcurveto
            -12 -5 -6 -13 -17 hhcurveto
            -16 -10 13 12 -12 hvcurveto
            34 -37 -45 34 -76 hhcurveto
            -62 -96 callgsubr
            57 60 vhcurveto
            204 hlineto
            -434 -1003 rlineto
            -9 -17 -5 -19 -20 vvcurveto
            -68 53 -52 65 71 30 51 17 7 vhcurveto
            return
          </CharString>
          <CharString index="13">
            171 -140 rlineto
            41 -37 22 -36 -47 vvcurveto
            -67 -54 -47 -81 vhcurveto
            -84 50 callsubr
            -50 42 -40 49 hvcurveto
            141 51 callsubr
            131 181 111 -45 87 -94 78 hvcurveto
            -227 182 rlineto
            -61 49 -49 93 101 vvcurveto
            116 63 70 84 return
          </CharString>
          <CharString index="14">
            29 -25 11 -28 -25 -50 -49 -21 -48 vvcurveto
            -37 29 -33 38 25 32 15 37 38 vhcurveto
            61 63 27 79 103 vvcurveto
            98 -43 104 -112 -70 -61 -58 -74 -36 18 -40 27 -24 vhcurveto
            return
          </CharString>
          <CharString index="15">
            -52 43 52 -45 77 hhcurveto
            107 66 68 91 62 hvcurveto
            22 31 3 40 -24 26 -23 24 -39 -3 -25 -21 rrcurveto
            endchar
          </CharString>
          <CharString index="16">
            -70 callgsubr
            765 vlineto
            65 48 53 62 50 41 callsubr
            -50 vhcurveto
            -551 -96 callgsubr
            57 60 vhcurveto
            218 -38 callsubr
            return
          </CharString>
          <CharString index="17">
            68 -62 callgsubr
            vhcurveto
            return
          </CharString>
          <CharString index="18">
            -75 -84 -18 -74 vvcurveto
            -66 52 -51 66 111 72 120 158 189 -132 116 -217 -228 -142 -140 -244 -217 74 -97 154 -126 vhcurveto
            return
          </CharString>
          <CharString index="19">
            rmoveto
            122 97 97 122 119 -97 102 -122 -120 -101 -102 -119 -120 101 -99 120 hvcurveto
            315 vmoveto
            51 45 -45 -51 -49 -47 -46 -49 -50 -47 44 51 53 42 43 55 hvcurveto
            endchar
          </CharString>
          <CharString index="20">
            -49 -39 -40 -51 -48 39 -42 49 hvcurveto
            return
          </CharString>
          <CharString index="21">
            28 callsubr
            hintmask 11010010
            -95 callgsubr
            -808 vlineto
            16 callsubr
            vhcurveto
            hintmask 11010100
            227 128 2 callsubr
            59 -54 callgsubr
            -65 vlineto
            -35 callgsubr
            -67 -51 -61 callgsubr
            hintmask 11010010
            4 callsubr
            hintmask 00101000
            return
          </CharString>
          <CharString index="22">
            -65 -53 51 66 hvcurveto
            592 181 vlineto
            48 38 40 48 47 -38 41 -48 hvcurveto
            -181 208 hlineto
            67 -51 53 -67 -66 -52 -53 -67 vhcurveto
            -208 -118 -44 callsubr
            118 -594 hlineto
            -163 132 -133 163 vhcurveto
            120 hlineto
            50 38 40 50 hvcurveto
            return
          </CharString>
          <CharString index="23">
            -163 133 -133 163 vhcurveto
            return
          </CharString>
          <CharString index="24">
            -60 callgsubr
            -57 -89 callgsubr
            return
          </CharString>
          <CharString index="25">
            239 vstem
            185 8 callgsubr
            45 -81 callgsubr
            783 vlineto
            75 58 45 63 65 71 callgsubr
            23 callgsubr
            984 vlineto
            61 55 56 63 68 71 callgsubr
            64 45 callgsubr
            vhcurveto
            985 vlineto
            163 -125 133 -162 -89 -66 -38 -58 -40 vhcurveto
            -10 -7 -12 -11 -12 hhcurveto
            -10 -5 2 9 -8 hvcurveto
            63 -51 -69 43 -81 hhcurveto
            -81 -49 67 callgsubr
            -10 -6 4 12 -8 hvcurveto
            34 -22 -36 23 -43 hhcurveto
            -90 callgsubr
            return
          </CharString>
          <CharString index="26">
            -94 callgsubr
            56 60 vhcurveto
            return
          </CharString>
          <CharString index="27">
            vlineto
            180 -131 116 -224 return
          </CharString>
          <CharString index="28">
            -13 -14 -10 -12 -13 hvcurveto
            -35 -35 -33 -45 -77 vvcurveto
            return
          </CharString>
          <CharString index="29">
            142 -104 91 -176 -180 -100 -91 -141 vhcurveto
            373 -274 rmoveto
            -54 -41 -30 -52 -53 -41 30 54 vhcurveto
            270 vlineto
            52 41 42 53 52 41 -42 -52 vhcurveto
            return
          </CharString>
          <CharString index="30">
            -86 callgsubr
            57 vlineto
            4 callgsubr
            return
          </CharString>
          <CharString index="31">
            -75 callsubr
            endchar
          </CharString>
          <CharString index="32">
            -67 callsubr
            638 -59 callsubr
            return
          </CharString>
          <CharString index="33">
            37 30 -27 -31 -35 -31 -28 -42 hvcurveto
            -121 hlineto
            -30 -25 -25 -32 -30 24 -26 31 hvcurveto
            161 hlineto
            150 71 77 96 95 -65 77 -129 1 hvcurveto
            return
          </CharString>
          <CharString index="34">
            156 237 return
          </CharString>
          <CharString index="35">
            -84 callsubr
            293 hlineto
            51 39 40 50 49 -39 42 -51 hvcurveto
            -234 -40 callsubr
            189 263 vlineto
            50 39 41 49 50 -39 40 -50 hvcurveto
            -263 405 hlineto
            70 54 36 64 vhcurveto
            234 hlineto
            51 39 42 49 50 -39 40 -51 hvcurveto
            -203 hlineto
            -117 -72 -33 -67 -56 hvcurveto
            25 callsubr
            -426 -99 callsubr
            633 -3 rmoveto
            65 51 53 68 -69 callsubr
            -392 -237 vlineto
            return
          </CharString>
          <CharString index="36">
            rmoveto
            -16 -19 -7 -7 -11 hhcurveto
            -13 -8 12 11 -10 hvcurveto
            return
          </CharString>
          <CharString index="37">
            -39 callgsubr
            -48 39 -42 49 hvcurveto
            return
          </CharString>
          <CharString index="38">
            -65 callgsubr
            vhcurveto
            return
          </CharString>
          <CharString index="39">
            -79 callgsubr
            614 -1178 rmoveto
            39 -32 32 -37 vhcurveto
            -46 126 hlineto
            51 -41 41 -52 -52 -40 -42 -50 vhcurveto
            -126 -163 vlineto
            164 332 16 33 -10 66 -58 22 rlinecurve
            -53 20 -49 -30 -15 -36 -187 -451 rcurveline
            -42 -18 31 -55 51 hhcurveto
            291 -60 hlineto
            -51 41 -41 51 53 40 42 50 vhcurveto
            60 46 vlineto
            38 31 32 38 hvcurveto
            return
          </CharString>
          <CharString index="40">
            -48 callgsubr
            -638 hlineto
            -87 callsubr
            return
          </CharString>
          <CharString index="41">
            109 41 53 74 111 vvcurveto
            211 vlineto
            207 -162 89 -183 vhcurveto
            -463 9 callgsubr
            112 -38 callsubr
            -79 callsubr
            -774 -102 vlineto
            -50 -41 -22 callgsubr
            40 -40 51 hvcurveto
            339 1061 rmoveto
            61 42 56 77 64 53 -51 -66 vhcurveto
            -220 vlineto
            -68 -53 -51 -64 vhcurveto
            -119 hlineto
            return
          </CharString>
          <CharString index="42">
            736 rmoveto
            -38 31 -32 39 vhcurveto
            178 hlineto
            179 101 89 142 hvcurveto
            61 vlineto
            90 -69 61 -90 -22 -17 -3 -5 -13 vhcurveto
            189 157 rlineto
            10 8 12 15 21 vvcurveto
            32 -25 25 -32 vhcurveto
            -433 hlineto
            -40 -30 -32 -39 -38 30 -32 40 hvcurveto
            219 hlineto
            -141 -119 rlineto
            -13 -11 -9 -17 -18 vvcurveto
            -31 24 -24 31 vhcurveto
            47 9 29 52 hhcurveto
            40 44 -25 -46 hvcurveto
            -63 vlineto
            -54 -41 -32 -52 vhcurveto
            -178 hlineto
            -39 -31 -32 -39 hvcurveto
            return
          </CharString>
          <CharString index="43">
            410 -19 -25 callgsubr
            73 callgsubr
            20 -20 return
          </CharString>
          <CharString index="44">
            -64 54 -53 65 66 52 53 64 vhcurveto
            return
          </CharString>
          <CharString index="45">
            -88 callgsubr
            endchar
          </CharString>
          <CharString index="46">
            180 154 -49 callsubr
            return
          </CharString>
          <CharString index="47">
            rmoveto
            29 27 26 28 47 vvcurveto
            43 -26 26 -29 27 vhcurveto
            -296 298 -25 23 -38 5 -28 -23 rlinecurve
            -27 -26 0 -40 20 -27 204 -309 rcurveline
            -204 -309 -20 -27 0 -40 27 -26 rlinecurve
            return
          </CharString>
          <CharString index="48">
            -45 callsubr
            hvcurveto
            return
          </CharString>
          <CharString index="49">
            -176 rmoveto
            -65 -52 -52 -66 vhcurveto
            -58 hlineto
            -48 -42 -41 -50 -50 42 -40 48 hvcurveto
            -5 callsubr
            164 -82 callgsubr
            return
          </CharString>
          <CharString index="50">
            -24 callgsubr
            -52 return
          </CharString>
          <CharString index="51">
            237 159 237 return
          </CharString>
          <CharString index="52">
            241 2 -21 452 181 564 181 return
          </CharString>
          <CharString index="53">
            156 97 rmoveto
            -64 53 -80 callgsubr
            356 116 vlineto
            66 51 -53 -66 hvcurveto
            -237 61 callsubr
            53 64 vhcurveto
            240 vlineto
            125 -64 94 -114 46 vhcurveto
            178 311 31 58 -22 74 -59 30 rlinecurve
            -58 30 -76 -24 -27 -60 -188 -388 rcurveline
            -72 785 hlineto
            68 -53 -78 callgsubr
            return
          </CharString>
          <CharString index="54">
            39 callsubr
            -869 vlineto
            -65 53 -52 65 vhcurveto
            return
          </CharString>
          <CharString index="55">
            rmoveto
            -18 -28 -10 -8 -16 hhcurveto
            -20 -13 14 12 -15 hvcurveto
            47 -53 -60 39 -93 hhcurveto
            -119 -78 -65 -89 -66 hvcurveto
            -26 -34 -4 -44 29 -29 27 -26 47 3 30 23 75 57 rcurveline
            18 28 9 8 17 hhcurveto
            20 13 -14 -12 15 hvcurveto
            -47 51 63 -39 92 hhcurveto
            119 75 67 87 69 hvcurveto
            26 34 4 44 -29 29 -27 26 -47 -3 -30 -23 rrcurveto
            return
          </CharString>
          <CharString index="56">
            57 vlineto
            62 48 return
          </CharString>
          <CharString index="57">
            -41 callgsubr
            692 vlineto
            61 55 56 63 68 69 callgsubr
            64 45 callgsubr
            vhcurveto
            693 vlineto
            162 -125 134 -162 -89 -64 -38 -58 -40 vhcurveto
            -10 -7 -12 -11 -12 hhcurveto
            -10 -5 0 11 -8 hvcurveto
            63 -51 -69 43 -81 hhcurveto
            -76 -45 -34 -34 -37 hvcurveto
            return
          </CharString>
          <CharString index="58">
            395 hstemhm
            -73 callsubr
            return
          </CharString>
          <CharString index="59">
            -59 callsubr
            endchar
          </CharString>
          <CharString index="60">
            -227 -128 -116 -178 vhcurveto
            return
          </CharString>
          <CharString index="61">
            -19 -36 callsubr
            return
          </CharString>
          <CharString index="62">
            hlineto
            49 39 40 51 return
          </CharString>
          <CharString index="63">
            vlineto
            -48 -40 -41 -47 -48 40 -40 48 hvcurveto
            return
          </CharString>
          <CharString index="64">
            237 hintmask 00000000
            return
          </CharString>
          <CharString index="65">
            -8 callsubr
            -354 -178 vlineto
            -97 callsubr
            -494 vlineto
            return
          </CharString>
          <CharString index="66">
            181 -88 88 369 -2 callgsubr
            return
          </CharString>
          <CharString index="67">
            hlineto
            -66 -52 51 66 hvcurveto
            return
          </CharString>
          <CharString index="68">
            0 181 return
          </CharString>
          <CharString index="69">
            hlineto
            25 7 -18 -12 return
          </CharString>
          <CharString index="70">
            -145 103 -89 177 179 101 89 142 vhcurveto
            269 vlineto
            return
          </CharString>
          <CharString index="71">
            181 -8 callgsubr
            return
          </CharString>
          <CharString index="72">
            -20 -41 callsubr
            return
          </CharString>
          <CharString index="73">
            66 52 -53 return
          </CharString>
          <CharString index="74">
            -53 -66 vhcurveto
            return
          </CharString>
          <CharString index="75">
            409 -39 callsubr
            193 180 625 180 20 -20 return
          </CharString>
          <CharString index="76">
            -11 -13 -9 -14 -16 hhcurveto
            -17 -7 13 12 -4 hvcurveto
            return
          </CharString>
          <CharString index="77">
            53 66 vhcurveto
            return
          </CharString>
          <CharString index="78">
            31 25 23 33 31 -25 25 -32 hvcurveto
            return
          </CharString>
          <CharString index="79">
            -33 callsubr
            -690 vlineto
            -65 54 -52 65 66 52 53 64 vhcurveto
            693 vlineto
            162 -106 134 -144 -75 return
          </CharString>
          <CharString index="80">
            hstemhm
            -63 -56 callsubr
            return
          </CharString>
          <CharString index="81">
            133 -163 vhcurveto
            return
          </CharString>
          <CharString index="82">
            6 callgsubr
            -137 36 callsubr
            return
          </CharString>
          <CharString index="83">
            -101 -359 1897 -1013 181 hstemhm
            -54 814 -498 181 hintmask 10010000
            427 39 callgsubr
            -262 -153 vlineto
            -87 callsubr
            153 return
          </CharString>
          <CharString index="84">
            71 hhcurveto
            -38 callgsubr
            return
          </CharString>
          <CharString index="85">
            685 -269 269 return
          </CharString>
          <CharString index="86">
            264 rmoveto
            -106 callsubr
            hintmask 0000100100000000
            416 hmoveto
            -72 61 -61 73 74 61 61 72 75 -61 60 -74 -73 -61 -4 callgsubr
          </CharString>
          <CharString index="87">
            -881 hlineto
            -60 callgsubr
            return
          </CharString>
          <CharString index="88">
            39 39 51 49 -39 return
          </CharString>
          <CharString index="89">
            rmoveto
            -93 callsubr
            return
          </CharString>
          <CharString index="90">
            453 1060 rmoveto
            58 callsubr
            vhcurveto
            return
          </CharString>
          <CharString index="91">
            237 -207 217 return
          </CharString>
          <CharString index="92">
            1063 rmoveto
            -81 callsubr
            116 32 callsubr
            return
          </CharString>
          <CharString index="93">
            -114 -112 -106 -1 callgsubr
            return
          </CharString>
          <CharString index="94">
            hstemhm
            -73 callsubr
            236 238 hintmask 00000000
            return
          </CharString>
          <CharString index="95">
            754 -19 181 1017 180 20 -20 return
          </CharString>
          <CharString index="96">
            11 hvcurveto
            36 36 32 45 75 vvcurveto
            return
          </CharString>
          <CharString index="97">
            rmoveto
            -48 callgsubr
            return
          </CharString>
          <CharString index="98">
            -134 144 75 return
          </CharString>
          <CharString index="99">
            867 -59 callgsubr
            return
          </CharString>
          <CharString index="100">
            66 51 53 67 -69 callsubr
            return
          </CharString>
          <CharString index="101">
            -25 callgsubr
            926 -20 return
          </CharString>
          <CharString index="102">
            116 hlineto
            return
          </CharString>
          <CharString index="103">
            583 -20 181 924 -20 21 -20 return
          </CharString>
          <CharString index="104">
            181 206 175 344 180 return
          </CharString>
          <CharString index="105">
            181 -61 181 hstemhm
            return
          </CharString>
          <CharString index="106">
            -26 callgsubr
            173 -45 callgsubr
            return
          </CharString>
          <CharString index="107">
            12 5 6 13 17 hhcurveto
            16 10 -13 -12 12 hvcurveto
            return
          </CharString>
          <CharString index="108">
            -39 callsubr
            73 callgsubr
            return
          </CharString>
          <CharString index="109">
            113 180 hvcurveto
            return
          </CharString>
          <CharString index="110">
            vlineto
            -70 -54 -36 -64 return
          </CharString>
          <CharString index="111">
            85 55 -53 -66 hvcurveto
            return
          </CharString>
          <CharString index="112">
            -19 143 448 142 -68 143 448 142 hstemhm
            148 186 187 187 281 186 187 187 return
          </CharString>
          <CharString index="113">
            49 39 40 51 48 -39 42 -49 hvcurveto
            return
          </CharString>
          <CharString index="114">
            67 -51 53 -66 -68 -51 -53 -67 vhcurveto
            return
          </CharString>
          <CharString index="115">
            rmoveto
            -35 callgsubr
            -66 return
          </CharString>
          <CharString index="116">
            180 153 -45 callgsubr
            return
          </CharString>
          <CharString index="117">
            0 -3 callsubr
            return
          </CharString>
          <CharString index="118">
            36 -35 -45 32 -75 hhcurveto
            -144 -107 -134 -162 hvcurveto
            -438 vlineto
            -178 128 -116 227 return
          </CharString>
          <CharString index="119">
            -162 118 -134 145 77 43 31 36 35 vhcurveto
            return
          </CharString>
          <CharString index="120">
            74 0 -25 callgsubr
            999 180 return
          </CharString>
          <CharString index="121">
            -65 -66 -52 -53 -64 vhcurveto
            return
          </CharString>
          <CharString index="122">
            180 hstemhm
            156 -11 callgsubr
            return
          </CharString>
          <CharString index="123">
            -183 131 -113 224 return
          </CharString>
          <CharString index="124">
            -21 926 87 -87 180 return
          </CharString>
          <CharString index="125">
            -30 callsubr
            690 vlineto
            65 return
          </CharString>
          <CharString index="126">
            hlineto
            48 42 40 50 50 -42 41 -48 hvcurveto
            -64 hlineto
            -22 -7 18 12 15 14 10 11 11 hvcurveto
            return
          </CharString>
          <CharString index="127">
            67 53 53 65 vhcurveto
            53 hlineto
            50 39 39 49 hvcurveto
            return
          </CharString>
          <CharString index="128">
            -490 1493 395 hstem
            -14 490 vstem
            return
          </CharString>
          <CharString index="129">
            -64 52 -53 66 67 51 52 65 vhcurveto
            return
          </CharString>
          <CharString index="130">
            116 -224 vhcurveto
            return
          </CharString>
          <CharString index="131">
            hlineto
            50 40 40 50 return
          </CharString>
          <CharString index="132">
            -17 callgsubr
            67 -56 -72 33 -115 hhcurveto
            return
          </CharString>
          <CharString index="133">
            31 25 23 33 hvcurveto
            31 1 -26 24 -32 hhcurveto
            return
          </CharString>
          <CharString index="134">
            -97 0 1359 return
          </CharString>
          <CharString index="135">
            -16 callsubr
            hintmask 00000000
            return
          </CharString>
          <CharString index="136">
            hstemhm
            64 237 158 237 return
          </CharString>
          <CharString index="137">
            -74 62 callgsubr
            return
          </CharString>
          <CharString index="138">
            124 193 123 return
          </CharString>
          <CharString index="139">
            hlineto
            22 7 -19 -11 -79 callsubr
            return
          </CharString>
          <CharString index="140">
            201 238 201 hintmask 00000000
            hintmask 11100000
            return
          </CharString>
          <CharString index="141">
            -12 -18 7 25 hvcurveto
            return
          </CharString>
          <CharString index="142">
            703 -39 callsubr
            -179 -21 506 180 511 181 return
          </CharString>
          <CharString index="143">
            vlineto
            -183 142 -113 184 116 72 33 67 56 vhcurveto
            return
          </CharString>
          <CharString index="144">
            -61 callsubr
            -127 490 return
          </CharString>
          <CharString index="145">
            vlineto
            -179 -89 -83 -84 -49 -41 -42 -48 -49 41 -41 49 vhcurveto
            return
          </CharString>
          <CharString index="146">
            -71 hhcurveto
            -65 -53 -52 -68 hvcurveto
            return
          </CharString>
          <CharString index="147">
            -138 60 -66 88 -48 vhcurveto
            return
          </CharString>
          <CharString index="148">
            -19 callsubr
            41 return
          </CharString>
          <CharString index="149">
            hhcurveto
            34 callsubr
            return
          </CharString>
          <CharString index="150">
            1060 rmoveto
            64 49 return
          </CharString>
          <CharString index="151">
            -220 237 return
          </CharString>
          <CharString index="152">
            233 -221 236 226 238 -223 235 return
          </CharString>
          <CharString index="153">
            499 hstemhm
            198 201 hintmask 00000000
            hintmask 11000000
            158 return
          </CharString>
          <CharString index="154">
            66 53 -51 -67 hvcurveto
            -124 vlineto
            -66 -53 -33 callsubr
            return
          </CharString>
          <CharString index="155">
            49 41 42 48 49 -41 41 -49 return
          </CharString>
          <CharString index="156">
            72 callsubr
            -472 293 return
          </CharString>
          <CharString index="157">
            hlineto
            -49 -42 -42 -49 return
          </CharString>
          <CharString index="158">
            hlineto
            163 153 return
          </CharString>
          <CharString index="159">
            vlineto
            65 -53 52 return
          </CharString>
          <CharString index="160">
            49 -40 42 -50 return
          </CharString>
          <CharString index="161">
            463 -463 935 -463 463 hintmask 10100000
            return
          </CharString>
          <CharString index="162">
            hlineto
            -33 24 -25 31 vhcurveto
            33 -1 24 26 36 vvcurveto
            return
          </CharString>
          <CharString index="163">
            40 callgsubr
            236 237 vstem
            return
          </CharString>
          <CharString index="164">
            -19 1105 -586 911 -886 181 hstem
            return
          </CharString>
          <CharString index="165">
            66 52 53 67 return
          </CharString>
          <CharString index="166">
            vlineto
            64 -53 53 return
          </CharString>
          <CharString index="167">
            237 237 return
          </CharString>
          <CharString index="168">
            vlineto
            59 callgsubr
            65 53 return
          </CharString>
          <CharString index="169">
            -20 58 callgsubr
            return
          </CharString>
          <CharString index="170">
            -48 39 -42 49 vhcurveto
            return
          </CharString>
          <CharString index="171">
            -67 -52 -15 callgsubr
            return
          </CharString>
          <CharString index="172">
            -3 -9 8 hvcurveto
            return
          </CharString>
          <CharString index="173">
            rmoveto
            -35 callgsubr
            -67 -51 -15 callgsubr
            return
          </CharString>
          <CharString index="174">
            90 rmoveto
            53 callsubr
            vhcurveto
            -177 hlineto
            return
          </CharString>
          <CharString index="175">
            50 -6 45 34 6 51 43 369 rcurveline
            return
          </CharString>
          <CharString index="176">
            -19 callgsubr
            0 -20 return
          </CharString>
          <CharString index="177">
            2 -21 493 178 527 180 return
          </CharString>
          <CharString index="178">
            314 621 rmoveto
            -50 40 -40 51 vhcurveto
            return
          </CharString>
          <CharString index="179">
            -20 1558 return
          </CharString>
          <CharString index="180">
            -19 1398 return
          </CharString>
        <CharString name=".notdef">
          -480 endchar
        </CharString>
        <CharString name=".null">
          -952 endchar
        </CharString>
        <CharString name="A">
          -55 callsubr
          hstem
          -63 -56 callsubr
          60 callsubr
          vstem
          -63 -15 callsubr
          -341 -72 vlineto
          -70 callsubr
          72 65 callgsubr
          52 -80 callgsubr
          335 237 -335 vlineto
          -63 callsubr
          965 -80 callsubr
          vhcurveto
          -456 -99 callsubr
          633 -3 rmoveto
          65 51 53 68 -69 callsubr
          -445 -237 vlineto
          endchar
        </CharString>
        <CharString name="AE">
          35 callsubr
          hstemhm
          104 237 159 -11 callgsubr
          hintmask 10111110
          -37 callgsubr
          hintmask 01111110
          -64 52 -80 callgsubr
          388 237 -190 vlineto
          hintmask 10111110
          -72 callsubr
          endchar
        </CharString>
        <CharString name="AEacute">
          35 callsubr
          133 394 hstemhm
          104 -56 callsubr
          212 394 -369 237 -21 callgsubr
          hintmask 1011011010000000
          -37 callgsubr
          hintmask 0111011010000000
          -64 52 -80 callgsubr
          388 237 -190 vlineto
          hintmask 1011011010000000
          -72 callsubr
          hintmask 0000100100000000
          229 935 -106 callgsubr
        </CharString>
        <CharString name="Aacute">
          -55 callsubr
          133 394 -27 callsubr
          -18 394 -139 237 hintmask 11101101
          -63 -15 callsubr
          -341 -72 vlineto
          -70 callsubr
          72 65 callgsubr
          52 -80 callgsubr
          335 237 -335 vlineto
          -63 callsubr
          965 -80 callsubr
          vhcurveto
          -456 -99 callsubr
          633 -3 rmoveto
          65 51 53 68 -69 callsubr
          -445 -237 vlineto
          hintmask 00010010
          -1 988 -106 callgsubr
        </CharString>
        <CharString name="Abreve">
          -55 callsubr
          134 395 -27 callsubr
          -125 490 -128 237 hintmask 11101101
          -63 -15 callsubr
          -341 -72 vlineto
          -70 callsubr
          72 65 callgsubr
          52 -80 callgsubr
          335 237 -335 vlineto
          -63 callsubr
          965 -80 callsubr
          vhcurveto
          -456 -99 callsubr
          633 -3 rmoveto
          65 51 53 68 -69 callsubr
          -445 -237 vlineto
          hintmask 00010010
          120 1072 -101 callgsubr
        </CharString>
        <CharString name="Acircumflex">
          -55 callsubr
          134 395 -27 callsubr
          -126 490 -127 237 hintmask 11101101
          -63 -15 callsubr
          -341 -72 vlineto
          -70 callsubr
          72 65 callgsubr
          52 -80 callgsubr
          335 237 -335 vlineto
          -63 callsubr
          965 -80 callsubr
          vhcurveto
          -456 -99 callsubr
          633 -3 rmoveto
          65 51 53 68 -69 callsubr
          -445 -237 vlineto
          hintmask 00010010
          231 1198 -107 callgsubr
        </CharString>
        <CharString name="Adieresis">
          -55 callsubr
          151 268 -27 callsubr
          -228 685 44 callsubr
          hintmask 11101101
          -63 -15 callsubr
          -341 -72 vlineto
          -70 callsubr
          72 65 callgsubr
          52 -80 callgsubr
          335 237 -335 vlineto
          -63 callsubr
          965 -80 callsubr
          vhcurveto
          -456 -99 callsubr
          633 -3 rmoveto
          65 51 53 68 -69 callsubr
          -445 -237 vlineto
          hintmask 00000000
          -228 1029 rmoveto
          -106 callsubr
          hintmask 00010010
          416 hmoveto
          -72 61 -61 73 74 61 61 72 75 -61 60 -74 -73 -61 -4 callgsubr
        </CharString>
        <CharString name="Agrave">
          -55 callsubr
          133 394 -27 callsubr
          -137 394 -20 237 hintmask 11101101
          -63 -15 callsubr
          -341 -72 vlineto
          -70 callsubr
          72 65 callgsubr
          52 -80 callgsubr
          335 237 -335 vlineto
          -63 callsubr
          965 -80 callsubr
          vhcurveto
          -456 -99 callsubr
          633 -3 rmoveto
          65 51 53 68 -69 callsubr
          -445 -237 vlineto
          hintmask 00010010
          83 1206 -100 callsubr
        </CharString>
        <CharString name="Amacron">
          -55 callsubr
          151 268 -27 callsubr
          -228 -22 callsubr
          44 callsubr
          hintmask 1111101000000000
          -63 1063 rmoveto
          -81 callsubr
          -5 callsubr
          22 7 -19 -11 -13 -14 -10 -12 -13 hvcurveto
          hintmask 1111110100000000
          -35 -35 -33 -45 -77 vvcurveto
          -341 -72 vlineto
          -70 callsubr
          72 65 callgsubr
          52 -80 callgsubr
          335 vlineto
          hintmask 1111110010000000
          237 -335 hlineto
          -63 callsubr
          965 -80 callsubr
          vhcurveto
          -456 -99 callsubr
          633 -3 rmoveto
          65 51 53 68 -69 callsubr
          -445 -237 vlineto
          408 1032 -93 callgsubr
        </CharString>
        <CharString name="Aogonek">
          241 -52 callgsubr
          94 -21 452 181 564 181 -27 callsubr
          60 callsubr
          -187 188 hintmask 1111111010000000
          872 -127 rmoveto
          25 30 34 39 39 48 rrcurveto
          hintmask 1111111100000000
          44 17 30 42 49 vvcurveto
          965 -80 callsubr
          vhcurveto
          -456 9 callgsubr
          116 32 callsubr
          -341 -72 vlineto
          -70 callsubr
          72 65 callgsubr
          52 -80 callgsubr
          335 237 -335 vlineto
          -25 8 -24 14 -19 vhcurveto
          -14 callsubr
          -302 1187 rmoveto
          65 51 53 68 -69 callsubr
          -445 -237 vlineto
          endchar
        </CharString>
        <CharString name="Aring">
          -55 callsubr
          126 31 callgsubr
          -27 callsubr
          -102 31 callsubr
          -101 237 hintmask 1110011001000000
          -63 -15 callsubr
          -341 -72 vlineto
          -70 callsubr
          72 65 callgsubr
          52 -80 callgsubr
          335 237 -335 vlineto
          -63 callsubr
          965 -80 callsubr
          vhcurveto
          -456 -99 callsubr
          633 -3 rmoveto
          65 51 53 68 -69 callsubr
          -445 -237 vlineto
          hintmask 0001100110000000
          119 871 -88 callsubr
        </CharString>
        <CharString name="Atilde">
          -55 callsubr
          152 181 -61 181 -27 callsubr
          -202 659 44 callsubr
          hintmask 1110011010000000
          -63 -15 callsubr
          -341 -72 vlineto
          -70 callsubr
          72 65 callgsubr
          52 -80 callgsubr
          335 237 -335 vlineto
          -63 callsubr
          965 -80 callsubr
          vhcurveto
          -456 -99 callsubr
          633 -3 rmoveto
          65 51 53 68 -69 callsubr
          -445 -237 vlineto
          -21 callgsubr
          291 1101 -71 callsubr
          hintmask 0001000100000000
          -97 callgsubr
          hintmask 0000100100000000
          -92 callsubr
        </CharString>
        <CharString name="B">
          239 -39 callsubr
          361 180 456 181 hstemhm
          -62 237 158 68 callgsubr
          hintmask 00000000
          hintmask 11111010
          231 hmoveto
          493 hlineto
          hintmask 11111100
          -87 callgsubr
          84 vlineto
          133 -56 66 -83 47 vhcurveto
          hintmask 11111010
          -66 callsubr
          hintmask 11111100
          94 -541 rmoveto
          -94 361 94 hlineto
          47 callsubr
          endchar
        </CharString>
        <CharString name="C">
          74 -46 callsubr
          hstemhm
          -73 callsubr
          236 28 callsubr
          hintmask 11101000
          -95 callgsubr
          -808 vlineto
          16 callsubr
          vhcurveto
          hintmask 11110000
          227 128 2 callsubr
          59 -54 callgsubr
          -65 vlineto
          -35 callgsubr
          -67 -51 -61 callgsubr
          hintmask 11101000
          4 callsubr
          endchar
        </CharString>
        <CharString name="CR">
          -952 endchar
        </CharString>
        <CharString name="Cacute">
          74 -46 callsubr
          113 -45 callgsubr
          -20 394 -138 -86 callsubr
          -269 522 -106 callgsubr
        </CharString>
        <CharString name="Ccaron">
          74 -46 callsubr
          114 47 callgsubr
          -86 callsubr
          -260 489 -107 callsubr
        </CharString>
        <CharString name="Ccedilla">
          74 -52 callgsubr
          73 -36 callsubr
          hstemhm
          -73 callsubr
          116 188 -68 -16 callsubr
          hintmask 11111100
          442 -204 rmoveto
          -74 callsubr
          32 74 rlineto
          hintmask 11111010
          212 7 119 111 174 vvcurveto
          59 -54 callgsubr
          -65 vlineto
          -35 callgsubr
          -67 -51 -61 callgsubr
          hintmask 11111001
          4 callsubr
          -83 -84 -22 -82 vvcurveto
          -66 52 -51 66 111 72 128 180 179 -132 116 -233 -47 callsubr
          -808 vlineto
          -152 90 -104 159 -30 vhcurveto
          -36 -82 -23 callgsubr
        </CharString>
        <CharString name="Ccircumflex">
          74 -46 callsubr
          114 -49 callsubr
          -128 490 -126 -86 callsubr
          -37 732 -107 callgsubr
        </CharString>
        <CharString name="Cdotaccent">
          74 -46 callsubr
          131 268 hstemhm
          -73 callsubr
          236 -16 callsubr
          hintmask 11110100
          -95 callgsubr
          -808 vlineto
          16 callsubr
          vhcurveto
          hintmask 11111000
          227 128 2 callsubr
          59 -54 callgsubr
          -65 vlineto
          -35 callgsubr
          -67 -51 -61 callgsubr
          hintmask 11110100
          4 callsubr
          -283 563 rmoveto
          -106 callsubr
          endchar
        </CharString>
        <CharString name="D">
          241 62 callgsubr
          hstem
          -63 -56 callsubr
          235 236 vstem
          174 1003 rmoveto
          63 callgsubr
          113 -38 callsubr
          -79 callsubr
          -775 -112 vlineto
          -50 -41 -22 callgsubr
          40 -40 51 hvcurveto
          525 hlineto
          -73 callgsubr
          endchar
        </CharString>
        <CharString name="Dcaron">
          241 62 callgsubr
          134 395 -27 callsubr
          -157 490 -98 236 hintmask 11011010
          174 1003 rmoveto
          63 callgsubr
          113 -38 callsubr
          -79 callsubr
          -775 -112 vlineto
          -50 -41 -22 callgsubr
          40 -40 51 hvcurveto
          525 hlineto
          -73 callgsubr
          hintmask 00100100
          -24 1388 -107 callsubr
        </CharString>
        <CharString name="Dcroat">
          369 -39 callsubr
          378 112 508 142 hstem
          60 -56 callsubr
          236 236 vstem
          297 1003 rmoveto
          63 callgsubr
          113 -38 callsubr
          -79 callsubr
          -285 -130 vlineto
          -63 callgsubr
          127 -378 -132 hlineto
          -50 -41 -22 callgsubr
          40 -40 51 hvcurveto
          546 hlineto
          -87 callgsubr
          767 vlineto
          163 -132 -26 callsubr
          -514 -99 callsubr
          -28 callgsubr
          52 -51 65 -90 callsubr
          457 -444 rmoveto
          -29 callsubr
          -60 390 hlineto
          65 47 49 62 4 vhcurveto
          10 hlineto
          64 53 -53 -66 hvcurveto
          -762 vlineto
          -66 -53 -51 -64 vhcurveto
          -119 378 hlineto
          endchar
        </CharString>
        <CharString name="Delta">
          237 -19 1378 hstem
          -234 1225 -1055 1225 vstem
          952 hmoveto
          67 38 84 67 -20 hvcurveto
          -336 1130 rlineto
          54 -16 -44 43 -64 hhcurveto
          -61 -50 -46 -54 -15 hvcurveto
          -316 -1130 rlineto
          -68 -19 37 -80 67 hhcurveto
          242 556 rmoveto
          24 93 58 195 33 204 32 -204 54 -191 24 -94 97 -378 rcurveline
          -417 hlineto
          endchar
        </CharString>
        <CharString name="E">
          -55 callgsubr
          hstemhm
          49 callgsubr
          228 235 -201 217 hintmask 00000000
          hintmask 11110010
          519 1379 rmoveto
          -230 -137 -113 -183 hvcurveto
          -287 vlineto
          -105 42 -73 115 -46 vhcurveto
          hintmask 11101100
          -84 -47 -57 -67 -134 vvcurveto
          -30 vlineto
          -178 128 -116 227 218 127 116 180 65 -51 53 -66 -66 -52 -53 -65 -66 -50 -50 -60 -67 -51 52 66 vhcurveto
          70 vlineto
          67 -62 callgsubr
          50 39 40 50 49 -39 41 -50 vhcurveto
          -18 hlineto
          hintmask 11110010
          -64 -53 51 68 hvcurveto
          307 vlineto
          68 58 38 82 85 54 -44 -74 vhcurveto
          -83 -84 -22 -82 vvcurveto
          -66 52 -51 66 111 72 128 180 184 -132 111 -233 vhcurveto
          endchar
        </CharString>
        <CharString name="Eacute">
          -55 callgsubr
          113 394 hstemhm
          49 callgsubr
          -23 394 -143 -105 callgsubr
          hintmask 0001001000000000
          -116 223 -106 callgsubr
        </CharString>
        <CharString name="Ebreve">
          -55 callgsubr
          114 395 hstemhm
          49 callgsubr
          -130 490 -132 -105 callgsubr
          hintmask 0001001000000000
          5 307 -101 callgsubr
        </CharString>
        <CharString name="Ecaron">
          -55 callgsubr
          114 395 hstemhm
          49 callgsubr
          -130 490 -132 -105 callgsubr
          hintmask 0001001000000000
          -107 190 -107 callsubr
        </CharString>
        <CharString name="Ecircumflex">
          -55 callgsubr
          114 395 hstemhm
          49 callgsubr
          -131 490 -131 -105 callgsubr
          hintmask 0001001000000000
          116 433 -107 callgsubr
        </CharString>
        <CharString name="Edieresis">
          -55 callgsubr
          131 268 hstemhm
          49 callgsubr
          -233 685 -224 -105 callgsubr
          -21 callgsubr
          -343 264 rmoveto
          -106 callsubr
          hintmask 0001001000000000
          416 hmoveto
          -72 61 -61 73 74 61 61 72 75 -61 60 -74 -73 -61 -4 callgsubr
        </CharString>
        <CharString name="Edotaccent">
          -55 callgsubr
          131 268 hstem
          49 callgsubr
          -233 -22 callsubr
          -224 235 -201 217 vstem
          519 1379 rmoveto
          -230 -137 -113 -183 hvcurveto
          -287 vlineto
          -105 42 -73 115 -46 vhcurveto
          -84 -47 -57 -67 -134 vvcurveto
          -30 vlineto
          -178 128 -116 227 218 127 116 180 65 -51 53 -66 -66 -52 -53 -65 -66 -50 -50 -60 -67 -51 52 66 vhcurveto
          70 vlineto
          67 -62 callgsubr
          50 39 40 50 49 -39 41 -50 vhcurveto
          -18 hlineto
          -64 -53 51 68 hvcurveto
          307 vlineto
          68 58 38 82 85 54 -44 -74 vhcurveto
          -83 -84 -22 -82 vvcurveto
          -66 52 -51 66 111 72 128 180 184 -132 111 -233 vhcurveto
          -130 264 rmoveto
          -106 callsubr
          endchar
        </CharString>
        <CharString name="Egrave">
          -55 callgsubr
          113 394 hstemhm
          49 callgsubr
          -142 394 -24 -105 callgsubr
          hintmask 0001001000000000
          -32 441 -100 callsubr
        </CharString>
        <CharString name="Emacron">
          -55 callgsubr
          131 268 hstem
          49 callgsubr
          -233 -22 callsubr
          -224 235 -201 217 vstem
          519 1379 rmoveto
          -230 -137 -113 -183 hvcurveto
          -287 vlineto
          -105 42 -73 115 -46 vhcurveto
          -84 -47 -57 -67 -134 vvcurveto
          -30 vlineto
          -178 128 -116 227 218 127 116 180 65 -51 53 -66 -66 -52 -53 -65 -66 -50 -50 -60 -67 -51 52 66 vhcurveto
          70 vlineto
          67 -62 callgsubr
          50 39 40 50 49 -39 41 -50 vhcurveto
          -18 hlineto
          -64 -53 51 68 hvcurveto
          307 vlineto
          68 58 38 82 85 54 -44 -74 vhcurveto
          -83 -84 -22 -82 vvcurveto
          -66 52 -51 66 111 72 128 180 184 -132 111 -233 vhcurveto
          293 267 -93 callgsubr
        </CharString>
        <CharString name="Eng">
          248 -474 1833 -1378 1398 hstemhm
          174 159 188 159 -111 238 hintmask 10101000
          569 1087 rmoveto
          64 58 48 63 65 53 -33 callsubr
          -1256 vlineto
          -65 -49 -52 -66 vhcurveto
          -98 hlineto
          -48 -42 -41 -50 -50 42 -40 48 hvcurveto
          156 hlineto
          164 130 -83 callgsubr
          -1 1261 rlineto
          hintmask 01110000
          163 -117 133 -145 -81 -49 -33 -35 -38 vhcurveto
          -12 -12 -10 -13 -16 hhcurveto
          -17 -6 14 10 -7 hvcurveto
          hintmask 10110000
          42 callgsubr
          -90 callgsubr
          57 vlineto
          64 49 52 65 3 vhcurveto
          45 -1081 hlineto
          hintmask 01110000
          59 callgsubr
          vhcurveto
          hintmask 10101000
          65 51 53 64 hvcurveto
          endchar
        </CharString>
        <CharString name="Eogonek">
          72 -52 callgsubr
          92 180 306 180 532 181 hstem
          49 callgsubr
          85 188 -45 235 -201 217 vstem
          509 -127 rmoveto
          28 34 41 46 45 56 rrcurveto
          156 31 89 105 151 vvcurveto
          65 -51 53 -66 -66 -52 -53 -65 -66 -50 -50 -60 -67 -51 52 66 vhcurveto
          70 vlineto
          67 -62 callgsubr
          50 39 40 50 49 -39 41 -50 vhcurveto
          -18 hlineto
          -64 -53 51 68 hvcurveto
          307 vlineto
          68 58 38 82 85 54 -44 -74 vhcurveto
          -83 -84 -22 -82 vvcurveto
          -66 52 -51 66 111 72 128 180 184 -132 111 -233 -230 -137 -113 -183 vhcurveto
          -287 vlineto
          -105 42 -73 115 -46 vhcurveto
          -84 -47 -57 -67 -134 vvcurveto
          -30 vlineto
          -156 97 -108 176 -25 vhcurveto
          -104 -102 -91 -92 -86 -62 callsubr
        </CharString>
        <CharString name="Eth">
          369 -39 callsubr
          378 112 508 142 hstem
          60 -56 callsubr
          236 236 vstem
          297 1003 rmoveto
          63 callgsubr
          113 -38 callsubr
          -79 callsubr
          -285 -130 vlineto
          -63 callgsubr
          127 -378 -132 hlineto
          -50 -41 -22 callgsubr
          40 -40 51 hvcurveto
          546 hlineto
          -87 callgsubr
          767 vlineto
          163 -132 -26 callsubr
          -514 -99 callsubr
          -28 callgsubr
          52 -51 65 -90 callsubr
          457 -444 rmoveto
          -29 callsubr
          -60 390 hlineto
          65 47 49 62 4 vhcurveto
          10 hlineto
          64 53 -53 -66 hvcurveto
          -762 vlineto
          -66 -53 -51 -64 vhcurveto
          -119 378 hlineto
          endchar
        </CharString>
        <CharString name="Euro">
          -39 callsubr
          247 111 104 111 425 180 hstem
          202 237 236 237 vstem
          675 991 rmoveto
          -66 53 -51 65 66 53 51 66 vhcurveto
          72 -67 callgsubr
          -128 -116 -178 vhcurveto
          -311 -33 vlineto
          -33 -25 -23 -31 hvcurveto
          -33 -1 26 -24 36 hhcurveto
          30 -104 -33 hlineto
          -33 -25 -23 -31 hvcurveto
          -33 -1 26 -24 36 hhcurveto
          30 -132 hlineto
          -84 callsubr
          285 hlineto
          51 39 40 50 49 -39 42 -51 hvcurveto
          -226 -40 callsubr
          130 276 vlineto
          26 callsubr
          -275 104 346 hlineto
          26 callsubr
          -345 306 hlineto
          -7 callsubr
          endchar
        </CharString>
        <CharString name="F">
          73 -39 callsubr
          350 180 468 180 hstem
          54 237 158 236 vstem
          71 callsubr
          44 -233 hlineto
          -101 callsubr
          235 192 vlineto
          51 40 41 49 50 -40 40 -51 hvcurveto
          -192 350 hlineto
          65 48 53 62 vhcurveto
          141 hlineto
          50 41 callsubr
          -50 hvcurveto
          -586 -96 callgsubr
          57 60 vhcurveto
          115 32 callsubr
          -245 -44 vlineto
          -51 -40 -41 -49 hvcurveto
          endchar
        </CharString>
        <CharString name="G">
          70 -439 181 238 182 -161 -21 93 89 -8 callgsubr
          hstemhm
          -73 callsubr
          236 28 callsubr
          hintmask 10101101
          -95 callgsubr
          -809 50 callgsubr
          vhcurveto
          hintmask 10111110
          64 callgsubr
          hvcurveto
          -69 callgsubr
          -182 vlineto
          -83 callsubr
          118 hlineto
          163 131 -83 callgsubr
          583 -54 callgsubr
          -172 vlineto
          hintmask 11001110
          -35 callgsubr
          -66 -52 -61 callgsubr
          hintmask 10101101
          4 callsubr
          endchar
        </CharString>
        <CharString name="Gbreve">
          70 -439 181 238 182 -161 -21 93 89 -8 callgsubr
          114 -49 callsubr
          -126 490 -128 -16 callsubr
          -21 callgsubr
          hintmask 1010101001000000
          -95 callgsubr
          -809 50 callgsubr
          vhcurveto
          hintmask 1011101010000000
          64 callgsubr
          hvcurveto
          -69 callgsubr
          -182 vlineto
          -83 callsubr
          118 hlineto
          163 131 -83 callgsubr
          583 -54 callgsubr
          -172 vlineto
          hintmask 1100101010000000
          -35 callgsubr
          -66 -52 -61 callgsubr
          hintmask 1010101001000000
          4 callsubr
          hintmask 0000010100000000
          -147 606 -101 callgsubr
        </CharString>
        <CharString name="Gcircumflex">
          70 -439 181 238 182 -161 -21 93 89 -8 callgsubr
          114 47 callgsubr
          -16 callsubr
          -21 callgsubr
          hintmask 1010101001000000
          -95 callgsubr
          -809 50 callgsubr
          vhcurveto
          hintmask 1011101010000000
          64 callgsubr
          hvcurveto
          -69 callgsubr
          -182 vlineto
          -83 callsubr
          118 hlineto
          163 131 -83 callgsubr
          583 -54 callgsubr
          -172 vlineto
          hintmask 1100101010000000
          -35 callgsubr
          -66 -52 -61 callgsubr
          hintmask 1010101001000000
          4 callsubr
          hintmask 0000010100000000
          -36 732 -107 callgsubr
        </CharString>
        <CharString name="Gcommaaccent">
          70 -439 181 238 182 -161 -21 93 89 -8 callgsubr
          hstemhm
          -73 callsubr
          236 -16 callsubr
          hintmask 11001101
          -95 callgsubr
          -809 vlineto
          -162 107 -27 callgsubr
          hintmask 10111110
          -69 callgsubr
          -36 vlineto
          -81 52 -49 59 79 47 48 82 vhcurveto
          435 -54 callgsubr
          -172 vlineto
          -35 callgsubr
          -66 -52 -61 callgsubr
          hintmask 10111101
          4 callsubr
          hintmask 00000000
          -218 -1365 -103 callsubr
        </CharString>
        <CharString name="Gdotaccent">
          70 -439 181 238 182 -161 -21 93 89 -8 callgsubr
          131 268 hstemhm
          -73 callsubr
          -229 685 -220 -16 callsubr
          hintmask 1100111001000000
          -95 callgsubr
          -809 vlineto
          -162 107 -27 callgsubr
          hintmask 1011110100000000
          11 11 10 14 15 hhcurveto
          hintmask 1011111010000000
          12 18 -7 -25 hvcurveto
          -182 vlineto
          -83 callsubr
          118 hlineto
          163 131 -83 callgsubr
          583 -54 callgsubr
          -172 vlineto
          -35 callgsubr
          -66 -52 -61 callgsubr
          hintmask 1011111001000000
          4 callsubr
          -282 563 rmoveto
          -106 callsubr
          endchar
        </CharString>
        <CharString name="H">
          412 181 252 hstemhm
          301 159 236 239 hintmask 00000000
          302 523 rmoveto
          63 callsubr
          70 -135 hlineto
          -101 callsubr
          137 239 -316 vlineto
          7 callgsubr
          1122 vlineto
          7 callsubr
          -625 -239 625 vlineto
          67 -52 53 -66 -86 callgsubr
          57 vlineto
          70 47 49 67 vhcurveto
          45 -565 -70 hlineto
          hintmask 11100000
          -39 callgsubr
          hvcurveto
          endchar
        </CharString>
        <CharString name="Hbar">
          375 181 252 hstem
          301 159 236 239 vstem
          1262 830 rmoveto
          31 25 23 33 30 -25 26 -32 hvcurveto
          -88 hlineto
          1 317 rlineto
          7 callsubr
          -2 -317 rlineto
          -240 297 hlineto
          67 -52 53 -66 vhcurveto
          -292 hlineto
          -51 -40 -44 -50 -50 40 -41 51 hvcurveto
          174 -232 -98 hlineto
          -63 callgsubr
          95 -216 -70 hlineto
          -70 callsubr
          70 -135 hlineto
          -101 callsubr
          137 239 -335 vlineto
          7 callgsubr
          2 732 rlineto
          -477 -216 rmoveto
          216 240 vlineto
          -1 -216 rlineto
          endchar
        </CharString>
        <CharString name="Hcircumflex">
          412 181 252 1060 395 hstemhm
          301 159 96 490 -350 239 hintmask 00000000
          302 523 rmoveto
          63 callsubr
          70 -135 hlineto
          -101 callsubr
          137 239 -316 vlineto
          7 callgsubr
          1122 vlineto
          7 callsubr
          -625 -239 625 vlineto
          67 -52 53 -66 -86 callgsubr
          57 vlineto
          70 47 49 67 vhcurveto
          45 -565 -70 hlineto
          hintmask 10101000
          -39 callgsubr
          hvcurveto
          hintmask 01010000
          611 1289 -107 callgsubr
        </CharString>
        <CharString name="I">
          27 callsubr
          hstem
          257 159 vstem
          267 1060 rmoveto
          4 callgsubr
          45 -881 hlineto
          -101 callsubr
          943 vlineto
          67 -52 53 -66 -86 callgsubr
          endchar
        </CharString>
        <CharString name="IJ">
          -39 callsubr
          193 40 callgsubr
          234 238 vstem
          745 1360 rmoveto
          -65 -42 callgsubr
          -582 vlineto
          -9 callgsubr
          -50 -30 callsubr
          570 vlineto
          64 -54 53 14 callsubr
          -573 vlineto
          -163 106 -133 144 75 44 32 36 36 vhcurveto
          -69 callgsubr
          -137 vlineto
          -65 -51 -52 -67 vhcurveto
          -233 hlineto
          -50 -41 -41 -50 -50 41 -40 50 hvcurveto
          292 hlineto
          163 134 -83 callgsubr
          947 59 callsubr
          -67 vhcurveto
          endchar
        </CharString>
        <CharString name="Iacute">
          27 callsubr
          133 394 hstemhm
          257 159 -43 394 hintmask 10100000
          267 1060 rmoveto
          4 callgsubr
          45 -881 hlineto
          -101 callsubr
          943 vlineto
          67 -52 53 -66 -86 callgsubr
          hintmask 01010000
          123 599 -106 callgsubr
        </CharString>
        <CharString name="Ibreve">
          27 callsubr
          134 395 hstemhm
          257 159 -150 490 hintmask 10100000
          267 1060 rmoveto
          4 callgsubr
          45 -881 hlineto
          -101 callsubr
          943 vlineto
          67 -52 53 -66 -86 callgsubr
          hintmask 01010000
          244 683 -101 callgsubr
        </CharString>
        <CharString name="Icircumflex">
          27 callsubr
          134 395 hstemhm
          257 159 -151 490 hintmask 10100000
          267 1060 rmoveto
          4 callgsubr
          45 -881 hlineto
          -101 callsubr
          943 vlineto
          67 -52 53 -66 -86 callgsubr
          hintmask 01010000
          355 809 -107 callgsubr
        </CharString>
        <CharString name="Idieresis">
          27 callsubr
          3 callgsubr
          163 685 -591 159 hintmask 10010000
          267 1060 rmoveto
          4 callgsubr
          45 -881 hlineto
          -101 callsubr
          943 vlineto
          67 -52 53 -66 -86 callgsubr
          hintmask 00000000
          -104 640 rmoveto
          -106 callsubr
          hintmask 01100000
          416 hmoveto
          -72 61 -61 73 74 61 61 72 75 -61 60 -74 -73 -61 -4 callgsubr
        </CharString>
        <CharString name="Idotaccent">
          27 callsubr
          151 268 hstem
          163 685 -591 159 163 269 vstem
          267 1060 rmoveto
          4 callgsubr
          45 -881 hlineto
          -101 callsubr
          943 vlineto
          67 -52 53 -66 -86 callgsubr
          109 640 rmoveto
          -106 callsubr
          endchar
        </CharString>
        <CharString name="Igrave">
          27 callsubr
          133 394 hstemhm
          254 394 -391 159 hintmask 10010000
          267 1060 rmoveto
          4 callgsubr
          45 -881 hlineto
          -101 callsubr
          943 vlineto
          67 -52 53 -66 -86 callgsubr
          hintmask 01100000
          207 817 -100 callsubr
        </CharString>
        <CharString name="Imacron">
          27 callsubr
          151 268 hstem
          163 685 -591 159 163 269 vstem
          267 1060 rmoveto
          4 callgsubr
          45 -881 hlineto
          -101 callsubr
          943 vlineto
          67 -52 53 -66 -86 callgsubr
          532 643 -93 callgsubr
        </CharString>
        <CharString name="Iogonek">
          -144 -52 callgsubr
          92 1359 hstem
          257 159 -62 188 vstem
          369 -127 rmoveto
          32 38 48 55 53 67 rrcurveto
          95 49 65 100 114 vvcurveto
          943 vlineto
          67 -52 53 -66 -77 callsubr
          45 -881 hlineto
          -83 callsubr
          44 hlineto
          -102 -100 -87 -91 -84 -62 callsubr
        </CharString>
        <CharString name="Itilde">
          27 callsubr
          1 callgsubr
          189 659 -591 159 hintmask 10001000
          267 1060 rmoveto
          4 callgsubr
          45 -881 hlineto
          -101 callsubr
          943 vlineto
          67 -52 53 -66 -86 callgsubr
          hintmask 00000000
          415 712 -71 callsubr
          hintmask 01010000
          -97 callgsubr
          hintmask 00110000
          -92 callsubr
        </CharString>
        <CharString name="J">
          -97 -474 1833 hstem
          257 159 vstem
          436 -176 rmoveto
          -65 -53 -52 -66 vhcurveto
          -98 hlineto
          -48 -42 -41 -50 -50 42 -40 48 hvcurveto
          156 hlineto
          164 133 -83 callgsubr
          1417 vlineto
          67 -52 53 -66 vhcurveto
          -209 hlineto
          -162 -134 -100 callgsubr
          57 vlineto
          58 callsubr
          vhcurveto
          31 hlineto
          endchar
        </CharString>
        <CharString name="Jcircumflex">
          -97 -474 1833 134 395 hstemhm
          257 159 -151 490 hintmask 10100000
          436 -176 rmoveto
          -65 -53 -52 -66 vhcurveto
          -98 hlineto
          -48 -42 -41 -50 -50 42 -40 48 hvcurveto
          156 hlineto
          164 133 -83 callgsubr
          1417 vlineto
          67 -52 53 -66 vhcurveto
          -209 hlineto
          -162 -134 -100 callgsubr
          57 vlineto
          58 callsubr
          vhcurveto
          31 hlineto
          hintmask 01010000
          186 633 -107 callgsubr
        </CharString>
        <CharString name="K">
          408 -3 callgsubr
          hstem
          64 237 160 238 233 238 vstem
          44 1003 rmoveto
          -66 53 -51 64 -90 callsubr
          63 callgsubr
          52 -1081 hlineto
          -64 53 -80 callgsubr
          446 117 vlineto
          64 53 -51 -68 -416 190 -195 107 -50 hvcurveto
          110 -50 92 126 -85 92 rrcurveto
          -105 114 -71 99 240 vvcurveto
          29 vlineto
          111 -53 72 -95 37 vhcurveto
          87 48 60 66 138 vvcurveto
          353 vlineto
          68 -53 -78 callgsubr
          -395 vlineto
          -67 -51 -33 callsubr
          -116 515 hlineto
          5 callgsubr
          vhcurveto
          -221 -99 callsubr
          endchar
        </CharString>
        <CharString name="Kcommaaccent">
          408 -3 callgsubr
          hstemhm
          64 237 160 238 233 238 vstemhm
          44 1003 rmoveto
          -66 53 -51 64 -90 callsubr
          63 callgsubr
          52 -1081 hlineto
          -64 53 -80 callgsubr
          446 117 vlineto
          64 53 -51 -68 -416 190 -195 107 -50 hvcurveto
          110 -50 92 126 -85 92 rrcurveto
          -105 114 -71 99 240 vvcurveto
          29 vlineto
          111 -53 72 -95 37 vhcurveto
          87 48 60 66 138 vvcurveto
          353 vlineto
          68 -53 -78 callgsubr
          -395 vlineto
          -67 -51 -33 callsubr
          -116 515 hlineto
          5 callgsubr
          vhcurveto
          -221 -99 callsubr
          691 -1348 -103 callsubr
        </CharString>
        <CharString name="L">
          73 0 180 999 180 hstem
          216 237 293 237 vstem
          -17 callsubr
          86 hlineto
          51 41 callsubr
          -51 hvcurveto
          -146 hlineto
          -162 -134 -133 -163 hvcurveto
          -770 vlineto
          -64 -51 -48 -67 -39 callgsubr
          63 callsubr
          589 hlineto
          163 133 133 163 68 -52 51 -65 -68 -52 -51 -66 -62 -50 -56 -58 hvcurveto
          -249 hlineto
          -21 -8 18 12 15 13 10 12 -11 callsubr
          endchar
        </CharString>
        <CharString name="Lacute">
          73 0 180 999 180 133 394 hstemhm
          216 237 -123 394 22 237 hintmask 11010100
          -17 callsubr
          86 hlineto
          51 41 callsubr
          -51 hvcurveto
          -146 hlineto
          -162 -134 -133 -163 hvcurveto
          -770 vlineto
          -64 -51 -48 -67 -39 callgsubr
          63 callsubr
          589 hlineto
          163 133 133 163 68 -52 51 -65 -68 -52 -51 -66 -62 -50 -56 -58 hvcurveto
          -249 hlineto
          -21 -8 18 12 15 13 10 12 -11 callsubr
          hintmask 00101000
          -106 1200 -106 callgsubr
        </CharString>
        <CharString name="Lcaron">
          73 0 180 700 499 -200 180 hstemhm
          216 237 293 237 935 201 hintmask 10111000
          -17 callsubr
          36 hlineto
          51 41 callsubr
          -51 hvcurveto
          -96 hlineto
          -162 -134 -133 -163 hvcurveto
          -770 vlineto
          -64 -51 -48 -67 -39 callgsubr
          63 callsubr
          589 hlineto
          163 133 133 163 68 -52 51 -65 -68 -52 -51 -66 -62 -50 -56 -58 hvcurveto
          -249 hlineto
          -21 -8 18 12 15 13 10 12 -11 callsubr
          hintmask 01000100
          456 667 -71 callgsubr
        </CharString>
        <CharString name="Lcommaaccent">
          73 0 180 999 180 hstemhm
          216 237 293 237 vstemhm
          -17 callsubr
          86 hlineto
          51 41 callsubr
          -51 hvcurveto
          -146 hlineto
          -162 -134 -133 -163 hvcurveto
          -770 vlineto
          -64 -51 -48 -67 -39 callgsubr
          63 callsubr
          589 hlineto
          163 133 133 163 68 -52 51 -65 -68 -52 -51 -66 -62 -50 -56 -58 hvcurveto
          -249 hlineto
          -21 -8 18 12 15 13 10 12 -11 callsubr
          -68 -687 -103 callsubr
        </CharString>
        <CharString name="Ldot">
          73 0 180 495 -21 525 180 hstemhm
          216 237 289 270 -266 237 hintmask 10110100
          -17 callsubr
          86 hlineto
          51 41 callsubr
          -51 hvcurveto
          -146 hlineto
          -162 -134 -133 -163 hvcurveto
          -770 vlineto
          -64 -51 -48 -67 -39 callgsubr
          63 callsubr
          589 hlineto
          163 133 133 163 68 -52 51 -65 -68 -52 -51 -66 -62 -50 -56 -58 hvcurveto
          -249 hlineto
          -21 -8 18 12 15 13 10 12 -11 callsubr
          hintmask 01001000
          289 385 rmoveto
          -106 callsubr
          endchar
        </CharString>
        <CharString name="Lslash">
          73 0 180 391 390 218 180 hstem
          -34 880 -630 237 293 237 vstem
          -17 callsubr
          86 hlineto
          51 41 callsubr
          -51 hvcurveto
          -146 hlineto
          -162 -134 -133 -163 hvcurveto
          -308 vlineto
          -211 -76 -30 -12 -16 -30 10 -29 rlinecurve
          11 -31 33 -14 33 12 170 62 rcurveline
          -344 vlineto
          -64 -51 -48 -67 -39 callgsubr
          63 callsubr
          589 hlineto
          163 133 133 163 68 -52 51 -65 -68 -52 -51 -66 -62 -50 -56 -58 hvcurveto
          -249 hlineto
          -21 -8 18 12 15 13 10 12 -11 callsubr
          321 vlineto
          356 131 29 10 16 30 -11 30 rlinecurve
          -10 30 -33 14 -29 -11 -318 -116 rcurveline
          endchar
        </CharString>
        <CharString name="M">
          754 73 callsubr
          hstem
          174 159 236 239 237 -82 callsubr
          endchar
        </CharString>
        <CharString name="N">
          241 73 callsubr
          hstem
          174 159 236 238 vstem
          -102 callsubr
          endchar
        </CharString>
        <CharString name="Nacute">
          241 73 callsubr
          113 394 hstemhm
          174 159 221 394 -379 238 hintmask 10101000
          -102 callsubr
          hintmask 01010000
          379 599 -106 callgsubr
        </CharString>
        <CharString name="Ncaron">
          248 73 callsubr
          114 395 hstemhm
          174 159 114 490 -368 238 hintmask 10101000
          -102 callsubr
          hintmask 01010000
          388 566 -107 callsubr
        </CharString>
        <CharString name="Ncommaaccent">
          248 73 callsubr
          hstemhm
          174 159 236 238 vstemhm
          -102 callsubr
          418 -1288 -103 callsubr
        </CharString>
        <CharString name="Ntilde">
          241 73 callsubr
          132 -2 callsubr
          174 159 37 659 -460 238 hintmask 10010100
          -102 callsubr
          hintmask 00000000
          671 712 -71 callsubr
          hintmask 01001000
          -97 callgsubr
          hintmask 00101000
          -92 callsubr
        </CharString>
        <CharString name="O">
          70 -46 callsubr
          -36 callgsubr
          236 -43 callsubr
          hintmask 11101000
          363 1080 rmoveto
          66 55 53 85 75 51 -33 callsubr
          -812 vlineto
          66 callgsubr
          vhcurveto
          hintmask 11011000
          -66 -52 38 68 hvcurveto
          332 vlineto
          66 -52 -72 callgsubr
          -66 vhcurveto
          -326 vlineto
          -180 128 -113 227 224 131 113 183 vhcurveto
          808 vlineto
          178 -128 116 -227 vhcurveto
          hintmask 11101000
          -233 -132 -116 -179 -180 72 -128 111 66 -62 callgsubr
          hvcurveto
          82 -84 22 83 vvcurveto
          endchar
        </CharString>
        <CharString name="OE">
          436 -39 callsubr
          305 180 511 182 -160 180 hstemhm
          -73 callsubr
          236 -43 callsubr
          hintmask 11011100
          1129 486 rmoveto
          50 39 41 49 50 -39 40 -50 hvcurveto
          -263 405 hlineto
          hintmask 11101100
          70 51 36 66 vhcurveto
          235 1 rlineto
          51 39 42 49 50 -39 40 -51 hvcurveto
          -203 hlineto
          -110 -73 -26 -56 -50 hvcurveto
          -9 -8 -7 -3 -7 hhcurveto
          -9 -6 3 9 -9 hvcurveto
          64 -59 -69 38 -116 hhcurveto
          -221 -125 -116 -179 -180 72 -128 111 66 -62 callgsubr
          hvcurveto
          82 -84 22 83 vvcurveto
          66 55 53 85 75 51 -33 callsubr
          -812 vlineto
          -67 -49 -39 -69 -66 -52 -15 callgsubr
          282 vlineto
          66 -52 -72 callgsubr
          -66 vhcurveto
          -276 vlineto
          -180 120 -113 215 117 69 36 64 59 vhcurveto
          9 9 6 3 9 hhcurveto
          7 7 65 callsubr
          -56 50 73 -25 110 hhcurveto
          203 hlineto
          51 39 40 50 49 -39 42 -51 hvcurveto
          -233 hlineto
          -66 -52 36 70 hvcurveto
          199 vlineto
          endchar
        </CharString>
        <CharString name="Oacute">
          70 -46 callsubr
          113 394 -36 callgsubr
          30 394 -188 -102 callgsubr
          hintmask 00100100
          77 522 -106 callgsubr
        </CharString>
        <CharString name="Obreve">
          70 -46 callsubr
          114 395 -36 callgsubr
          -127 490 -127 -102 callgsubr
          hintmask 00100100
          148 606 -101 callgsubr
        </CharString>
        <CharString name="Ocircumflex">
          70 -46 callsubr
          114 395 -36 callgsubr
          -78 490 -176 -102 callgsubr
          hintmask 00100100
          309 732 -107 callgsubr
        </CharString>
        <CharString name="Odieresis">
          70 -46 callsubr
          131 268 -36 callgsubr
          -180 685 -269 -102 callgsubr
          hintmask 00000000
          -150 563 rmoveto
          -106 callsubr
          hintmask 00100100
          416 hmoveto
          -72 61 -61 73 74 61 61 72 75 -61 60 -74 -73 -61 -4 callgsubr
        </CharString>
        <CharString name="Ograve">
          70 -46 callsubr
          113 394 -36 callgsubr
          -89 394 -69 -102 callgsubr
          hintmask 00100100
          161 740 -100 callsubr
        </CharString>
        <CharString name="Ohungarumlaut">
          70 -46 callsubr
          113 394 -36 callgsubr
          -144 394 -14 -102 callgsubr
          hintmask 00100100
          -97 522 -76 callgsubr
          244 -218 -76 callgsubr
          endchar
        </CharString>
        <CharString name="Omacron">
          70 -46 callsubr
          131 268 -36 callgsubr
          186 269 -219 237 hintmask 11110100
          363 1080 rmoveto
          66 55 53 85 vhcurveto
          hintmask 11101010
          75 51 -53 -66 hvcurveto
          -812 vlineto
          66 callgsubr
          -66 -52 -15 callgsubr
          332 vlineto
          66 -52 -72 callgsubr
          -66 vhcurveto
          -326 vlineto
          -180 128 -113 227 224 131 113 183 vhcurveto
          808 vlineto
          178 -128 116 -227 vhcurveto
          hintmask 11110100
          -233 -132 -116 -179 -180 72 -128 111 66 -62 callgsubr
          hvcurveto
          82 -84 22 83 vvcurveto
          436 566 -93 callgsubr
        </CharString>
        <CharString name="Omega">
          70 -364 181 163 181 -161 180 -180 181 349 179 197 180 93 180 -160 180 hstemhm
          -943 237 68 237 60 callsubr
          83 227 -227 237 -177 237 176 237 -120 237 hintmask 1100111011100101
          550 117 rmoveto
          hintmask 1010111011100101
          -66 48 -51 60 vhcurveto
          hintmask 1001111011100110
          208 19 callsubr
          41 36 37 45 75 vvcurveto
          682 vlineto
          hintmask 1100110111100101
          178 -132 116 -233 -230 -135 -116 -180 vhcurveto
          -680 vlineto
          -75 37 -45 41 -36 vhcurveto
          11 -11 14 -10 -15 vvcurveto
          hintmask 1001111011100101
          -12 -7 -18 -22 vhcurveto
          hintmask 1001111011101001
          -64 hlineto
          -48 -42 -41 -50 -50 42 -40 48 hvcurveto
          208 hlineto
          60 48 51 66 hvcurveto
          hintmask 1100111011110001
          86 -89 24 88 vvcurveto
          765 vlineto
          hintmask 1100110111100101
          66 56 53 72 73 55 -33 callsubr
          -765 vlineto
          -88 -89 -24 -86 vvcurveto
          endchar
        </CharString>
        <CharString name="Oslash">
          143 -50 1444 -1413 -36 callsubr
          hstemhm
          200 873 -854 217 -207 237 236 237 hintmask 10001010
          436 1080 rmoveto
          hintmask 01110000
          66 55 53 85 vhcurveto
          hintmask 10000110
          75 51 -53 -66 hvcurveto
          -170 vlineto
          -236 -450 rlineto
          140 vlineto
          66 -52 -72 callgsubr
          -66 vhcurveto
          -326 vlineto
          -54 11 -48 22 -40 vhcurveto
          -54 -98 -16 -30 9 -34 26 -13 rlinecurve
          30 -16 34 10 16 32 34 62 rcurveline
          hintmask 01110000
          -42 59 82 -22 102 hhcurveto
          hintmask 10001010
          224 131 113 183 hvcurveto
          807 vlineto
          126 228 16 28 -9 33 -27 15 rlinecurve
          -28 14 -35 -9 -15 -28 -70 -125 rcurveline
          hintmask 01110000
          87 -54 -108 52 -151 hhcurveto
          hintmask 10001010
          -233 -132 -116 -179 -180 72 -128 111 66 -62 callgsubr
          hvcurveto
          82 -84 22 83 vvcurveto
          hintmask 01110000
          148 -918 rmoveto
          hintmask 10000110
          -66 -52 38 68 hvcurveto
          1 vlineto
          236 450 rlineto
          -451 vlineto
          hintmask 01110000
          66 callgsubr
          vhcurveto
          endchar
        </CharString>
        <CharString name="Otilde">
          70 -46 callsubr
          132 181 -61 181 -36 callgsubr
          -154 659 -269 -43 callsubr
          hintmask 11001001
          363 1080 rmoveto
          66 55 53 85 75 51 -33 callsubr
          -812 vlineto
          66 callgsubr
          vhcurveto
          hintmask 11000101
          -66 -52 38 68 hvcurveto
          332 vlineto
          66 -52 -72 callgsubr
          -66 vhcurveto
          -326 vlineto
          -180 128 -113 227 224 131 113 183 vhcurveto
          808 vlineto
          178 -128 116 -227 vhcurveto
          hintmask 11001001
          -233 -132 -116 -179 -180 72 -128 111 66 -62 callgsubr
          hvcurveto
          82 -84 22 83 vvcurveto
          hintmask 00000000
          369 635 -71 callsubr
          hintmask 00100010
          -97 callgsubr
          hintmask 00010010
          -92 callsubr
        </CharString>
        <CharString name="P">
          241 70 callsubr
          hstem
          -63 -56 callsubr
          239 236 vstem
          -54 1063 rmoveto
          -94 callgsubr
          57 60 vhcurveto
          113 -38 callsubr
          -79 callsubr
          -858 vlineto
          -63 callsubr
          376 180 vlineto
          163 132 131 165 hvcurveto
          293 vlineto
          163 -126 -26 callsubr
          -523 -99 callsubr
          633 -2 rmoveto
          65 51 52 72 1 vhcurveto
          63 1 53 -55 -65 vvcurveto
          -288 vlineto
          -67 -53 -53 -64 vhcurveto
          -122 hlineto
          endchar
        </CharString>
        <CharString name="Q">
          70 1 callsubr
          hstem
          156 227 246 237 vstem
          162 90 rmoveto
          63 callsubr
          616 19 callsubr
          36 36 32 45 75 vvcurveto
          680 -67 callgsubr
          -128 -116 -178 vhcurveto
          -413 vlineto
          -198 76 -110 117 66 -62 callgsubr
          vhcurveto
          82 -84 22 83 vvcurveto
          412 vlineto
          66 55 53 73 -69 callsubr
          -798 vlineto
          -65 -54 -36 -64 vhcurveto
          -261 hlineto
          -39 callgsubr
          hvcurveto
          endchar
        </CharString>
        <CharString name="R">
          239 -3 callgsubr
          hstem
          -63 -56 callsubr
          235 236 vstem
          681 -99 callgsubr
          endchar
        </CharString>
        <CharString name="Racute">
          329 -3 callgsubr
          133 394 hstemhm
          21 -56 callsubr
          22 394 -181 236 hintmask 11101101
          765 -99 callgsubr
          hintmask 00010010
          46 878 -106 callgsubr
        </CharString>
        <CharString name="Rcaron">
          329 -3 callgsubr
          134 395 hstemhm
          21 -56 callsubr
          -85 490 -170 236 hintmask 11101101
          765 -99 callgsubr
          hintmask 00010010
          55 845 -107 callsubr
        </CharString>
        <CharString name="Rcommaaccent">
          329 -3 callgsubr
          hstemhm
          21 -56 callsubr
          235 236 vstemhm
          765 -99 callgsubr
          102 -1009 -103 callsubr
        </CharString>
        <CharString name="S">
          74 1 callsubr
          hstemhm
          100 224 238 238 -198 217 hintmask 00000000
          hintmask 11101000
          622 1080 rmoveto
          -89 callsubr
          hintmask 11110000
          -94 callsubr
          vhcurveto
          hintmask 11101000
          77 54 -53 -66 hvcurveto
          endchar
        </CharString>
        <CharString name="Sacute">
          29 callgsubr
          113 394 hstemhm
          100 224 9 394 -165 -91 callgsubr
          -272 522 -106 callgsubr
        </CharString>
        <CharString name="Scaron">
          29 callgsubr
          114 395 hstemhm
          100 224 -98 490 -154 -91 callgsubr
          -263 489 -107 callsubr
        </CharString>
        <CharString name="Scedilla">
          35 26 callgsubr
          73 callgsubr
          hstemhm
          100 224 173 188 -83 217 hintmask 11111010
          430 -204 rmoveto
          hintmask 11111100
          -74 callsubr
          40 93 rlineto
          153 14 136 126 171 vvcurveto
          111 -45 87 -94 78 vhcurveto
          -227 182 rlineto
          -61 49 -49 93 101 vvcurveto
          116 63 70 84 77 54 -33 callsubr
          -89 callsubr
          171 -140 rlineto
          41 -37 22 -36 -47 vvcurveto
          -67 -54 -47 -81 vhcurveto
          -84 50 callsubr
          -50 42 -40 49 hvcurveto
          34 hlineto
          -40 -91 -23 callgsubr
        </CharString>
        <CharString name="Scircumflex">
          29 callgsubr
          114 395 hstemhm
          100 224 -99 490 -153 -91 callgsubr
          -40 732 -107 callgsubr
        </CharString>
        <CharString name="Scommaaccent">
          29 callgsubr
          hstemhm
          100 224 238 238 -198 217 hintmask 00000000
          hintmask 11101000
          622 1080 rmoveto
          -89 callsubr
          hintmask 11110000
          -94 callsubr
          vhcurveto
          hintmask 11101000
          77 54 -53 -66 hvcurveto
          hintmask 00000000
          -243 -1365 -103 callsubr
        </CharString>
        <CharString name="T">
          -97 62 callgsubr
          hstem
          27 callgsubr
          vstem
          -91 callsubr
          -79 callsubr
          endchar
        </CharString>
        <CharString name="Tbar">
          30 callsubr
          hstem
          27 callgsubr
          vstem
          -70 callgsubr
          405 144 70 callgsubr
          -143 248 hlineto
          65 48 53 62 50 41 callsubr
          -50 vhcurveto
          -551 -96 callgsubr
          57 60 vhcurveto
          218 -38 callsubr
          -79 callsubr
          -143 -153 vlineto
          -63 callgsubr
          150 hlineto
          endchar
        </CharString>
        <CharString name="Tcaron">
          30 callsubr
          134 395 hstemhm
          -1 237 19 490 -245 236 hintmask 11010100
          -91 callsubr
          -79 callsubr
          hintmask 00101000
          -112 613 -107 callsubr
        </CharString>
        <CharString name="Tcommaaccent">
          30 callsubr
          hstemhm
          27 callgsubr
          vstemhm
          -91 callsubr
          -79 callsubr
          -171 -1241 -103 callsubr
        </CharString>
        <CharString name="Thorn">
          164 2 -21 353 178 403 180 284 -20 hstem
          -63 -56 callsubr
          235 236 vstem
          -63 799 rmoveto
          -94 callgsubr
          57 60 vhcurveto
          51 -817 hlineto
          -63 callsubr
          236 176 vlineto
          163 132 131 165 hvcurveto
          169 vlineto
          162 -126 134 -163 vhcurveto
          -182 167 hlineto
          65 -54 52 14 callsubr
          -167 -100 vlineto
          -163 -133 -134 -162 hvcurveto
          868 -3 rmoveto
          -164 vlineto
          -67 -53 -53 -64 vhcurveto
          -118 403 119 hlineto
          63 53 -54 -65 hvcurveto
          endchar
        </CharString>
        <CharString name="U">
          -64 callsubr
          hstemhm
          64 237 160 -11 callgsubr
          hintmask 10010110
          1054 1379 rmoveto
          24 callgsubr
          -994 vlineto
          -67 -56 -40 -64 -65 -52 -30 callsubr
          962 vlineto
          hintmask 10101110
          64 -53 53 -67 vhcurveto
          -218 -99 callsubr
          -28 callgsubr
          52 -51 65 -90 callsubr
          57 vlineto
          4 callgsubr
          46 -902 hlineto
          -163 117 -133 145 76 44 34 34 37 vhcurveto
          hintmask 01010110
          12 12 10 13 16 hhcurveto
          17 6 -14 -11 5 hvcurveto
          hintmask 10010110
          -17 8 29 -51 -23 callsubr
          1161 59 callsubr
          -65 vhcurveto
          endchar
        </CharString>
        <CharString name="Uacute">
          -64 callsubr
          133 394 -40 callgsubr
          19 394 -176 -105 callsubr
          hintmask 0000100100000000
          -320 223 -106 callgsubr
        </CharString>
        <CharString name="Ubreve">
          -64 callsubr
          134 395 -40 callgsubr
          -128 490 -125 -105 callsubr
          hintmask 0000100100000000
          -239 307 -101 callgsubr
        </CharString>
        <CharString name="Ucircumflex">
          -64 callsubr
          134 395 -40 callgsubr
          -89 490 -164 -105 callsubr
          hintmask 0000100100000000
          -88 433 -107 callgsubr
        </CharString>
        <CharString name="Udieresis">
          -64 callsubr
          151 268 -40 callgsubr
          -191 685 -257 -105 callsubr
          -21 callgsubr
          -547 -21 callsubr
        </CharString>
        <CharString name="Ugrave">
          -64 callsubr
          133 394 -40 callgsubr
          -100 394 -57 -105 callsubr
          hintmask 0000100100000000
          -236 441 -100 callsubr
        </CharString>
        <CharString name="Uhungarumlaut">
          -64 callsubr
          133 394 -40 callgsubr
          -145 394 -12 -105 callsubr
          hintmask 0000100100000000
          -484 223 -76 callgsubr
          244 -218 -76 callgsubr
          endchar
        </CharString>
        <CharString name="Umacron">
          -64 callsubr
          151 268 -40 callgsubr
          -231 -22 callsubr
          -217 237 hintmask 1001110100000000
          1054 1379 rmoveto
          hintmask 1001111001000000
          24 callgsubr
          -994 vlineto
          -67 -56 -40 -64 -65 -52 -30 callsubr
          962 59 callsubr
          -67 vhcurveto
          -218 -99 callsubr
          -28 callgsubr
          52 -51 65 -90 callsubr
          57 vlineto
          hintmask 1010110100000000
          4 callgsubr
          hintmask 1010111010000000
          46 -902 hlineto
          -163 117 -133 145 76 44 34 34 37 vhcurveto
          hintmask 0101110100000000
          12 12 10 13 16 hhcurveto
          17 6 -14 -11 5 hvcurveto
          hintmask 1001110100000000
          -17 8 29 -51 71 hhcurveto
          hintmask 1001111001000000
          -38 callgsubr
          1161 59 callsubr
          -65 vhcurveto
          49 267 -93 callgsubr
        </CharString>
        <CharString name="Uogonek">
          410 -52 callgsubr
          73 -25 callgsubr
          73 callgsubr
          20 -20 -40 callgsubr
          60 callsubr
          hintmask 1110011110000000
          999 -127 rmoveto
          25 30 34 39 39 47 rrcurveto
          44 17 31 43 52 vvcurveto
          1161 59 callsubr
          -65 -66 -53 -53 -64 vhcurveto
          -994 vlineto
          -67 -56 -40 -64 -65 -52 -30 callsubr
          962 59 callsubr
          -67 vhcurveto
          -218 -99 callsubr
          -28 callgsubr
          52 -51 65 -90 callsubr
          57 vlineto
          hintmask 1110101110000000
          4 callgsubr
          46 -902 hlineto
          -163 117 -133 145 76 44 34 34 37 vhcurveto
          hintmask 1101011110000000
          12 12 10 13 16 hhcurveto
          17 6 -14 -11 5 hvcurveto
          2 -5 3 -6 5 -8 rrcurveto
          -14 callsubr
          endchar
        </CharString>
        <CharString name="Uring">
          -64 callsubr
          126 31 callgsubr
          -40 callgsubr
          -105 31 callsubr
          -98 237 -21 callgsubr
          hintmask 1001000100100000
          1054 1379 rmoveto
          24 callgsubr
          -994 vlineto
          -67 -56 -40 -64 -65 -52 -30 callsubr
          962 vlineto
          hintmask 1010001100100000
          64 -53 53 -67 vhcurveto
          -218 -99 callsubr
          -28 callgsubr
          52 -51 65 -90 callsubr
          57 vlineto
          4 callgsubr
          46 -902 hlineto
          -163 117 -133 145 76 44 34 34 37 vhcurveto
          hintmask 0101000100100000
          12 12 10 13 16 hhcurveto
          17 6 -14 -11 5 hvcurveto
          hintmask 1001000100100000
          -17 8 29 -51 -23 callsubr
          1161 59 callsubr
          -65 vhcurveto
          hintmask 0000110011000000
          -240 106 -88 callsubr
        </CharString>
        <CharString name="Utilde">
          -64 callsubr
          152 181 -61 181 -40 callgsubr
          -205 659 -217 237 -21 callgsubr
          hintmask 1001000101000000
          1054 1379 rmoveto
          24 callgsubr
          -994 vlineto
          -67 -56 -40 -64 -65 -52 -30 callsubr
          962 vlineto
          hintmask 1010001101000000
          64 -53 53 -67 vhcurveto
          -218 -99 callsubr
          -28 callgsubr
          52 -51 65 -90 callsubr
          57 vlineto
          4 callgsubr
          46 -902 hlineto
          -163 117 -133 145 76 44 34 34 37 vhcurveto
          hintmask 0101000101000000
          12 12 10 13 16 hhcurveto
          17 6 -14 -11 5 hvcurveto
          hintmask 1001000101000000
          -17 8 29 -51 -23 callsubr
          1161 59 callsubr
          -65 vhcurveto
          -21 callgsubr
          -68 336 -71 callsubr
          hintmask 0000100010000000
          -97 callgsubr
          hintmask 0000010010000000
          -92 callsubr
        </CharString>
        <CharString name="V">
          241 -19 1378 hstem
          -64 1225 vstem
          173 1060 rmoveto
          4 callgsubr
          55 hlineto
          279 -1098 rlineto
          -54 14 51 -46 61 hhcurveto
          64 46 42 55 14 hvcurveto
          286 1130 17 68 -37 64 -65 16 rlinecurve
          -64 16 -69 -52 -11 -52 -101 -468 rcurveline
          -21 -95 -37 -190 -22 -204 -20 204 -45 194 -20 94 -97 465 rcurveline
          58 -12 -56 33 -57 hhcurveto
          -208 hlineto
          -162 -134 -100 callgsubr
          endchar
        </CharString>
        <CharString name="W">
          -12 callsubr
          17 callgsubr
          236 237 236 -43 callsubr
          hintmask 10101110
          1286 268 8 callsubr
          -52 36 70 vhcurveto
          991 vlineto
          68 -52 -78 callgsubr
          -991 3 callsubr
          -67 -51 -15 callgsubr
          971 vlineto
          hintmask 11011110
          68 -52 52 -65 -77 callsubr
          43 -902 hlineto
          -183 141 -113 184 116 72 33 67 56 vhcurveto
          56 callgsubr
          -67 56 72 -33 115 hhcurveto
          187 138 2 callsubr
          1 985 rlineto
          68 -52 -78 callgsubr
          endchar
        </CharString>
        <CharString name="Wacute">
          -12 callsubr
          133 394 17 callgsubr
          218 394 -376 237 236 237 -21 callgsubr
          hintmask 1010010110000000
          1286 268 8 callsubr
          -52 36 70 vhcurveto
          991 vlineto
          68 -52 -78 callgsubr
          -991 3 callsubr
          -67 -51 -15 callgsubr
          971 vlineto
          hintmask 1100110110000000
          68 -52 52 -65 -77 callsubr
          43 -902 hlineto
          -183 141 -113 184 116 72 33 67 56 vhcurveto
          56 callgsubr
          -67 56 72 -33 115 hhcurveto
          187 138 2 callsubr
          1 985 rlineto
          68 -52 -78 callgsubr
          hintmask 0001001000000000
          -482 343 -106 callgsubr
        </CharString>
        <CharString name="Wcircumflex">
          -12 callsubr
          134 395 17 callgsubr
          110 490 -364 237 236 237 -21 callgsubr
          hintmask 1010010110000000
          1286 268 8 callsubr
          -52 36 70 vhcurveto
          991 vlineto
          68 -52 -78 callgsubr
          -991 3 callsubr
          -67 -51 -15 callgsubr
          971 vlineto
          hintmask 1100110110000000
          68 -52 52 -65 -77 callsubr
          43 -902 hlineto
          -183 141 -113 184 116 72 33 67 56 vhcurveto
          56 callgsubr
          -67 56 72 -33 115 hhcurveto
          187 138 2 callsubr
          1 985 rlineto
          68 -52 -78 callgsubr
          hintmask 0001001000000000
          -250 553 -107 callgsubr
        </CharString>
        <CharString name="Wdieresis">
          -12 callsubr
          151 268 17 callgsubr
          8 685 -457 237 236 237 -21 callgsubr
          hintmask 1010010110000000
          1286 268 8 callsubr
          -52 36 70 vhcurveto
          991 vlineto
          68 -52 -78 callgsubr
          -991 3 callsubr
          -67 -51 -15 callgsubr
          971 vlineto
          hintmask 1100110110000000
          68 -52 52 -65 -77 callsubr
          43 -902 hlineto
          -183 141 -113 184 116 72 33 67 56 vhcurveto
          56 callgsubr
          -67 56 72 -33 115 hhcurveto
          187 138 2 callsubr
          1 985 rlineto
          68 -52 -78 callgsubr
          -21 callgsubr
          -709 384 rmoveto
          -106 callsubr
          hintmask 0001001000000000
          416 hmoveto
          -72 61 -61 73 74 61 61 72 75 -61 60 -74 -73 -61 -4 callgsubr
        </CharString>
        <CharString name="Wgrave">
          -12 callsubr
          133 394 17 callgsubr
          99 394 -257 237 236 237 -21 callgsubr
          hintmask 1010010110000000
          1286 268 8 callsubr
          -52 36 70 vhcurveto
          991 vlineto
          68 -52 -78 callgsubr
          -991 3 callsubr
          -67 -51 -15 callgsubr
          971 vlineto
          hintmask 1100110110000000
          68 -52 52 -65 -77 callsubr
          43 -902 hlineto
          -183 141 -113 184 116 72 33 67 56 vhcurveto
          56 callgsubr
          -67 56 72 -33 115 hhcurveto
          187 138 2 callsubr
          1 985 rlineto
          68 -52 -78 callgsubr
          hintmask 0001001000000000
          -398 561 -100 callsubr
        </CharString>
        <CharString name="X">
          240 2 -21 633 180 385 180 20 -20 hstemhm
          -64 237 160 236 238 236 hintmask 00000000
          hintmask 11010110
          332 956 rmoveto
          40 callsubr
          -95 -38 -53 -71 -111 vvcurveto
          -386 vlineto
          -64 51 -53 66 68 51 53 64 vhcurveto
          397 vlineto
          68 53 51 69 66 50 -33 callsubr
          -397 vlineto
          7 callgsubr
          386 38 callgsubr
          303 vlineto
          7 callsubr
          -347 vlineto
          -67 -53 -51 -63 -72 -50 52 66 vhcurveto
          327 vlineto
          hintmask 11101110
          67 -51 53 -68 -77 callsubr
          46 hlineto
          endchar
        </CharString>
        <CharString name="Y">
          -32 callsubr
          29 callsubr
          237 238 hintmask 00000000
          hintmask 11010110
          1051 1379 rmoveto
          -65 -42 callgsubr
          -601 vlineto
          -9 callgsubr
          -53 -30 callsubr
          569 vlineto
          hintmask 11101110
          64 -54 53 -65 vhcurveto
          -217 hlineto
          -162 -134 -100 callgsubr
          57 vlineto
          4 callgsubr
          44 -509 hlineto
          -163 106 -133 144 75 47 32 36 36 vhcurveto
          -69 callgsubr
          -137 vlineto
          -65 -53 -92 callgsubr
          136 -83 callgsubr
          966 vlineto
          hintmask 11010110
          64 -53 53 -67 vhcurveto
          endchar
        </CharString>
        <CharString name="Yacute">
          -32 callsubr
          133 394 29 callsubr
          21 394 -178 -98 callgsubr
          hintmask 0000100100000000
          -317 223 -106 callgsubr
        </CharString>
        <CharString name="Ycircumflex">
          -32 callsubr
          134 395 29 callsubr
          -127 490 -126 -98 callgsubr
          hintmask 0000100100000000
          -125 433 -107 callgsubr
        </CharString>
        <CharString name="Ydieresis">
          -32 callsubr
          151 268 29 callsubr
          -229 685 -219 -98 callgsubr
          -21 callgsubr
          -584 -21 callsubr
        </CharString>
        <CharString name="Ygrave">
          -32 callsubr
          133 394 29 callsubr
          -138 394 -19 -98 callgsubr
          hintmask 0000100100000000
          -273 441 -100 callsubr
        </CharString>
        <CharString name="Z">
          13 callsubr
          hstemhm
          39 -43 callsubr
          hintmask 10110000
          -95 callsubr
          hintmask 01110000
          0 callsubr
          hintmask 10110000
          -34 37 45 -34 76 hhcurveto
          endchar
        </CharString>
        <CharString name="Zacute">
          13 callsubr
          133 394 hstemhm
          39 237 119 394 hintmask 00000000
          hintmask 10101000
          -95 callsubr
          hintmask 01101000
          0 callsubr
          hintmask 10101000
          -34 37 45 -34 76 hhcurveto
          hintmask 00010100
          -237 1602 -106 callgsubr
        </CharString>
        <CharString name="Zcaron">
          13 callsubr
          134 395 hstemhm
          39 237 12 490 hintmask 00000000
          hintmask 10101000
          -95 callsubr
          hintmask 01101000
          0 callsubr
          hintmask 10101000
          -34 37 45 -34 76 hhcurveto
          hintmask 00010100
          -228 1569 -107 callsubr
        </CharString>
        <CharString name="Zdotaccent">
          13 callsubr
          3 callgsubr
          39 237 325 269 hintmask 10111100
          -95 callsubr
          hintmask 01111100
          0 callsubr
          hintmask 10111100
          -34 37 45 -34 76 hhcurveto
          -251 1643 rmoveto
          -106 callsubr
          endchar
        </CharString>
        <CharString name="a">
          -20 181 -88 88 369 179 177 15 callsubr
          hintmask 10111100
          6 callgsubr
          -138 -14 callgsubr
          120 -134 143 76 45 31 36 36 vhcurveto
          hintmask 01111100
          12 11 9 14 17 hhcurveto
          17 7 -15 -11 5 hvcurveto
          hintmask 10111100
          -14 7 28 -53 -16 callgsubr
          673 vlineto
          163 -133 -26 callsubr
          -236 hlineto
          -51 -40 -41 -50 hvcurveto
          149 -563 rmoveto
          66 52 52 67 vhcurveto
          118 -268 hlineto
          -63 -54 -38 -64 -67 -52 51 66 vhcurveto
          endchar
        </CharString>
        <CharString name="aacute">
          -35 callsubr
          43 callgsubr
          156 237 -20 394 -137 -104 callgsubr
          hintmask 00001010
          -3 1051 -106 callgsubr
        </CharString>
        <CharString name="abreve">
          -35 callsubr
          154 395 hstemhm
          156 237 -126 490 -127 -104 callgsubr
          hintmask 00001010
          118 1122 -101 callgsubr
        </CharString>
        <CharString name="acircumflex">
          -20 181 -88 88 369 179 177 37 callsubr
          -126 -104 callgsubr
          hintmask 00001010
          230 1261 -107 callgsubr
        </CharString>
        <CharString name="acute">
          379 1179 394 hstem
          580 394 vstem
          597 1289 -106 callgsubr
        </CharString>
        <CharString name="acute.cap">
          -490 1492 394 hstem
          26 394 vstem
          43 1602 -106 callgsubr
        </CharString>
        <CharString name="adieresis">
          -35 callsubr
          3 callgsubr
          -73 callsubr
          -218 665 -210 -104 callgsubr
          hintmask 00000000
          -218 1072 rmoveto
          -106 callsubr
          hintmask 00001010
          396 hmoveto
          -72 61 -61 73 74 61 61 72 75 -61 60 -74 -73 -61 -4 callgsubr
        </CharString>
        <CharString name="ae">
          19 callgsubr
          hstemhm
          156 237 60 callsubr
          236 237 -21 callgsubr
          hintmask 1001101110000000
          -25 callsubr
          hintmask 0110011110000000
          -74 callgsubr
          endchar
        </CharString>
        <CharString name="aeacute">
          19 callgsubr
          154 -45 callgsubr
          222 394 -379 237 236 237 -21 callgsubr
          hintmask 1001100101100000
          -25 callsubr
          hintmask 0110010101100000
          -74 callgsubr
          hintmask 0000001010000000
          -471 562 -106 callgsubr
        </CharString>
        <CharString name="agrave">
          -35 callsubr
          43 callgsubr
          156 237 -139 394 -18 -104 callgsubr
          hintmask 00001010
          81 1269 -100 callsubr
        </CharString>
        <CharString name="amacron">
          -35 callsubr
          183 112 hstemhm
          -73 callsubr
          -226 665 -202 -104 callgsubr
          hintmask 00001010
          396 1085 -93 callgsubr
        </CharString>
        <CharString name="ampersand">
          241 -39 callsubr
          242 180 596 180 hstemhm
          49 callgsubr
          228 235 -201 217 70 -43 callsubr
          hintmask 11110011
          523 181 rmoveto
          -73 -58 38 68 hvcurveto
          296 vlineto
          67 64 40 51 11 vhcurveto
          50 11 39 35 54 vvcurveto
          hintmask 11101101
          56 -39 33 -50 11 vhcurveto
          -44 10 -54 41 67 vvcurveto
          62 vlineto
          66 51 52 67 58 49 -48 -63 3 vhcurveto
          -15 vlineto
          -64 52 -54 66 66 51 53 65 vhcurveto
          15 vlineto
          177 -3 -126 114 -216 hhcurveto
          -227 -128 -116 -178 hvcurveto
          -32 vlineto
          40 callsubr
          hintmask 11110011
          -100 -48 -64 -66 -138 vvcurveto
          -253 vlineto
          -183 137 -113 230 233 132 116 179 54 -13 40 -23 34 vhcurveto
          47 hlineto
          163 133 -83 callgsubr
          67 vlineto
          66 -53 51 -64 -68 -52 -51 -66 vhcurveto
          -64 vlineto
          -62 -48 -57 -60 vhcurveto
          -145 hlineto
          -18 callgsubr
          -66 hvcurveto
          -86 84 -13 -88 vvcurveto
          -66 -63 -52 -85 vhcurveto
          endchar
        </CharString>
        <CharString name="aogonek">
          -52 callgsubr
          72 -41 callsubr
          hstemhm
          156 237 60 callsubr
          -190 188 hintmask 1110111010000000
          692 -127 rmoveto
          24 29 34 39 38 46 rrcurveto
          hintmask 1110111100000000
          47 16 32 43 51 vvcurveto
          673 vlineto
          163 -133 -26 callsubr
          -236 hlineto
          -51 -40 -41 -50 -50 40 -39 51 hvcurveto
          177 hlineto
          -65 callgsubr
          hvcurveto
          -58 -178 vlineto
          -163 -133 -131 -164 hvcurveto
          -138 -14 callgsubr
          120 -134 143 76 45 31 36 36 vhcurveto
          hintmask 1101111010000000
          12 11 9 14 17 hhcurveto
          17 7 -15 -11 5 hvcurveto
          1 -4 3 -5 4 -7 rrcurveto
          -114 -113 -107 -1 callgsubr
          -299 539 rmoveto
          66 52 52 67 vhcurveto
          hintmask 1110111100000000
          118 -268 hlineto
          -63 -54 -38 -64 -67 -52 51 66 vhcurveto
          endchar
        </CharString>
        <CharString name="approxequal">
          687 330 -198 198 hstem
          116 791 vstem
          708 860 -52 callsubr
          -75 -428 -52 callsubr
          endchar
        </CharString>
        <CharString name="aring">
          -35 callsubr
          152 31 callgsubr
          hstemhm
          -73 callsubr
          -96 31 callsubr
          -107 237 -21 callgsubr
          hintmask 1011001001000000
          6 callgsubr
          -138 -14 callgsubr
          120 -134 143 76 45 31 36 36 vhcurveto
          hintmask 0111001001000000
          12 11 9 14 17 hhcurveto
          17 7 -15 -11 5 hvcurveto
          hintmask 1011001001000000
          -14 7 28 -53 -16 callgsubr
          673 vlineto
          163 -133 -26 callsubr
          -236 hlineto
          -51 -40 -41 -50 hvcurveto
          149 -563 rmoveto
          66 52 52 67 vhcurveto
          118 -268 hlineto
          -63 -54 -38 -64 -67 -52 51 66 vhcurveto
          hintmask 0000110110000000
          125 940 -88 callsubr
        </CharString>
        <CharString name="asciicircum">
          1378 -20 hstem
          110 803 vstem
          654 1268 rmoveto
          61 -28 -50 49 -69 hhcurveto
          -69 -43 -54 -56 -26 hvcurveto
          -250 -536 -18 -39 8 -46 39 -22 rlinecurve
          40 -24 47 15 25 36 251 365 rcurveline
          252 -365 25 -36 47 -15 40 24 rlinecurve
          39 22 8 46 -18 39 rrcurveto
          endchar
        </CharString>
        <CharString name="asciitilde">
          307 330 -198 198 hstemhm
          116 791 hintmask 00000000
          hintmask 10100000
          708 531 rmoveto
          -18 -23 -8 -8 -13 hhcurveto
          -16 -10 14 12 -12 hvcurveto
          hintmask 01100000
          57 -53 -60 49 -93 hhcurveto
          -129 -82 -73 -101 -72 hvcurveto
          -26 -34 -4 -44 29 -29 27 -26 47 3 30 23 75 57 rcurveline
          18 23 7 8 14 hhcurveto
          16 10 -14 -12 12 hvcurveto
          -57 51 63 -49 92 hhcurveto
          129 79 75 99 75 hvcurveto
          26 34 4 44 -29 29 -27 26 -47 -3 -30 -23 rrcurveto
          endchar
        </CharString>
        <CharString name="asterisk">
          -144 973 127 -121 123 hstem
          350 120 vstem
          492 1235 rmoveto
          61 11 -28 63 -74 hhcurveto
          -72 -24 -66 -58 9 hvcurveto
          15 -96 -82 42 -55 28 -69 -6 -22 -70 rlinecurve
          -23 -69 56 -43 58 -9 95 -15 rcurveline
          -66 -66 -44 -44 -15 -67 60 -43 rlinecurve
          58 -43 59 40 26 52 44 87 rcurveline
          44 -86 28 -55 59 -35 60 44 rlinecurve
          58 42 -19 68 -42 41 -69 68 rcurveline
          90 14 61 10 51 45 -23 70 rlinecurve
          -22 69 -71 3 -52 -28 -85 -44 rcurveline
          endchar
        </CharString>
        <CharString name="at">
          746 -291 112 234 115 776 86 312 111 hstem
          218 140 206 192 192 192 199 141 vstem
          1138 -235 rmoveto
          31 -25 25 -31 vhcurveto
          -245 1 rlineto
          -304 1 -175 125 202 vvcurveto
          876 vlineto
          193 171 125 307 318 185 -125 -195 vhcurveto
          -759 vlineto
          -60 -36 -35 -44 -51 -68 45 60 vhcurveto
          717 vlineto
          52 -51 40 -50 -54 -23 -39 -13 -6 vhcurveto
          -9 -4 -4 -10 -13 hhcurveto
          -13 -6 10 9 -10 hvcurveto
          27 -27 -46 25 -59 hhcurveto
          -111 -99 -103 -124 hvcurveto
          -574 vlineto
          -141 118 -87 142 88 66 25 52 43 vhcurveto
          9 7 5 0 6 hhcurveto
          6 6 -2 -7 6 hvcurveto
          -52 43 65 -25 90 hhcurveto
          129 96 87 138 hvcurveto
          744 vlineto
          262 -237 169 -404 -398 -223 -169 -260 vhcurveto
          -891 vlineto
          -260 230 -166 392 vhcurveto
          242 hlineto
          30 26 23 33 hvcurveto
          -190 510 rmoveto
          -54 -52 -27 -49 -51 -40 29 52 vhcurveto
          579 vlineto
          51 39 41 50 49 54 -31 -52 vhcurveto
          endchar
        </CharString>
        <CharString name="atilde">
          -35 callsubr
          1 callgsubr
          -73 callsubr
          -189 659 -233 237 -21 callgsubr
          hintmask 1011001010000000
          6 callgsubr
          -138 -14 callgsubr
          120 -134 143 76 45 31 36 36 vhcurveto
          hintmask 0111001010000000
          12 11 9 14 17 hhcurveto
          17 7 -15 -11 5 hvcurveto
          hintmask 1011001010000000
          -14 7 28 -53 -16 callgsubr
          673 vlineto
          163 -133 -26 callsubr
          -236 hlineto
          -51 -40 -41 -50 hvcurveto
          149 -563 rmoveto
          66 52 52 67 vhcurveto
          118 -268 hlineto
          -63 -54 -38 -64 -67 -52 51 66 vhcurveto
          -21 callgsubr
          304 1144 -71 callsubr
          hintmask 0000100100000000
          -97 callgsubr
          hintmask 0000010100000000
          -92 callsubr
        </CharString>
        <CharString name="b">
          0 180 725 88 -88 182 0 -20 hstemhm
          53 callgsubr
          236 -43 callsubr
          hintmask 11011100
          156 119 rmoveto
          -67 52 -52 68 vhcurveto
          296 hlineto
          -13 callgsubr
          -77 -46 -32 -36 -34 vhcurveto
          -12 -13 -10 -14 -13 -5 callgsubr
          4 49 47 65 hhcurveto
          -34 callsubr
          -64 hvcurveto
          endchar
        </CharString>
        <CharString name="backslash">
          -359 1897 hstemhm
          191 642 vstemhm
          370 1470 rmoveto
          -13 51 -50 27 -50 -13 -48 -13 -28 -49 13 -50 461 -1715 rcurveline
          12 -49 49 -28 49 13 rrcurveto
          hintmask 11000000
          49 14 28 50 -12 47 rrcurveto
          endchar
        </CharString>
        <CharString name="bar">
          -274 -359 1897 hstem
          248 181 vstem
          338 39 callgsubr
          -1721 vlineto
          -20 callgsubr
          1721 vlineto
          72 callgsubr
        </CharString>
        <CharString name="braceleft">
          -271 180 1449 180 hstem
          355 237 vstem
          257 734 rmoveto
          -50 -8 -39 -38 -54 vvcurveto
          -56 39 -35 50 -9 vhcurveto
          44 -7 54 -44 -67 vvcurveto
          -235 vlineto
          -230 121 -222 255 vhcurveto
          34 hlineto
          49 41 41 49 48 -41 42 -49 -84 -89 83 179 hvcurveto
          211 vlineto
          138 -60 66 -88 48 vhcurveto
          88 48 60 66 138 vvcurveto
          210 vlineto
          179 89 83 84 48 callsubr
          vhcurveto
          -34 hlineto
          -255 -121 -222 -230 hvcurveto
          -234 vlineto
          -67 -54 -44 -44 -7 vhcurveto
          endchar
        </CharString>
        <CharString name="braceright">
          -271 180 1449 180 hstemhm
          431 237 vstemhm
          766 734 rmoveto
          -44 7 -54 44 67 vvcurveto
          234 vlineto
          230 -121 222 -255 vhcurveto
          -34 hlineto
          -49 -41 -41 -49 -48 41 -42 49 84 89 -83 -179 hvcurveto
          -210 vlineto
          40 callsubr
          -88 -48 -60 -66 -138 vvcurveto
          -211 38 callsubr
          34 hlineto
          255 121 222 230 hvcurveto
          235 vlineto
          67 54 44 44 7 vhcurveto
          50 9 39 35 56 vvcurveto
          hintmask 11100000
          54 -39 38 -50 8 vhcurveto
          endchar
        </CharString>
        <CharString name="bracketleft">
          -271 1811 hstem
          286 451 vstem
          737 -180 -10 callsubr
          -125 1449 125 hlineto
          49 39 42 48 50 -39 41 -49 hvcurveto
          -274 hlineto
          -50 -39 -41 -49 hvcurveto
          -1631 vlineto
          -49 39 -41 50 vhcurveto
          274 hlineto
          49 39 41 50 hvcurveto
          endchar
        </CharString>
        <CharString name="bracketright">
          -271 1811 hstemhm
          286 451 vstemhm
          286 -180 rmoveto
          -50 39 -41 49 vhcurveto
          274 hlineto
          50 39 41 49 hvcurveto
          1631 vlineto
          49 -39 41 -50 vhcurveto
          -274 hlineto
          -70 callsubr
          125 -1449 -125 hlineto
          hintmask 11000000
          -49 -39 -42 -48 hvcurveto
          endchar
        </CharString>
        <CharString name="breve">
          21 callgsubr
          516 1360 -101 callgsubr
        </CharString>
        <CharString name="breve.cap">
          21 callsubr
          231 1686 -101 callgsubr
        </CharString>
        <CharString name="brokenbar">
          -274 -359 1897 hstem
          248 181 vstem
          338 1538 rmoveto
          12 callgsubr
          -1051 vmoveto
          12 callgsubr
          endchar
        </CharString>
        <CharString name="bullet">
          -439 408 419 hstem
          45 422 vstem
          45 617 rmoveto
          -113 97 -96 114 114 97 96 113 116 -97 94 -114 -114 -97 -94 -116 vhcurveto
          endchar
        </CharString>
        <CharString name="c">
          -39 callsubr
          725 40 callgsubr
          vstem
          511 906 rmoveto
          52 callgsubr
          hvcurveto
          -49 callgsubr
          -241 -114 -131 -163 hvcurveto
          -33 callgsubr
          305 hlineto
          51 39 40 50 49 -39 42 -51 hvcurveto
          -246 -40 callsubr
          489 vlineto
          51 callgsubr
          endchar
        </CharString>
        <CharString name="cacute">
          -39 callsubr
          725 9 callsubr
          -21 394 hintmask 11010000
          511 906 rmoveto
          52 callgsubr
          hvcurveto
          -49 callgsubr
          -241 -114 -131 -163 hvcurveto
          -33 callgsubr
          305 hlineto
          51 39 40 50 49 -39 42 -51 hvcurveto
          -246 -40 callsubr
          489 vlineto
          51 callgsubr
          hintmask 00101000
          -122 443 -106 callgsubr
        </CharString>
        <CharString name="caron">
          21 callgsubr
          405 1256 -107 callsubr
        </CharString>
        <CharString name="caron.cap">
          21 callsubr
          119 1569 -107 callsubr
        </CharString>
        <CharString name="caronvertical">
          -442 880 499 hstem
          1221 201 vstem
          212 1069 -71 callgsubr
        </CharString>
        <CharString name="ccaron">
          -39 callsubr
          725 37 callsubr
          hintmask 11010000
          511 906 rmoveto
          52 callgsubr
          hvcurveto
          -49 callgsubr
          -241 -114 -131 -163 hvcurveto
          -33 callgsubr
          305 hlineto
          51 39 40 50 49 -39 42 -51 hvcurveto
          -246 -40 callsubr
          489 vlineto
          51 callgsubr
          hintmask 00101000
          -112 410 -107 callsubr
        </CharString>
        <CharString name="ccedilla">
          26 callgsubr
          725 40 callgsubr
          167 188 vstem
          493 -204 rmoveto
          -74 callsubr
          40 92 rlineto
          163 hlineto
          51 39 40 50 49 -39 42 -51 hvcurveto
          -246 -40 callsubr
          489 vlineto
          66 52 53 66 52 callgsubr
          vhcurveto
          -49 callgsubr
          -241 -114 -131 -163 hvcurveto
          -33 callgsubr
          8 hlineto
          -40 -91 -23 callgsubr
        </CharString>
        <CharString name="ccircumflex">
          -39 callsubr
          725 -61 callsubr
          -128 490 hintmask 11010000
          511 906 rmoveto
          52 callgsubr
          hvcurveto
          -49 callgsubr
          -241 -114 -131 -163 hvcurveto
          -33 callgsubr
          305 hlineto
          51 39 40 50 49 -39 42 -51 hvcurveto
          -246 -40 callsubr
          489 vlineto
          51 callgsubr
          hintmask 00101000
          111 653 -107 callgsubr
        </CharString>
        <CharString name="cdotaccent">
          -39 callsubr
          725 180 154 268 hstemhm
          -73 callsubr
          -230 -22 callsubr
          hintmask 11101000
          511 906 rmoveto
          52 callgsubr
          hvcurveto
          -49 callgsubr
          hvcurveto
          hintmask 11110100
          -241 -114 -131 -163 hvcurveto
          -33 callgsubr
          305 hlineto
          51 39 40 50 49 -39 42 -51 hvcurveto
          -246 -40 callsubr
          489 vlineto
          51 callgsubr
          -131 467 rmoveto
          -106 callsubr
          endchar
        </CharString>
        <CharString name="cedilla">
          275 -52 callgsubr
          hstem
          577 188 vstem
          510 -204 rmoveto
          -74 callsubr
          50 115 rlineto
          -134 hlineto
          -50 -114 -23 callgsubr
        </CharString>
        <CharString name="cent">
          21 -21 133 181 725 180 hstem
          176 237 97 112 vstem
          622 1303 57 callgsubr
          -227 -8 -107 -128 -158 vvcurveto
          -33 callgsubr
          38 -75 55 callsubr
          72 135 vlineto
          51 39 40 50 49 -39 42 -51 hvcurveto
          -135 670 hlineto
          -35 24 33 -31 51 hhcurveto
          66 51 52 66 92 -89 64 -136 20 hvcurveto
          -209 -781 rmoveto
          489 vlineto
          59 41 48 56 10 vhcurveto
          -721 vlineto
          -56 9 -41 47 59 vvcurveto
          endchar
        </CharString>
        <CharString name="circumflex">
          21 callgsubr
          629 1499 -107 callgsubr
        </CharString>
        <CharString name="circumflex.cap">
          21 callsubr
          343 1812 -107 callgsubr
        </CharString>
        <CharString name="colon">
          -439 1 -21 858 -21 hstemhm
          121 270 hintmask 10100000
          121 113 rmoveto
          -106 callsubr
          hintmask 01100000
          837 vmoveto
          -106 callsubr
          endchar
        </CharString>
        <CharString name="comma">
          -439 -251 499 hstemhm
          206 201 hintmask 00000000
          hintmask 11000000
          166 16 -18 callsubr
          endchar
        </CharString>
        <CharString name="commaaccent">
          -490 -492 435 hstemhm
          188 175 hintmask 00000000
          hintmask 11000000
          160 -285 -103 callsubr
        </CharString>
        <CharString name="copyright">
          746 -19 99 221 123 497 123 215 99 hstem
          288 125 210 162 500 124 vstem
          1409 975 -51 callgsubr
          -419 -54 rmoveto
          28 18 -12 -25 16 hvcurveto
          -24 17 23 -22 34 hhcurveto
          46 34 37 44 76 -89 49 -127 -165 -78 -89 -112 hvcurveto
          -340 vlineto
          -111 91 -91 111 vhcurveto
          196 hlineto
          35 26 28 33 35 -26 27 -35 hvcurveto
          -155 hlineto
          -45 -36 37 44 hvcurveto
          335 vlineto
          44 36 37 45 vhcurveto
          endchar
        </CharString>
        <CharString name="currency">
          230 179 547 179 hstem
          145 235 270 235 vstem
          885 828 rmoveto
          47 -8 43 -15 37 vhcurveto
          160 161 26 25 1 35 -24 23 rlinecurve
          -22 22 -34 -1 -24 -23 -149 -149 rcurveline
          55 -62 -95 32 -131 hhcurveto
          -130 -92 -32 -55 -59 hvcurveto
          -149 149 -24 23 -34 1 -22 -22 rlinecurve
          -24 -23 1 -35 26 -25 163 -165 rcurveline
          -13 -36 -6 -41 -45 vvcurveto
          -292 vlineto
          -44 6 -40 14 -36 vhcurveto
          -164 -165 -26 -25 -1 -35 24 -23 rlinecurve
          22 -22 34 1 24 23 150 150 rcurveline
          -58 61 98 -33 135 hhcurveto
          128 92 30 55 59 hvcurveto
          144 -144 24 -23 34 -1 22 22 rlinecurve
          24 23 -1 35 -26 25 -158 158 rcurveline
          14 37 7 43 46 vvcurveto
          -235 55 rmoveto
          -110 -25 -72 -102 -112 -31 72 110 vhcurveto
          183 vlineto
          110 25 72 102 112 31 -72 -110 vhcurveto
          endchar
        </CharString>
        <CharString name="d">
          -20 181 -88 88 725 15 callsubr
          hintmask 10111000
          -42 callsubr
          12 callsubr
          hintmask 01111000
          0 callgsubr
          hintmask 10111000
          -15 7 29 -49 -16 callgsubr
          -474 670 -34 callgsubr
          endchar
        </CharString>
        <CharString name="dagger">
          -24 callsubr
          -1278 hlineto
          -20 callgsubr
          1278 154 vlineto
          hintmask 01100000
          6 callsubr
          -154 262 hlineto
          hintmask 10010000
          72 callgsubr
        </CharString>
        <CharString name="daggerdbl">
          -24 callsubr
          -665 -153 hlineto
          -87 callsubr
          153 -432 hlineto
          -20 callgsubr
          432 154 vlineto
          hintmask 01100000
          6 callsubr
          -154 665 154 hlineto
          6 callsubr
          -154 262 hlineto
          hintmask 10010000
          72 callgsubr
        </CharString>
        <CharString name="dcaron">
          237 -20 181 -88 88 719 499 -493 180 hstemhm
          156 237 60 callsubr
          1201 201 hintmask 00000000
          hintmask 10011100
          -42 callsubr
          12 callsubr
          hintmask 01011100
          0 callgsubr
          hintmask 10011100
          -15 7 29 -49 -16 callgsubr
          -474 670 -34 callgsubr
          hintmask 00100010
          666 802 -71 callgsubr
        </CharString>
        <CharString name="dcroat">
          -20 181 -88 88 725 180 135 181 hstemhm
          -73 callsubr
          -129 814 -448 237 hintmask 10111010
          -8 callsubr
          -83 -290 vlineto
          -63 callgsubr
          287 -159 -178 -99 callsubr
          -494 vlineto
          12 callsubr
          hintmask 01110100
          0 callgsubr
          hintmask 10110100
          -15 7 29 -49 71 hhcurveto
          hintmask 10111010
          45 callgsubr
          hvcurveto
          1128 101 vlineto
          -29 callsubr
          -100 hlineto
          -474 -570 -34 callgsubr
          endchar
        </CharString>
        <CharString name="degree">
          -107 851 150 228 151 hstem
          158 150 232 147 vstem
          424 851 rmoveto
          145 118 118 145 144 -118 122 -145 -145 -121 -122 -144 -143 121 -120 145 hvcurveto
          378 vmoveto
          62 54 -53 -62 -59 -57 -54 -59 -61 -55 51 62 65 50 50 66 hvcurveto
          endchar
        </CharString>
        <CharString name="dieresis">
          744 1177 268 hstemhm
          514 665 -269 269 hintmask 00000000
          hintmask 11000000
          514 1310 rmoveto
          -106 callsubr
          hintmask 10100000
          396 hmoveto
          -72 61 -61 73 74 61 61 72 75 -61 60 -74 -73 -61 -4 callgsubr
        </CharString>
        <CharString name="dieresis.cap">
          -490 1510 268 hstemhm
          -111 -22 callsubr
          hintmask 00000000
          hintmask 11000000
          -111 1643 rmoveto
          -106 callsubr
          hintmask 10100000
          416 hmoveto
          -72 61 -61 73 74 61 61 72 75 -61 60 -74 -73 -61 -4 callgsubr
        </CharString>
        <CharString name="divide">
          77 268 180 181 190 268 hstemhm
          371 270 hintmask 00000000
          hintmask 11110000
          371 210 rmoveto
          -106 callsubr
          819 vmoveto
          -106 callsubr
          547 -413 rmoveto
          -76 callsubr
        </CharString>
        <CharString name="dollar">
          40 180 919 180 hstem
          161 216 81 112 76 216 vstem
          570 1400 57 callgsubr
          -190 -18 -107 -111 -164 vvcurveto
          -94 vlineto
          -136 84 -108 122 -34 vhcurveto
          91 -26 rlineto
          -405 -164 vlineto
          -49 -41 -42 -48 -49 41 -41 49 hvcurveto
          164 -68 55 callsubr
          68 vlineto
          188 19 104 108 166 vvcurveto
          160 vlineto
          159 -98 112 -129 38 vhcurveto
          -65 19 rlineto
          315 134 vlineto
          48 callsubr
          hvcurveto
          -134 hlineto
          76 -837 rmoveto
          -144 vlineto
          -61 -32 -38 -44 -13 vhcurveto
          366 vlineto
          42 -20 34 -39 -51 vvcurveto
          -269 476 rmoveto
          62 vlineto
          52 34 45 47 16 vhcurveto
          -277 vlineto
          -19 6 rlineto
          -33 10 -29 33 53 vvcurveto
          endchar
        </CharString>
        <CharString name="dotaccent">
          -490 1510 268 hstem
          -111 -22 callsubr
          vstem
          106 1643 rmoveto
          -106 callsubr
          endchar
        </CharString>
        <CharString name="dotaccent.cap">
          -490 1510 268 hstem
          -111 -22 callsubr
          vstem
          102 1643 rmoveto
          -106 callsubr
          endchar
        </CharString>
        <CharString name="dotlessi">
          35 callgsubr
          hstem
          219 238 vstem
          219 97 rmoveto
          -64 53 -80 callgsubr
          869 vlineto
          68 -53 -78 callgsubr
          endchar
        </CharString>
        <CharString name="dotlessj">
          -268 -474 1560 hstem
          -46 502 vstem
          220 -58 callsubr
          1144 vlineto
          68 -52 52 -66 -66 -52 -52 -68 vhcurveto
          endchar
        </CharString>
        <CharString name="e">
          10 callsubr
          hstem
          156 237 60 callsubr
          vstem
          -104 callsubr
          endchar
        </CharString>
        <CharString name="eacute">
          0 181 206 175 344 9 callsubr
          -30 394 -127 237 hintmask 11101010
          -104 callsubr
          hintmask 00010100
          -250 562 -106 callgsubr
        </CharString>
        <CharString name="ebreve">
          0 181 206 175 344 -61 callsubr
          -126 490 -127 237 hintmask 11101010
          -104 callsubr
          hintmask 00010100
          -119 633 -101 callgsubr
        </CharString>
        <CharString name="ecaron">
          0 181 206 175 344 -61 callsubr
          -126 490 -127 237 hintmask 11101010
          -104 callsubr
          hintmask 00010100
          -230 529 -107 callsubr
        </CharString>
        <CharString name="ecircumflex">
          0 181 206 175 344 -61 callsubr
          -137 490 -116 237 hintmask 11101010
          -104 callsubr
          hintmask 00010100
          -17 772 -107 callgsubr
        </CharString>
        <CharString name="edieresis">
          10 callsubr
          3 callgsubr
          -73 callsubr
          -228 665 -200 237 hintmask 11101010
          -104 callsubr
          hintmask 00000000
          -465 583 rmoveto
          -106 callsubr
          hintmask 00010100
          396 hmoveto
          -72 61 -61 73 74 61 61 72 75 -61 60 -74 -73 -61 -4 callgsubr
        </CharString>
        <CharString name="edotaccent">
          10 callsubr
          154 268 hstemhm
          -73 callsubr
          -229 -22 callsubr
          -219 237 hintmask 11110100
          778 67 callsubr
          hintmask 11111010
          -67 -51 51 66 hvcurveto
          89 355 vlineto
          hintmask 11111001
          67 52 51 67 hvcurveto
          280 vlineto
          181 -131 120 -10 callgsubr
          -120 -179 vhcurveto
          -491 vlineto
          -84 callsubr
          236 24 callsubr
          hvcurveto
          -148 697 rmoveto
          -225 -237 225 vlineto
          58 callsubr
          -69 callsubr
          -249 586 rmoveto
          -106 callsubr
          endchar
        </CharString>
        <CharString name="egrave">
          0 181 206 175 344 9 callsubr
          -149 394 -8 237 hintmask 11101010
          -104 callsubr
          hintmask 00010100
          -166 780 -100 callsubr
        </CharString>
        <CharString name="eight">
          -19 180 465 161 412 180 hstemhm
          149 45 callsubr
          hintmask 00000000
          hintmask 11110010
          511 -19 rmoveto
          224 138 113 183 hvcurveto
          210 vlineto
          111 -52 72 -103 40 vhcurveto
          hintmask 11101100
          85 48 58 66 135 vvcurveto
          124 vlineto
          180 -132 116 -218 -218 -132 -116 -180 vhcurveto
          -124 vlineto
          -135 57 -66 85 -48 vhcurveto
          hintmask 11110010
          -102 -40 -52 -72 -111 vvcurveto
          -210 vlineto
          -183 138 -113 224 vhcurveto
          127 286 rmoveto
          -68 -56 -38 -72 -73 -55 -15 callgsubr
          240 vlineto
          66 55 53 73 72 56 -33 callsubr
          hintmask 11101100
          -15 386 rmoveto
          -68 -52 -38 -61 -62 -51 -15 callgsubr
          187 vlineto
          66 46 53 67 66 47 -33 callsubr
          endchar
        </CharString>
        <CharString name="ellipsis">
          587 1 -21 hstemhm
          122 270 243 270 243 270 hintmask 11000000
          122 113 rmoveto
          -106 callsubr
          hintmask 10100000
          513 hmoveto
          -106 callsubr
          hintmask 10010000
          513 hmoveto
          -106 callsubr
          endchar
        </CharString>
        <CharString name="emacron">
          10 callsubr
          183 112 hstemhm
          -73 callsubr
          -226 665 -202 237 hintmask 11101010
          -104 callsubr
          hintmask 00010100
          159 596 -93 callgsubr
        </CharString>
        <CharString name="emdash">
          1086 595 181 hstem
          166 1186 vstem
          1871 686 -10 callsubr
          -1529 hlineto
          -87 callsubr
          1529 -48 callsubr
        </CharString>
        <CharString name="endash">
          578 595 181 hstem
          166 996 vstem
          1360 686 -10 callsubr
          -1018 hlineto
          -87 callsubr
          1018 -48 callsubr
        </CharString>
        <CharString name="eng">
          -474 1560 -1085 17 callsubr
          hstemhm
          -73 callsubr
          -133 502 -132 237 hintmask 10000100
          629 -58 callsubr
          hintmask 01011010
          2 968 rlineto
          162 -117 134 -145 -76 -46 -32 -36 -35 vhcurveto
          hintmask 01100100
          -31 callsubr
          hintmask 01010100
          16 -9 -28 52 -71 hhcurveto
          hintmask 01011010
          -65 -53 -52 -68 hvcurveto
          -869 vlineto
          -65 53 -52 65 66 53 53 64 vhcurveto
          702 vlineto
          67 57 40 64 65 51 -33 callsubr
          -1 hlineto
          endchar
        </CharString>
        <CharString name="eogonek">
          26 callgsubr
          206 175 344 180 hstemhm
          -73 callsubr
          198 188 -149 237 hintmask 11111110
          606 -127 rmoveto
          27 33 40 44 44 54 rrcurveto
          35 12 26 34 40 vvcurveto
          53 callsubr
          vhcurveto
          -177 hlineto
          -67 -51 51 66 hvcurveto
          89 355 vlineto
          hintmask 11111101
          67 52 51 67 hvcurveto
          280 vlineto
          181 -131 120 -10 callgsubr
          -120 -179 vhcurveto
          -491 vlineto
          -84 callsubr
          80 hlineto
          -102 -100 -87 -91 -84 -88 callgsubr
          24 914 rmoveto
          -225 -237 225 vlineto
          58 callsubr
          -69 callsubr
          endchar
        </CharString>
        <CharString name="equal">
          344 181 181 181 hstem
          104 814 vstem
          918 435 rmoveto
          -75 callsubr
          362 vmoveto
          -76 callsubr
        </CharString>
        <CharString name="eth">
          -19 180 668 40 callgsubr
          235 237 vstem
          415 1499 rmoveto
          22 -48 -36 15 -32 hhcurveto
          -50 -38 -41 -50 -41 28 -31 29 -12 hvcurveto
          45 -19 47 -24 45 -30 -182 -113 rcurveline
          -29 -17 -7 -36 17 -27 17 -29 35 -7 29 19 214 132 rcurveline
          65 -66 50 -87 14 -111 rrcurveto
          -24 -1 -18 -6 -11 hhcurveto
          -15 -9 13 12 -12 hvcurveto
          11 callsubr
          224 130 116 180 vhcurveto
          590 vlineto
          197 -90 148 -104 105 vhcurveto
          161 100 27 17 8 35 -18 29 rlinecurve
          -16 27 -35 7 -28 -17 -189 -118 rcurveline
          -62 48 -61 33 -43 21 rrcurveto
          -22 -789 rmoveto
          66 51 53 66 63 55 -42 -65 vhcurveto
          46 callgsubr
        </CharString>
        <CharString name="exclam">
          48 callgsubr
          158 522 rmoveto
          -53 5 38 -41 53 hhcurveto
          53 41 42 52 5 hvcurveto
          59 660 rlineto
          99 9 -54 98 -113 hhcurveto
          -123 -37 -99 -98 8 hvcurveto
          17 -1069 rmoveto
          -106 callsubr
          endchar
        </CharString>
        <CharString name="exclamdown">
          48 callgsubr
          355 837 rmoveto
          53 -5 -38 41 -53 hhcurveto
          -53 -41 -42 -52 -5 hvcurveto
          -59 -660 rlineto
          -99 -9 54 -98 113 hhcurveto
          123 37 99 98 -8 hvcurveto
          -17 1069 rmoveto
          72 -62 61 -73 -73 -62 -61 -72 -75 62 -60 73 73 62 60 75 vhcurveto
          endchar
        </CharString>
        <CharString name="f">
          -102 16 callgsubr
          hintmask 00000000
          -31 callgsubr
          53 hlineto
          hintmask 10100000
          50 39 39 49 51 -39 40 -50 hvcurveto
          -112 hlineto
          -163 -132 -131 -166 hvcurveto
          -175 -76 -44 callsubr
          76 -793 hlineto
          -64 52 -53 66 vhcurveto
          hintmask 01100000
          67 51 52 65 hvcurveto
          endchar
        </CharString>
        <CharString name="ff">
          748 16 callgsubr
          190 660 hintmask 10110000
          524 890 rmoveto
          614 -793 hlineto
          22 callsubr
          793 154 vlineto
          47 39 40 48 hvcurveto
          hintmask 01110000
          47 -38 41 -48 vhcurveto
          -154 173 hlineto
          20 callsubr
          hintmask 10110000
          51 -39 40 -50 vhcurveto
          -112 hlineto
          -163 -132 -131 -166 hvcurveto
          hintmask 01110000
          -175 -614 173 vlineto
          20 callsubr
          hintmask 10110000
          51 -39 40 -50 vhcurveto
          -112 hlineto
          -163 -132 -131 -166 hvcurveto
          hintmask 01110000
          -175 -76 -44 callsubr
          76 -793 hlineto
          hintmask 10110000
          22 callsubr
          endchar
        </CharString>
        <CharString name="fi">
          576 49 callsubr
          -89 268 hstemhm
          124 660 270 270 hintmask 01011000
          -31 callgsubr
          420 hlineto
          hintmask 00111000
          -51 19 50 -38 58 hhcurveto
          73 62 61 72 75 -62 60 -73 hvcurveto
          -606 hlineto
          -163 -132 -131 -166 hvcurveto
          hintmask 01011000
          -175 -76 -44 callsubr
          76 -793 hlineto
          hintmask 10011000
          22 callsubr
          545 hmoveto
          -64 53 -80 callgsubr
          869 vlineto
          68 -53 -78 callgsubr
          endchar
        </CharString>
        <CharString name="five">
          -39 callsubr
          550 180 267 181 hstem
          146 228 256 237 vstem
          146 713 rmoveto
          -68 56 -56 68 45 47 27 40 19 vhcurveto
          43 20 39 32 62 hhcurveto
          66 62 -53 -66 hvcurveto
          -312 vlineto
          -66 -52 -33 callsubr
          -241 hlineto
          -70 callsubr
          241 hlineto
          241 114 131 163 hvcurveto
          321 vlineto
          162 -107 134 -144 -85 -53 -30 -38 -38 vhcurveto
          -11 -12 -9 -14 -15 42 callsubr
          328 391 vlineto
          49 39 42 48 50 -39 41 -49 hvcurveto
          -501 hlineto
          -66 -52 -53 -67 hvcurveto
          endchar
        </CharString>
        <CharString name="fl">
          576 72 callsubr
          -1538 181 885 293 hstemhm
          124 660 266 237 hintmask 10011000
          1287 1420 rmoveto
          67 -58 51 -61 vhcurveto
          -585 hlineto
          -163 -132 -131 -166 hvcurveto
          hintmask 01111000
          -175 -76 -44 callsubr
          76 -793 hlineto
          hintmask 10011000
          22 callsubr
          793 154 vlineto
          47 39 40 48 hvcurveto
          hintmask 01111000
          47 -38 41 -48 vhcurveto
          14 callgsubr
          408 -1063 hlineto
          -84 callsubr
          69 -29 callgsubr
          hvcurveto
          -10 -40 callsubr
          endchar
        </CharString>
        <CharString name="florin">
          -102 16 callgsubr
          hintmask 00000000
          515 890 rmoveto
          154 hlineto
          47 43 40 48 5 hvcurveto
          47 5 -33 41 -48 hhcurveto
          -154 hlineto
          19 173 rlineto
          67 7 59 53 65 hhcurveto
          53 hlineto
          hintmask 10100000
          50 43 39 49 5 hvcurveto
          51 6 -35 40 -50 hhcurveto
          -112 hlineto
          -163 -146 -131 -166 -18 hvcurveto
          -19 -175 rlineto
          -76 hlineto
          -48 -45 -41 -47 -5 hvcurveto
          -48 -5 36 -40 48 hhcurveto
          76 hlineto
          -121 -1113 rlineto
          -64 -7 46 -53 66 hhcurveto
          hintmask 01100000
          67 57 52 65 7 hvcurveto
          endchar
        </CharString>
        <CharString name="foundryicon">
          735 365 88 345 86 80 83 hstemhm
          516 110 57 105 -48 117 59 114 hintmask 00000000
          533 409 rmoveto
          24 20 20 24 vhcurveto
          98 hlineto
          39 26 25 35 hvcurveto
          hintmask 11110110
          30 -20 22 -27 8 vhcurveto
          -78 24 rlineto
          -59 19 -40 52 68 vvcurveto
          90 71 58 82 vhcurveto
          28 hlineto
          -9 13 -5 15 16 vvcurveto
          72 68 47 80 vhcurveto
          143 hlineto
          32 24 -29 -33 hvcurveto
          -101 109 vlineto
          23 19 -20 -23 -23 -19 -20 -23 hvcurveto
          -109 -288 hlineto
          -32 27 -25 31 vhcurveto
          30 hlineto
          24 19 -20 -24 -25 -19 -19 -24 hvcurveto
          -59 hlineto
          -79 -64 65 79 hvcurveto
          455 -76 vlineto
          -32 -20 -21 -29 -17 4 -12 9 -8 hvcurveto
          11 -9 9 -13 -15 vvcurveto
          hintmask 11111010
          -25 -19 -19 -24 vhcurveto
          -99 hlineto
          -34 -19 -22 -27 -26 16 -13 18 -8 hvcurveto
          86 -27 rlineto
          62 -21 49 -53 -78 vvcurveto
          -90 -75 -66 -80 vhcurveto
          -125 hlineto
          hintmask 11110110
          -24 -20 19 25 hvcurveto
          -234 278 rmoveto
          -301 243 -244 301 301 244 244 301 301 -244 243 -301 -301 -243 -243 -301 vhcurveto
          endchar
        </CharString>
        <CharString name="four">
          -20 1394 hstem
          90 888 vstem
          978 364 rmoveto
          50 -40 39 -51 vhcurveto
          -60 341 hlineto
          68 -53 -78 callgsubr
          -341 -258 vlineto
          254 764 21 64 -33 68 -63 20 rlinecurve
          -63 20 -68 -35 -19 -64 -267 -893 rcurveline
          -14 -48 25 -55 52 -17 rrcurveto
          -2 7 8 -2 8 hhcurveto
          410 -176 hlineto
          -64 53 -80 callgsubr
          176 60 vlineto
          51 40 41 50 hvcurveto
          endchar
        </CharString>
        <CharString name="fraction">
          409 22 callgsubr
          333 187 vstem
          318 -43 callgsubr
          endchar
        </CharString>
        <CharString name="g">
          33 callgsubr
          -13 callsubr
          hintmask 10111110
          867 -178 rmoveto
          1124 vlineto
          68 -53 52 -67 vhcurveto
          -295 -99 callsubr
          -494 vlineto
          -162 107 -27 callgsubr
          -69 callgsubr
          -217 vlineto
          -65 -51 -92 callgsubr
          134 -83 callgsubr
          -474 945 rmoveto
          51 callgsubr
          118 -619 hlineto
          hintmask 11001110
          -7 callgsubr
          endchar
        </CharString>
        <CharString name="gbreve">
          33 callgsubr
          154 395 hstemhm
          156 237 -126 490 -128 238 -21 callgsubr
          hintmask 1011101010000000
          867 -178 rmoveto
          1124 vlineto
          68 -53 52 -67 vhcurveto
          -295 -99 callsubr
          -494 vlineto
          -162 107 -27 callgsubr
          -69 callgsubr
          -217 vlineto
          -65 -51 -92 callgsubr
          134 -83 callgsubr
          -474 945 rmoveto
          51 callgsubr
          118 -619 hlineto
          hintmask 1100101010000000
          -7 callgsubr
          hintmask 0000010100000000
          118 1121 -101 callgsubr
        </CharString>
        <CharString name="gcircumflex">
          33 callgsubr
          154 47 callgsubr
          238 -21 callgsubr
          hintmask 1011101010000000
          867 -178 rmoveto
          1124 vlineto
          68 -53 52 -67 vhcurveto
          -295 -99 callsubr
          -494 vlineto
          -162 107 -27 callgsubr
          -69 callgsubr
          -217 vlineto
          -65 -51 -92 callgsubr
          134 -83 callgsubr
          -474 945 rmoveto
          51 callgsubr
          118 -619 hlineto
          hintmask 1100101010000000
          -7 callgsubr
          hintmask 0000010100000000
          230 1260 -107 callgsubr
        </CharString>
        <CharString name="gcommaaccent">
          33 callgsubr
          -13 callsubr
          hintmask 10111110
          867 -178 rmoveto
          1124 vlineto
          68 -53 52 -67 vhcurveto
          -295 -99 callsubr
          -494 vlineto
          -162 107 -27 callgsubr
          -69 callgsubr
          -217 vlineto
          -65 -51 -92 callgsubr
          134 -83 callgsubr
          -474 945 rmoveto
          51 callgsubr
          118 -619 hlineto
          hintmask 11001110
          -7 callgsubr
          hintmask 00000000
          208 1221 rmoveto
          -26 22 -2 14 23 42 38 20 42 vvcurveto
          32 -25 28 -35 -20 -32 -11 -35 -29 vhcurveto
          -46 -54 -26 -76 -89 vvcurveto
          -86 37 -64 87 62 53 47 63 31 -12 30 -24 21 vhcurveto
          endchar
        </CharString>
        <CharString name="gdotaccent">
          33 callgsubr
          154 268 hstemhm
          -73 callsubr
          -229 685 -220 238 hintmask 1100111010000000
          867 -178 rmoveto
          1124 vlineto
          68 -53 52 -67 vhcurveto
          -295 -99 callsubr
          -494 vlineto
          -162 107 -27 callgsubr
          hintmask 1011110100000000
          11 11 10 14 15 hhcurveto
          hintmask 1011111010000000
          12 18 -7 -25 hvcurveto
          -217 vlineto
          -65 -51 -92 callgsubr
          134 -83 callgsubr
          -474 945 rmoveto
          51 callgsubr
          118 -619 hlineto
          -7 callgsubr
          -12 1074 rmoveto
          -106 callsubr
          endchar
        </CharString>
        <CharString name="germandbls">
          -39 callsubr
          1177 180 hstemhm
          53 callgsubr
          216 237 -199 236 hintmask 00000000
          hintmask 11101000
          156 117 rmoveto
          -64 53 -80 callgsubr
          1122 vlineto
          66 48 53 60 vhcurveto
          hintmask 11110000
          67 41 -53 -66 hvcurveto
          -118 vlineto
          -58 -17 -46 -36 -11 vhcurveto
          -46 -10 -30 -36 -44 vvcurveto
          hintmask 11101000
          -45 32 -38 44 -6 vhcurveto
          48 -9 43 -43 -68 vvcurveto
          -421 vlineto
          -59 -36 -46 -42 -39 callgsubr
          -48 39 -42 49 194 120 121 175 vhcurveto
          400 vlineto
          111 -51 72 -95 42 vhcurveto
          hintmask 11110000
          66 46 43 62 122 vvcurveto
          93 vlineto
          178 -118 116 -227 -218 -128 -116 -180 vhcurveto
          endchar
        </CharString>
        <CharString name="grave">
          815 1179 394 hstem
          597 394 vstem
          817 1507 -100 callsubr
        </CharString>
        <CharString name="grave.cap">
          -490 1492 394 hstem
          43 394 vstem
          263 1820 -100 callsubr
        </CharString>
        <CharString name="greater">
          227 911 hstemhm
          125 814 -812 814 hintmask 11000000
          140 272 rmoveto
          24 -42 55 -17 42 25 637 367 rcurveline
          30 17 13 31 33 vvcurveto
          30 -15 28 -28 16 vhcurveto
          -637 367 -42 25 -55 -17 -24 -42 rlinecurve
          -26 -44 14 -54 42 -24 501 -289 rcurveline
          -501 -288 rlineto
          hintmask 10100000
          -42 -24 -14 -54 26 -44 rrcurveto
          endchar
        </CharString>
        <CharString name="greaterequal">
          70 57 callsubr
          -317 814 -808 814 -483 814 -807 814 -742 823 vstem
          110 534 rmoveto
          -32 15 32 -21 34 hhcurveto
          12 12 3 6 12 hvcurveto
          643 298 rlineto
          31 14 20 32 33 vvcurveto
          36 -15 33 -36 17 vhcurveto
          -643 298 rlineto
          5 -11 -10 3 -11 hhcurveto
          -49 -45 -38 -54 -33 18 -32 32 -15 hvcurveto
          181 -84 84 -41 160 -60 112 -32 rlinecurve
          -113 -32 -159 -60 -85 -41 -180 -83 rcurveline
          -32 -15 -18 -32 -33 vvcurveto
          -13 3 -14 6 -13 vhcurveto
          -5 -287 rmoveto
          -51 39 -40 49 vhcurveto
          638 hlineto
          49 39 42 48 51 -39 40 -49 hvcurveto
          -638 hlineto
          -49 -39 -42 -48 hvcurveto
          endchar
        </CharString>
        <CharString name="guillemotleft">
          581 117 834 hstemhm
          269 54 callsubr
          hintmask 11000000
          620 137 -64 callgsubr
          hintmask 10010000
          768 -298 -64 callgsubr
          endchar
        </CharString>
        <CharString name="guillemotright">
          581 117 834 hstemhm
          290 54 callsubr
          698 435 -60 callsubr
          hintmask 11000000
          28 -23 38 5 25 23 rrcurveto
          768 298 -60 callsubr
          hintmask 10010000
          28 -23 38 5 25 23 rrcurveto
          endchar
        </CharString>
        <CharString name="guilsinglleft">
          117 834 hstem
          269 463 vstem
          620 137 -64 callgsubr
          endchar
        </CharString>
        <CharString name="guilsinglright">
          117 834 hstemhm
          290 463 vstemhm
          698 435 -60 callsubr
          hintmask 11000000
          28 -23 38 5 25 23 rrcurveto
          endchar
        </CharString>
        <CharString name="h">
          69 callsubr
          hstemhm
          53 callgsubr
          236 -43 callsubr
          hintmask 10011100
          276 -20 rmoveto
          65 53 53 64 hvcurveto
          702 vlineto
          hintmask 10101100
          65 55 42 63 66 52 -28 callsubr
          -46 -32 -36 -36 vhcurveto
          hintmask 11011100
          10 callgsubr
          395 vlineto
          67 -53 51 -24 callgsubr
          -51 -67 vhcurveto
          -1323 vlineto
          hintmask 10011100
          -65 53 -52 67 vhcurveto
          endchar
        </CharString>
        <CharString name="hbar">
          70 69 callsubr
          159 112 hstemhm
          53 callgsubr
          235 237 hintmask 10101110
          692 1225 rmoveto
          -29 callsubr
          -297 83 hlineto
          67 -53 51 -24 callgsubr
          -51 -67 vhcurveto
          -83 -112 vlineto
          -63 callgsubr
          109 -1128 hlineto
          -65 53 -52 67 65 53 53 64 vhcurveto
          702 vlineto
          65 55 42 63 66 51 -28 callsubr
          -45 -32 -36 -36 vhcurveto
          hintmask 11011110
          10 callgsubr
          200 vlineto
          endchar
        </CharString>
        <CharString name="hcircumflex">
          69 callsubr
          427 395 hstemhm
          53 callgsubr
          -128 490 -126 -43 callsubr
          hintmask 10010101
          276 -20 rmoveto
          65 53 53 64 hvcurveto
          702 vlineto
          hintmask 10100101
          65 55 42 63 66 52 -28 callsubr
          -46 -32 -36 -36 vhcurveto
          hintmask 11010101
          10 callgsubr
          395 vlineto
          67 -53 51 -24 callgsubr
          -51 -67 vhcurveto
          -1323 vlineto
          hintmask 10010101
          -65 53 -52 67 vhcurveto
          hintmask 00001010
          347 1832 -107 callgsubr
        </CharString>
        <CharString name="hungarumlaut">
          66 1179 394 hstem
          242 394 vstem
          201 1289 -77 callgsubr
          259 -218 -77 callgsubr
          endchar
        </CharString>
        <CharString name="hungarumlaut.cap">
          -272 1492 394 hstem
          26 394 vstem
          43 1602 -76 callgsubr
          244 -218 -76 callgsubr
          endchar
        </CharString>
        <CharString name="hyphen">
          525 181 hstem
          104 814 vstem
          918 616 rmoveto
          -76 callsubr
        </CharString>
        <CharString name="i">
          -274 72 callsubr
          -268 268 hstemhm
          204 270 hintmask 00000000
          219 97 rmoveto
          -64 53 -80 callgsubr
          869 vlineto
          5 callgsubr
          vhcurveto
          hintmask 10100000
          -67 -53 -52 -68 hvcurveto
          hintmask 01100000
          -15 437 rmoveto
          -106 callsubr
          endchar
        </CharString>
        <CharString name="iacute">
          35 callgsubr
          43 callgsubr
          200 394 -375 238 hintmask 10010000
          219 97 rmoveto
          -64 53 -80 callgsubr
          869 vlineto
          68 -53 -78 callgsubr
          hintmask 01100000
          -2 383 -106 callgsubr
        </CharString>
        <CharString name="ibreve">
          35 callgsubr
          154 395 hstemhm
          94 490 -365 238 hintmask 10010000
          219 97 rmoveto
          -64 53 -80 callgsubr
          869 vlineto
          68 -53 -78 callgsubr
          hintmask 01100000
          119 454 -101 callgsubr
        </CharString>
        <CharString name="icircumflex">
          35 callgsubr
          154 395 hstemhm
          93 490 -364 238 hintmask 10010000
          219 97 rmoveto
          -64 53 -80 callgsubr
          869 vlineto
          68 -53 -78 callgsubr
          hintmask 01100000
          231 593 -107 callgsubr
        </CharString>
        <CharString name="idieresis">
          35 callgsubr
          3 callgsubr
          2 665 -448 238 hintmask 10010000
          219 97 rmoveto
          -64 53 -80 callgsubr
          869 vlineto
          68 -53 -78 callgsubr
          hintmask 00000000
          -217 404 rmoveto
          -106 callsubr
          hintmask 01100000
          396 hmoveto
          -72 61 -61 73 74 61 61 72 75 -61 60 -74 -73 -61 -4 callgsubr
        </CharString>
        <CharString name="igrave">
          35 callgsubr
          43 callgsubr
          81 394 -256 238 hintmask 10010000
          219 97 rmoveto
          -64 53 -80 callgsubr
          869 vlineto
          68 -53 -78 callgsubr
          hintmask 01100000
          82 601 -100 callsubr
        </CharString>
        <CharString name="ij">
          202 -68 callgsubr
          926 -20 204 268 hstemhm
          219 237 -92 111 201 269 -254 238 -21 callgsubr
          hintmask 1011110101000000
          809 1086 rmoveto
          -65 18 callgsubr
          hintmask 1100111001000000
          -9 callgsubr
          -51 18 callsubr
          -54 52 14 callsubr
          -693 -14 callgsubr
          106 -27 callgsubr
          hintmask 1011110101000000
          -69 callgsubr
          -217 vlineto
          -65 -51 -92 callgsubr
          134 -83 callgsubr
          1147 52 callsubr
          -67 vhcurveto
          -604 317 rmoveto
          -106 callsubr
          hintmask 1011110110000000
          471 hmoveto
          -72 61 -61 73 74 61 61 72 75 -61 60 -74 -73 -61 -4 callgsubr
        </CharString>
        <CharString name="imacron">
          35 callgsubr
          183 112 hstemhm
          -6 665 -440 238 hintmask 10010000
          219 97 rmoveto
          -64 53 -80 callgsubr
          869 vlineto
          68 -53 -78 callgsubr
          hintmask 01100000
          397 417 -93 callgsubr
        </CharString>
        <CharString name="infinity">
          746 -19 180 465 161 412 180 hstem
          487 45 callsubr
          vstem
          146 543 rmoveto
          -183 142 -113 184 vhcurveto
          55 hlineto
          116 72 33 67 56 hvcurveto
          9 9 6 3 9 hhcurveto
          7 8 -6 -6 7 hvcurveto
          -67 56 73 -33 115 hhcurveto
          153 hlineto
          187 138 2 callsubr
          101 vlineto
          183 -142 113 -184 vhcurveto
          -61 hlineto
          -116 -72 -33 -67 -56 hvcurveto
          -9 -9 -6 -3 -9 hhcurveto
          -7 -8 6 6 -7 hvcurveto
          67 -56 -73 33 -115 hhcurveto
          -147 hlineto
          -187 -138 -113 -180 hvcurveto
          1037 112 rmoveto
          67 52 -38 -68 hvcurveto
          -116 vlineto
          -35 callgsubr
          vhcurveto
          -109 hlineto
          -66 -53 36 70 hvcurveto
          116 vlineto
          70 54 36 64 vhcurveto
          -691 -106 rmoveto
          68 52 38 66 vhcurveto
          99 hlineto
          66 53 -36 -70 hvcurveto
          -116 3 callsubr
          vhcurveto
          -99 hlineto
          -67 -52 38 68 hvcurveto
          endchar
        </CharString>
        <CharString name="integral">
          -102 49 callsubr
          hstemhm
          143 660 hintmask 01100000
          307 -175 rmoveto
          -67 -53 -53 -65 vhcurveto
          -53 hlineto
          -50 -39 -39 -49 -51 39 -40 50 hvcurveto
          112 hlineto
          163 132 131 166 hvcurveto
          1416 vlineto
          20 callsubr
          hintmask 10100000
          51 -39 40 -50 vhcurveto
          -112 hlineto
          -163 -132 -131 -166 hvcurveto
          endchar
        </CharString>
        <CharString name="iogonek">
          -274 -52 callgsubr
          72 1558 -268 268 hstemhm
          204 270 -187 188 hintmask 11100100
          302 -127 rmoveto
          28 34 41 46 45 55 rrcurveto
          25 22 16 31 36 vvcurveto
          869 vlineto
          68 -53 -78 callgsubr
          -869 vlineto
          -30 11 -27 18 -21 vhcurveto
          -110 -108 -99 -96 -90 -88 callgsubr
          hintmask 11011000
          -98 1530 rmoveto
          -106 callsubr
          endchar
        </CharString>
        <CharString name="itilde">
          35 callgsubr
          1 callgsubr
          31 659 -471 238 hintmask 10001000
          219 97 rmoveto
          -64 53 -80 callgsubr
          869 vlineto
          68 -53 -78 callgsubr
          hintmask 00000000
          305 476 -71 callsubr
          hintmask 01010000
          -97 callgsubr
          hintmask 00110000
          -92 callsubr
        </CharString>
        <CharString name="j">
          -268 -474 2009 -268 268 hstemhm
          -51 519 -269 269 hintmask 00000000
          220 -58 callsubr
          1144 vlineto
          68 -52 52 -66 vhcurveto
          hintmask 10100000
          -66 -52 -52 -68 hvcurveto
          hintmask 01010000
          -16 434 rmoveto
          -72 61 -61 73 74 61 61 72 75 -61 60 -74 -73 -61 -4 callgsubr
        </CharString>
        <CharString name="jcircumflex">
          -276 -474 1560 94 395 hstemhm
          -51 502 -355 490 hintmask 10100000
          215 -58 callsubr
          1144 vlineto
          68 -52 52 -66 -66 -52 -52 -68 vhcurveto
          hintmask 01010000
          238 533 -107 callgsubr
        </CharString>
        <CharString name="k">
          2 -21 472 180 hstem
          53 callgsubr
          233 238 vstem
          -54 callsubr
          endchar
        </CharString>
        <CharString name="kcommaaccent">
          2 -21 472 180 hstemhm
          53 callgsubr
          233 238 vstemhm
          -54 callsubr
          294 -1722 -103 callsubr
        </CharString>
        <CharString name="kgreenlandic">
          80 2 -21 462 180 463 -20 21 -20 hstemhm
          53 callgsubr
          233 238 hintmask 11011100
          156 61 callgsubr
          345 116 vlineto
          66 51 -53 -66 hvcurveto
          -226 61 callsubr
          53 64 vhcurveto
          229 vlineto
          122 -61 93 -109 47 vhcurveto
          170 324 32 57 -24 74 -58 31 rlinecurve
          -59 29 -73 -24 -29 -59 -179 -398 rcurveline
          -81 343 hlineto
          hintmask 11101100
          68 -53 -78 callgsubr
          endchar
        </CharString>
        <CharString name="l">
          -274 -39 callsubr
          hstem
          200 237 vstem
          437 -59 callgsubr
          -1124 vlineto
          -84 callsubr
          69 -29 callgsubr
          hvcurveto
          -10 -40 callsubr
          endchar
        </CharString>
        <CharString name="lacute">
          -274 -39 callsubr
          1345 394 hstemhm
          182 394 -376 237 hintmask 10010000
          437 1300 rmoveto
          67 -52 51 -67 -18 callgsubr
          -67 vhcurveto
          -1004 vlineto
          -84 callsubr
          69 -29 callgsubr
          hvcurveto
          -10 -40 callsubr
          hintmask 01100000
          -238 1338 -106 callgsubr
        </CharString>
        <CharString name="lcaron">
          -274 -39 callsubr
          699 499 hstemhm
          200 237 1190 201 hintmask 10100000
          437 -59 callgsubr
          -1124 vlineto
          -84 callsubr
          69 -29 callgsubr
          hvcurveto
          -10 -40 callsubr
          hintmask 01010000
          181 771 -71 callgsubr
        </CharString>
        <CharString name="lcommaaccent">
          -274 -39 callsubr
          hstemhm
          200 237 vstemhm
          437 -59 callgsubr
          -1124 vlineto
          -84 callsubr
          69 -29 callgsubr
          hvcurveto
          -10 -40 callsubr
          -177 -583 -103 callsubr
        </CharString>
        <CharString name="ldot">
          -66 -39 callsubr
          324 -21 hstemhm
          200 237 149 270 hintmask 10100000
          437 -59 callgsubr
          -1124 vlineto
          -84 callsubr
          69 -29 callgsubr
          hvcurveto
          -10 -40 callsubr
          hintmask 01010000
          149 319 rmoveto
          -106 callsubr
          endchar
        </CharString>
        <CharString name="less">
          227 911 hstem
          84 814 vstem
          885 272 rmoveto
          26 44 -14 54 -42 24 -501 288 rcurveline
          501 289 42 24 14 54 -26 44 rlinecurve
          -24 42 -55 17 -42 -25 -637 -367 rcurveline
          -28 -16 -15 -28 -30 vvcurveto
          -33 13 -31 30 -17 vhcurveto
          637 -367 42 -25 55 17 24 42 rlinecurve
          endchar
        </CharString>
        <CharString name="lessequal">
          57 callsubr
          100 823 -742 814 -807 814 vstem
          912 534 rmoveto
          6 13 3 14 13 vvcurveto
          33 -18 32 -32 15 vhcurveto
          -180 83 -85 41 -159 60 -113 32 rlinecurve
          112 32 160 60 84 41 181 84 rcurveline
          32 15 18 32 33 vvcurveto
          54 -45 38 -49 -11 -10 -3 -5 -11 vhcurveto
          -643 -298 rlineto
          -36 -17 -15 -33 -36 vvcurveto
          -33 20 -32 31 -14 vhcurveto
          643 -298 rlineto
          -6 12 12 -3 12 hhcurveto
          34 32 21 32 15 hvcurveto
          5 -287 rmoveto
          -76 callsubr
        </CharString>
        <CharString name="logicalnot">
          525 181 hstem
          737 181 vstem
          828 211 rmoveto
          48 42 39 49 hvcurveto
          317 vlineto
          -67 callsubr
          545 -226 hlineto
          -49 40 -39 51 vhcurveto
          endchar
        </CharString>
        <CharString name="lozenge">
          -19 1105 -859 911 hstem
          84 814 -798 823 vstem
          124 709 rmoveto
          -7 -16 -1 -26 8 -15 289 -556 rcurveline
          -37 19 33 -39 48 hhcurveto
          51 28 36 37 19 hvcurveto
          288 559 7 15 0 28 -7 14 rlinecurve
          -288 559 rlineto
          37 -19 -28 36 -51 hhcurveto
          -48 -33 -39 -37 -19 hvcurveto
          -100 -585 rmoveto
          202 438 194 -438 -194 -437 rlineto
          endchar
        </CharString>
        <CharString name="lslash">
          -274 -39 callsubr
          547 439 hstem
          21 633 -454 237 vstem
          437 -59 callgsubr
          -494 vlineto
          -151 -94 -28 -19 -8 -33 15 -26 rlinecurve
          18 -27 35 -8 30 19 89 56 rcurveline
          -498 vlineto
          -84 callsubr
          69 -29 callgsubr
          hvcurveto
          -10 -40 callsubr
          646 vlineto
          190 120 27 17 8 33 -16 27 rlinecurve
          -17 26 -35 8 -26 -18 -131 -82 rcurveline
          endchar
        </CharString>
        <CharString name="m">
          583 -19 callgsubr
          44 callgsubr
          238 60 callsubr
          236 hintmask 00000000
          hintmask 10111100
          293 -20 rmoveto
          66 53 53 64 hvcurveto
          702 vlineto
          67 57 40 64 65 52 -53 -66 vhcurveto
          -50 callsubr
          hintmask 11011100
          -12 -12 -10 -13 -16 hhcurveto
          -17 -6 13 12 -5 hvcurveto
          hintmask 10111100
          17 -7 -30 51 -53 callsubr
          endchar
        </CharString>
        <CharString name="macron">
          541 1209 112 hstem
          514 665 vstem
          1136 1323 -93 callgsubr
        </CharString>
        <CharString name="macron.cap">
          -100 1510 268 hstem
          75 -22 callsubr
          vstem
          711 1646 -93 callgsubr
        </CharString>
        <CharString name="minus">
          525 181 hstem
          104 814 vstem
          918 616 rmoveto
          -76 callsubr
        </CharString>
        <CharString name="mu">
          -26 callgsubr
          hstemhm
          53 callgsubr
          236 -43 callsubr
          hintmask 10111000
          1121 71 rmoveto
          48 -39 41 -49 vhcurveto
          -48 hlineto
          -63 -55 56 61 hvcurveto
          692 vlineto
          64 -52 53 -57 callsubr
          -65 vhcurveto
          -690 vlineto
          -66 -53 -53 -65 -63 -55 42 65 vhcurveto
          702 59 callsubr
          -57 callsubr
          -65 vhcurveto
          -1291 vlineto
          -64 53 -80 callgsubr
          hintmask 01111000
          366 vlineto
          22 18 7 12 15 10 -14 -11 11 vhcurveto
          hintmask 10111000
          -36 34 42 -32 70 hhcurveto
          77 53 38 65 52 hvcurveto
          8 6 10 6 10 hhcurveto
          12 11 -9 -12 8 hvcurveto
          -57 40 59 -39 89 hhcurveto
          49 39 41 50 hvcurveto
          endchar
        </CharString>
        <CharString name="multiply">
          345 712 hstem
          155 713 vstem
          183 1031 rmoveto
          -37 -36 0 -56 34 -35 203 -203 rcurveline
          -203 -203 -34 -35 0 -56 37 -36 rlinecurve
          34 -34 57 -2 34 35 203 203 rcurveline
          204 -203 34 -35 57 2 34 34 rlinecurve
          37 36 0 56 -34 35 -204 203 rcurveline
          204 203 34 35 0 56 -37 36 rlinecurve
          -34 34 -57 2 -34 -35 -204 -203 rcurveline
          -203 203 -34 35 -57 -2 -34 -34 rlinecurve
          endchar
        </CharString>
        <CharString name="n">
          -66 callgsubr
          endchar
        </CharString>
        <CharString name="nacute">
          1 -21 926 87 -87 9 callsubr
          -21 394 -136 11 callgsubr
          -84 callgsubr
          hintmask 11001010
          -31 callsubr
          hintmask 10101010
          16 -9 -28 52 -53 callsubr
          hintmask 00010100
          115 1369 -106 callgsubr
        </CharString>
        <CharString name="nbspace">
          -550 endchar
        </CharString>
        <CharString name="ncaron">
          1 -21 926 87 -87 37 callsubr
          -126 11 callgsubr
          -84 callgsubr
          hintmask 11001010
          -31 callsubr
          hintmask 10101010
          16 -9 -28 52 -53 callsubr
          hintmask 00010100
          125 1336 -107 callsubr
        </CharString>
        <CharString name="ncommaaccent">
          -66 callgsubr
          hintmask 00000000
          166 -265 -103 callsubr
        </CharString>
        <CharString name="nine">
          0 180 279 180 560 56 callsubr
          490 hmoveto
          255 121 222 230 hvcurveto
          631 -67 callgsubr
          -128 -116 -178 vhcurveto
          -330 vlineto
          -162 107 -27 callgsubr
          -69 callgsubr
          -78 38 callsubr
          -63 1080 rmoveto
          -7 callsubr
          -334 vlineto
          -7 callgsubr
          endchar
        </CharString>
        <CharString name="notequal">
          15 callgsubr
          -247 hlineto
          58 181 rlineto
          189 hlineto
          6 callsubr
          -132 hlineto
          81 255 21 48 -22 52 -46 19 rlinecurve
          -48 21 -52 -21 -21 -48 -103 -326 rcurveline
          -316 hlineto
          -87 callsubr
          258 hlineto
          -57 -181 rlineto
          -201 hlineto
          -87 callsubr
          143 hlineto
          -92 -292 -19 -45 22 -53 47 -20 rlinecurve
          47 -21 51 22 20 46 115 363 rcurveline
          304 -48 callsubr
        </CharString>
        <CharString name="ntilde">
          -19 callgsubr
          1 callgsubr
          -73 callsubr
          -190 659 -232 -43 callsubr
          hintmask 10100101
          -84 callgsubr
          hintmask 11000101
          -31 callsubr
          hintmask 10100101
          16 -9 -28 52 -53 callsubr
          hintmask 00000000
          422 1462 -71 callsubr
          hintmask 00010010
          -97 callgsubr
          hintmask 00001010
          -92 callsubr
        </CharString>
        <CharString name="numbersign">
          2 -21 448 181 169 181 419 -20 hstemhm
          351 71 -25 71 hintmask 11111000
          504 81 rmoveto
          -5 -47 35 -46 50 -7 68 callsubr
          131 34 callgsubr
          -109 hlineto
          20 169 rlineto
          135 34 callgsubr
          -114 20 callgsubr
          hintmask 11110100
          -139 20 callgsubr
          -140 hlineto
          -70 callsubr
          119 hlineto
          -20 -169 rlineto
          -145 hlineto
          -70 callsubr
          124 hlineto
          -41 -348 -5 -47 35 -46 50 -7 rlinecurve
          68 callsubr
          140 hlineto
          -98 350 rmoveto
          139 hlineto
          -20 -169 rlineto
          -139 hlineto
          endchar
        </CharString>
        <CharString name="o">
          -20 181 745 40 callgsubr
          60 callsubr
          vstem
          156 276 rmoveto
          -183 132 -113 224 227 128 113 180 vhcurveto
          517 -67 callgsubr
          -129 -116 -178 vhcurveto
          474 -525 rmoveto
          -35 callgsubr
          64 callsubr
          520 vlineto
          58 callsubr
          -69 callsubr
          endchar
        </CharString>
        <CharString name="oacute">
          -20 181 745 9 callsubr
          -20 394 -137 237 hintmask 11010100
          156 276 rmoveto
          -183 132 -113 224 227 128 113 180 vhcurveto
          517 -67 callgsubr
          -129 -116 -178 vhcurveto
          474 -525 rmoveto
          -35 callgsubr
          64 callsubr
          520 vlineto
          58 callsubr
          -69 callsubr
          hintmask 00101000
          -240 562 -106 callgsubr
        </CharString>
        <CharString name="obreve">
          -20 181 745 -61 callsubr
          -126 490 -127 237 hintmask 11010100
          156 276 rmoveto
          -183 132 -113 224 227 128 113 180 vhcurveto
          517 -67 callgsubr
          -129 -116 -178 vhcurveto
          474 -525 rmoveto
          -35 callgsubr
          64 callsubr
          520 vlineto
          58 callsubr
          -69 callsubr
          hintmask 00101000
          -119 633 -101 callgsubr
        </CharString>
        <CharString name="ocircumflex">
          -20 181 745 37 callsubr
          -126 237 hintmask 11010100
          156 276 rmoveto
          -183 132 -113 224 227 128 113 180 vhcurveto
          517 -67 callgsubr
          -129 -116 -178 vhcurveto
          474 -525 rmoveto
          -35 callgsubr
          64 callsubr
          520 vlineto
          58 callsubr
          -69 callsubr
          hintmask 00101000
          -7 772 -107 callgsubr
        </CharString>
        <CharString name="odieresis">
          62 callsubr
          3 callgsubr
          -73 callsubr
          -218 665 -210 237 hintmask 11010100
          156 276 rmoveto
          -183 132 -113 224 227 128 113 180 vhcurveto
          517 -67 callgsubr
          -129 -116 -178 vhcurveto
          474 -525 rmoveto
          -35 callgsubr
          64 callsubr
          520 vlineto
          58 callsubr
          -69 callsubr
          hintmask 00000000
          -455 583 rmoveto
          -106 callsubr
          hintmask 00101000
          396 hmoveto
          -72 61 -61 73 74 61 61 72 75 -61 60 -74 -73 -61 -4 callgsubr
        </CharString>
        <CharString name="oe">
          544 10 callsubr
          hstem
          53 callgsubr
          236 237 236 237 vstem
          1252 67 callsubr
          -66 -52 48 64 hvcurveto
          94 354 vlineto
          67 52 51 67 hvcurveto
          285 vlineto
          183 -142 113 -184 -116 -72 -33 -67 -56 vhcurveto
          25 callsubr
          -187 -138 -113 -180 hvcurveto
          -516 vlineto
          -183 143 -113 184 116 72 33 67 56 vhcurveto
          25 callgsubr
          146 24 callsubr
          hvcurveto
          -622 177 66 callsubr
          520 vlineto
          -7 callsubr
          473 hmoveto
          -225 -236 230 vlineto
          63 -62 callgsubr
          -69 callsubr
          endchar
        </CharString>
        <CharString name="ogonek">
          275 -52 callgsubr
          hstem
          577 188 vstem
          592 -127 rmoveto
          34 40 51 58 56 72 rrcurveto
          -171 hlineto
          -119 -118 -114 -104 -96 -62 callsubr
        </CharString>
        <CharString name="ograve">
          -20 181 745 9 callsubr
          -139 394 -18 237 hintmask 11010100
          156 276 rmoveto
          -183 132 -113 224 227 128 113 180 vhcurveto
          517 -67 callgsubr
          -129 -116 -178 vhcurveto
          474 -525 rmoveto
          -35 callgsubr
          64 callsubr
          520 vlineto
          58 callsubr
          -69 callsubr
          hintmask 00101000
          -156 780 -100 callsubr
        </CharString>
        <CharString name="ohungarumlaut">
          -20 181 745 9 callsubr
          -70 394 -87 237 hintmask 11010100
          156 276 rmoveto
          -183 132 -113 224 227 128 113 180 vhcurveto
          517 -67 callgsubr
          -129 -116 -178 vhcurveto
          474 -525 rmoveto
          -35 callgsubr
          64 callsubr
          520 vlineto
          58 callsubr
          -69 callsubr
          hintmask 00101000
          -348 562 -77 callgsubr
          259 -218 -77 callgsubr
          endchar
        </CharString>
        <CharString name="omacron">
          62 callsubr
          183 112 hstemhm
          -73 callsubr
          -226 665 -202 237 hintmask 11010100
          156 276 rmoveto
          -183 132 -113 224 227 128 113 180 vhcurveto
          517 -67 callgsubr
          -129 -116 -178 vhcurveto
          474 -525 rmoveto
          -35 callgsubr
          64 callsubr
          520 vlineto
          58 callsubr
          -69 callsubr
          hintmask 00101000
          159 596 -93 callgsubr
        </CharString>
        <CharString name="one">
          -274 -20 1379 hstem
          6 451 vstem
          6 1268 rmoveto
          63 callsubr
          125 -1081 hlineto
          -64 53 -80 callgsubr
          1172 vlineto
          49 -39 41 -50 vhcurveto
          -274 hlineto
          -39 callgsubr
          hvcurveto
          endchar
        </CharString>
        <CharString name="onehalf">
          735 0 141 411 141 hstem
          1393 187 vstem
          188 1288 -44 callgsubr
          928 -595 -50 callgsubr
          -919 -641 -79 callgsubr
          endchar
        </CharString>
        <CharString name="onequarter">
          735 -74 1491 hstem
          188 1413 vstem
          431 52 -68 callsubr
          -1413 1105 -44 callgsubr
          endchar
        </CharString>
        <CharString name="onesuperior">
          -107 646 713 hstem
          212 300 vstem
          212 1288 -44 callgsubr
          endchar
        </CharString>
        <CharString name="ordfeminine">
          -107 420 112 187 71 233 113 111 113 hstem
          188 149 150 149 vstem
          559 420 rmoveto
          26 callsubr
          -292 1 rlineto
          -63 callgsubr
          -26 883 rmoveto
          -31 26 -25 32 vhcurveto
          111 hlineto
          42 33 -33 -42 hvcurveto
          -36 -112 vlineto
          -103 -84 -83 -103 hvcurveto
          -87 vlineto
          -102 76 -85 90 48 28 20 23 23 vhcurveto
          7 7 5 9 11 hhcurveto
          11 4 -9 -7 3 hvcurveto
          -9 5 17 -34 45 hhcurveto
          42 33 34 40 hvcurveto
          424 vlineto
          103 -84 83 -102 vhcurveto
          -149 hlineto
          -32 -26 -25 -32 hvcurveto
          94 -355 rmoveto
          42 33 33 42 vhcurveto
          75 -169 hlineto
          -40 -34 -24 -41 -42 -33 33 41 vhcurveto
          endchar
        </CharString>
        <CharString name="ordmasculine">
          -107 420 112 143 115 470 113 hstemhm
          189 150 -122 407 -135 149 hintmask 10001000
          568 420 rmoveto
          -29 callsubr
          -292 hlineto
          -63 callgsubr
          hintmask 01110100
          -89 442 rmoveto
          -115 84 -72 141 143 81 72 113 vhcurveto
          327 vlineto
          113 -83 73 -141 -143 -82 -73 -112 vhcurveto
          300 -331 rmoveto
          -43 -33 -24 -42 -42 -33 24 43 vhcurveto
          328 vlineto
          41 33 34 42 42 33 -34 -41 vhcurveto
          endchar
        </CharString>
        <CharString name="oslash">
          -75 1207 -1152 58 callgsubr
          hstemhm
          87 850 -781 237 60 callsubr
          hintmask 10001100
          156 276 rmoveto
          -49 9 -44 18 -38 vhcurveto
          -85 -126 -19 -28 6 -35 25 -15 rlinecurve
          28 -19 35 7 19 31 64 95 rcurveline
          hintmask 01110000
          -48 61 86 -27 109 hhcurveto
          hintmask 10001100
          227 128 2 callsubr
          517 vlineto
          46 -9 42 -17 37 vhcurveto
          86 127 18 26 -6 34 -26 17 rlinecurve
          -26 17 -36 -6 -17 -27 -64 -95 rcurveline
          hintmask 01110000
          50 -61 -87 28 -110 hhcurveto
          hintmask 10001100
          -227 -129 -116 -178 hvcurveto
          237 -5 rmoveto
          hintmask 01110000
          58 callsubr
          vhcurveto
          hintmask 10001100
          64 51 -51 -63 3 hvcurveto
          -237 -367 rlineto
          237 -158 rmoveto
          hintmask 01110000
          -35 callgsubr
          vhcurveto
          hintmask 10001100
          -65 -51 36 64 -3 hvcurveto
          237 366 rlineto
          endchar
        </CharString>
        <CharString name="otilde">
          62 callsubr
          1 callgsubr
          -73 callsubr
          -189 659 -233 237 hintmask 11001010
          156 276 rmoveto
          -183 132 -113 224 227 128 113 180 vhcurveto
          517 -67 callgsubr
          -129 -116 -178 vhcurveto
          474 -525 rmoveto
          -35 callgsubr
          64 callsubr
          520 vlineto
          58 callsubr
          -69 callsubr
          hintmask 00000000
          67 655 -71 callsubr
          hintmask 00100100
          -97 callgsubr
          hintmask 00010100
          -92 callsubr
        </CharString>
        <CharString name="p">
          -453 -21 474 181 725 87 -87 180 -13 callsubr
          hintmask 11011100
          156 -356 rmoveto
          -66 52 -52 66 67 52 52 66 vhcurveto
          356 177 vlineto
          163 134 -83 callgsubr
          494 vlineto
          162 -120 134 -143 -77 -45 -32 -36 -35 vhcurveto
          hintmask 11101100
          -11 -13 -9 -14 -16 hhcurveto
          -16 -8 13 12 -4 hvcurveto
          hintmask 11011100
          16 -7 -28 52 -72 hhcurveto
          -66 -52 -52 -68 hvcurveto
          13 callgsubr
          endchar
        </CharString>
        <CharString name="paragraph">
          323 1178 181 hstem
          568 181 229 181 vstem
          176 423 rmoveto
          -162 68 -134 124 75 23 32 36 36 vhcurveto
          -69 callgsubr
          -363 vlineto
          -20 callgsubr
          1353 229 -1353 vlineto
          -20 callgsubr
          1353 13 vlineto
          51 40 40 50 49 -40 41 -51 hvcurveto
          -714 1 rlineto
          -163 -119 -133 -163 hvcurveto
          endchar
        </CharString>
        <CharString name="parenleft">
          -292 1851 hstem
          292 437 vstem
          530 892 rmoveto
          285 88 130 80 86 vhcurveto
          80 86 -87 117 -102 -47 rrcurveto
          -100 -46 -197 -202 -414 vvcurveto
          -507 vlineto
          -414 197 -202 100 -46 vhcurveto
          102 -47 87 118 -80 85 rrcurveto
          -80 86 -88 130 285 vvcurveto
          endchar
        </CharString>
        <CharString name="parenright">
          -292 1851 hstemhm
          293 437 vstemhm
          492 375 rmoveto
          -285 -88 -130 -80 -86 vhcurveto
          -80 -85 87 -118 102 47 rrcurveto
          100 46 197 202 414 vvcurveto
          507 vlineto
          414 -197 202 -100 46 vhcurveto
          -102 47 -87 -117 80 -86 rrcurveto
          hintmask 11000000
          80 -86 88 -130 -285 vvcurveto
          endchar
        </CharString>
        <CharString name="partialdiff">
          -19 180 579 180 -91 180 170 180 hstemhm
          -73 callsubr
          235 237 -236 237 hintmask 11011010
          172 1400 rmoveto
          -45 33 -41 49 vhcurveto
          54 32 28 60 hhcurveto
          hintmask 11011100
          113 115 -90 -304 -25 -18 -7 -12 -15 -9 13 12 -12 hvcurveto
          hintmask 10111010
          11 callsubr
          vhcurveto
          hintmask 11011100
          224 130 116 180 hvcurveto
          645 vlineto
          480 -268 127 -183 -74 -168 -35 -94 vhcurveto
          221 -690 rmoveto
          hintmask 10111010
          66 51 -30 callsubr
          hintmask 11011100
          63 55 -42 -65 hvcurveto
          46 callgsubr
        </CharString>
        <CharString name="percent">
          746 5 callsubr
          hintmask 00000000
          hintmask 11011111
          480 -43 callgsubr
          -888 -481 rmoveto
          hintmask 10111111
          -37 callsubr
          -78 callsubr
          468 -928 32 callgsubr
          hintmask 11011111
          -78 callsubr
          endchar
        </CharString>
        <CharString name="period">
          -439 1 -21 hstem
          122 270 vstem
          122 113 rmoveto
          -106 callsubr
          endchar
        </CharString>
        <CharString name="periodcentered">
          -439 505 -21 hstem
          121 270 vstem
          121 617 rmoveto
          -106 callsubr
          endchar
        </CharString>
        <CharString name="perthousand">
          1433 5 callsubr
          hintmask 10111111
          480 -43 callgsubr
          -888 -481 32 callgsubr
          -78 callsubr
          468 -928 32 callgsubr
          hintmask 11011111
          -78 callsubr
          315 -263 32 callgsubr
          -78 callsubr
          endchar
        </CharString>
        <CharString name="pi">
          -20 1106 183 112 hstem
          -6 665 -440 238 -237 238 vstem
          156 98 rmoveto
          7 callgsubr
          805 238 -607 vlineto
          -84 callsubr
          59 -29 callgsubr
          -66 -52 51 66 hvcurveto
          605 121 vlineto
          6 callsubr
          -924 hlineto
          -87 callsubr
          92 hlineto
          endchar
        </CharString>
        <CharString name="plus">
          525 95 hstem
          420 96 vstem
          511 165 rmoveto
          48 42 39 49 hvcurveto
          272 239 vlineto
          6 callsubr
          -239 263 hlineto
          49 -40 39 -51 -48 -42 -39 -49 vhcurveto
          -263 -238 vlineto
          -87 callsubr
          238 -272 hlineto
          -49 40 -39 51 vhcurveto
          endchar
        </CharString>
        <CharString name="plusminus">
          155 181 323 61 150 181 hstem
          420 96 vstem
          511 565 rmoveto
          48 42 39 49 hvcurveto
          217 229 vlineto
          6 callsubr
          -229 208 hlineto
          49 -40 39 -51 -48 -42 -39 -49 vhcurveto
          -208 -228 vlineto
          -87 callsubr
          228 -217 hlineto
          -49 40 -39 51 vhcurveto
          407 -319 rmoveto
          -76 callsubr
        </CharString>
        <CharString name="product">
          181 252 837 268 hstemhm
          204 270 -198 159 236 239 445 237 hintmask 11101100
          628 -154 rmoveto
          59 callgsubr
          65 51 52 65 vhcurveto
          1215 vlineto
          65 48 53 62 50 -19 callsubr
          42 -50 vhcurveto
          -921 hlineto
          -87 callsubr
          166 -38 callsubr
          -79 callsubr
          -1110 vlineto
          hintmask 11011100
          -64 52 -53 67 65 52 52 65 vhcurveto
          1215 vlineto
          63 46 55 59 vhcurveto
          192 -38 callsubr
          -79 callsubr
          endchar
        </CharString>
        <CharString name="q">
          -453 -21 454 180 -159 -21 93 87 726 180 -13 callsubr
          hintmask 10111110
          747 -474 rmoveto
          67 53 52 66 hvcurveto
          1302 vlineto
          68 -53 52 -67 vhcurveto
          -295 -99 callsubr
          -494 vlineto
          -162 107 -27 callgsubr
          -69 callgsubr
          -397 vlineto
          -66 53 -52 65 vhcurveto
          -354 1241 rmoveto
          51 callgsubr
          118 -619 hlineto
          hintmask 11001110
          -7 callgsubr
          endchar
        </CharString>
        <CharString name="question">
          74 2 -21 1197 180 hstem
          287 226 113 236 vstem
          287 559 rmoveto
          -61 50 -50 64 62 50 49 62 vhcurveto
          27 vlineto
          57 49 54 48 27 vhcurveto
          46 26 rlineto
          111 62 95 80 136 vvcurveto
          34 vlineto
          180 -129 23 callsubr
          -258 hlineto
          -49 -41 -41 -49 -48 41 -42 49 hvcurveto
          256 hlineto
          66 53 -53 -66 hvcurveto
          -22 vlineto
          -52 -32 -28 -30 -16 vhcurveto
          -62 -33 rlineto
          -118 -64 -97 -94 -151 vvcurveto
          -23 -485 rmoveto
          -106 callsubr
          endchar
        </CharString>
        <CharString name="questiondown">
          74 0 180 929 268 hstem
          128 236 113 226 vstem
          703 799 rmoveto
          61 -50 50 -64 -62 -50 -49 -62 vhcurveto
          -27 vlineto
          -57 -49 -54 -48 -27 vhcurveto
          -46 -26 rlineto
          -111 -62 -95 -80 -136 vvcurveto
          -34 vlineto
          -180 129 -116 224 vhcurveto
          258 hlineto
          49 41 41 49 48 -41 42 -49 hvcurveto
          -256 hlineto
          -66 -53 53 66 hvcurveto
          22 vlineto
          52 32 28 30 16 vhcurveto
          62 33 rlineto
          118 64 97 94 151 vvcurveto
          23 485 rmoveto
          72 -62 61 -73 -73 -62 -61 -72 -75 62 -60 73 73 62 60 75 vhcurveto
          endchar
        </CharString>
        <CharString name="quotedbl">
          74 798 561 hstemhm
          173 270 139 270 hintmask 11000000
          226 877 -47 callgsubr
          hintmask 10100000
          456 -301 -47 callgsubr
          endchar
        </CharString>
        <CharString name="quotedblbase">
          -250 499 hstemhm
          234 33 callsubr
          633 17 -57 callgsubr
        </CharString>
        <CharString name="quotedblleft">
          860 499 hstemhm
          149 33 callsubr
          390 1092 rmoveto
          -53 callgsubr
          439 hmoveto
          -53 callgsubr
          endchar
        </CharString>
        <CharString name="quotedblright">
          860 499 hstemhm
          234 33 callsubr
          633 1127 -57 callgsubr
        </CharString>
        <CharString name="quoteleft">
          -439 1379 -20 hstemhm
          113 201 hintmask 00000000
          hintmask 11000000
          354 1112 rmoveto
          -53 callgsubr
          endchar
        </CharString>
        <CharString name="quoteright">
          -439 880 46 callsubr
          1147 -18 callsubr
          endchar
        </CharString>
        <CharString name="quotesinglbase">
          -439 -251 46 callsubr
          16 -18 callsubr
          endchar
        </CharString>
        <CharString name="quotesingle">
          -439 798 561 hstem
          122 270 vstem
          175 877 -47 callgsubr
          endchar
        </CharString>
        <CharString name="r">
          -100 41 callgsubr
          hstem
          166 237 vstem
          -85 callgsubr
          endchar
        </CharString>
        <CharString name="racute">
          -105 41 callgsubr
          28 callgsubr
          166 237 -82 394 hintmask 11101000
          -85 callgsubr
          hintmask 00010100
          -286 263 -106 callgsubr
        </CharString>
        <CharString name="radical">
          55 callgsubr
          -53 18 47 -48 61 hhcurveto
          64 45 44 54 15 hvcurveto
          443 1651 rlineto
          64 17 -46 77 -75 hhcurveto
          -50 -53 -32 -52 -13 hvcurveto
          -88 -361 -25 -101 -186 -827 -46 -226 rlinecurve
          -44 226 -59 182 -28 99 -44 157 rcurveline
          52 -15 -52 33 -50 hhcurveto
          -135 hlineto
          -87 callsubr
          45 hlineto
          endchar
        </CharString>
        <CharString name="rcaron">
          -100 41 callgsubr
          174 395 hstemhm
          166 237 -188 490 hintmask 11101000
          -85 callgsubr
          hintmask 00010100
          -276 230 -107 callsubr
        </CharString>
        <CharString name="rcommaaccent">
          -100 41 callgsubr
          hstemhm
          166 237 vstemhm
          -85 callgsubr
          -410 -1371 -103 callsubr
        </CharString>
        <CharString name="registered">
          746 -19 99 512 123 207 123 214 99 hstem
          288 125 209 163 159 163 178 124 vstem
          622 381 rmoveto
          -45 36 -35 46 44 37 35 45 vhcurveto
          211 79 vlineto
          44 36 -35 -46 hvcurveto
          -130 vlineto
          -45 36 -35 46 44 37 35 45 vhcurveto
          122 vlineto
          76 -37 49 -65 26 vhcurveto
          61 33 41 45 94 vvcurveto
          17 vlineto
          123 -89 79 -153 vhcurveto
          -161 hlineto
          -46 -36 -37 -44 hvcurveto
          163 -42 rmoveto
          79 hlineto
          45 36 -37 -44 hvcurveto
          -45 vlineto
          -46 -36 -35 -45 vhcurveto
          -79 hlineto
          624 260 -51 callgsubr
          endchar
        </CharString>
        <CharString name="ring">
          104 1178 31 callgsubr
          hstem
          295 31 callsubr
          vstem
          516 1178 -88 callsubr
        </CharString>
        <CharString name="ring.cap">
          -490 1448 31 callgsubr
          hstem
          11 31 callsubr
          vstem
          232 1448 -88 callsubr
        </CharString>
        <CharString name="s">
          -6 callgsubr
          hstem
          162 225 256 238 vstem
          -30 callgsubr
          -98 callsubr
          endchar
        </CharString>
        <CharString name="sacute">
          -6 callgsubr
          28 callgsubr
          162 225 -14 394 -124 238 hintmask 11010100
          -30 callgsubr
          -98 callsubr
          hintmask 00101000
          194 1259 -106 callgsubr
        </CharString>
        <CharString name="scaron">
          36 callgsubr
          -120 490 -114 238 hintmask 11010100
          -30 callgsubr
          -98 callsubr
          hintmask 00101000
          204 1226 -107 callsubr
        </CharString>
        <CharString name="scedilla">
          26 callgsubr
          705 180 hstemhm
          162 225 170 188 -102 238 hintmask 11111100
          490 -204 rmoveto
          -74 callsubr
          40 93 rlineto
          hintmask 11111010
          153 13 137 131 177 vvcurveto
          159 -99 109 -128 42 vhcurveto
          -196 57 rlineto
          -36 16 -35 26 53 vvcurveto
          56 41 46 67 vhcurveto
          225 hlineto
          50 38 39 50 50 -38 41 -50 hvcurveto
          -244 hlineto
          -169 -145 -120 -184 -139 82 -107 122 -38 hvcurveto
          180 -50 rlineto
          54 -17 43 -44 -62 vvcurveto
          -73 -54 -51 -81 vhcurveto
          -221 50 callsubr
          -50 42 -40 49 hvcurveto
          170 hlineto
          -40 -91 -23 callgsubr
        </CharString>
        <CharString name="scircumflex">
          36 callgsubr
          -121 490 -113 238 hintmask 11010100
          -30 callgsubr
          -98 callsubr
          hintmask 00101000
          427 1469 -107 callgsubr
        </CharString>
        <CharString name="scommaaccent">
          -6 callgsubr
          hstemhm
          162 225 256 238 vstemhm
          -30 callgsubr
          -98 callsubr
          243 -375 -103 callsubr
        </CharString>
        <CharString name="section">
          -230 180 1229 180 hstemhm
          151 216 -195 225 229 225 -195 215 hintmask 00000000
          hintmask 11100100
          379 204 rmoveto
          hintmask 11101000
          176 -57 rlineto
          37 -12 34 -30 -53 vvcurveto
          -56 -41 -46 -67 vhcurveto
          -205 hlineto
          -50 -38 -39 -50 -50 38 -41 50 hvcurveto
          224 hlineto
          169 145 120 184 108 -50 89 -79 52 hvcurveto
          hintmask 11010100
          88 59 61 97 125 vvcurveto
          169 -99 110 -128 42 vhcurveto
          -176 57 rlineto
          -37 12 -34 30 53 vvcurveto
          56 41 46 67 vhcurveto
          205 hlineto
          50 38 39 50 50 -38 41 -50 hvcurveto
          -224 hlineto
          -169 -145 -120 -184 -108 49 -89 80 -52 hvcurveto
          hintmask 11100100
          -91 -61 -59 -104 -116 vvcurveto
          -148 86 -127 142 -46 vhcurveto
          -12 359 rmoveto
          87 65 70 79 80 65 -70 -87 -87 -65 -69 -80 -79 -65 69 87 vhcurveto
          endchar
        </CharString>
        <CharString name="semicolon">
          -439 838 -21 hstemhm
          121 270 vstemhm
          121 950 rmoveto
          -106 callsubr
          45 -934 -18 callsubr
          endchar
        </CharString>
        <CharString name="seven">
          -97 -19 1378 hstem
          59 749 vstem
          794 1236 rmoveto
          59 17 -40 64 -74 hhcurveto
          -497 hlineto
          -51 -40 -41 -50 -50 40 -39 51 hvcurveto
          357 hlineto
          -335 -1041 -21 -64 33 -68 63 -20 rlinecurve
          63 -20 68 35 19 64 rrcurveto
          endchar
        </CharString>
        <CharString name="six">
          -19 180 579 180 259 56 callsubr
          532 1359 rmoveto
          -255 -121 -207 -215 hvcurveto
          -660 vlineto
          -180 131 -116 224 227 128 116 178 vhcurveto
          349 vlineto
          162 -107 134 -144 -75 -45 -32 -36 -36 vhcurveto
          10 callgsubr
          88 vlineto
          158 89 74 84 vhcurveto
          78 hlineto
          48 callsubr
          hvcurveto
          -15 -1079 rmoveto
          -66 -51 -53 -67 -66 -52 -30 callsubr
          353 vlineto
          65 55 42 63 -69 callsubr
          endchar
        </CharString>
        <CharString name="slash">
          -359 1897 hstem
          190 642 vstem
          193 -245 rmoveto
          -12 -47 28 -50 49 -14 49 -13 49 28 12 49 461 1715 rcurveline
          13 50 -28 49 -48 13 -50 13 -50 -27 -13 -51 rrcurveto
          endchar
        </CharString>
        <CharString name="space">
          -439 endchar
        </CharString>
        <CharString name="sterling">
          0 176 -124 129 427 112 459 180 hstemhm
          309 237 hintmask 10111000
          837 hmoveto
          47 39 40 48 47 -39 41 -47 hvcurveto
          hintmask 01111000
          -356 hlineto
          -22 -6 18 12 15 14 10 11 -11 callsubr
          210 197 vlineto
          -29 callsubr
          -196 340 hlineto
          58 callsubr
          vhcurveto
          55 hlineto
          51 41 callsubr
          -51 hvcurveto
          -115 -99 callsubr
          -343 -112 vlineto
          -63 callgsubr
          109 -310 hlineto
          hintmask 10111000
          -18 callgsubr
          -66 -50 -40 -22 callgsubr
          40 -40 50 vhcurveto
          endchar
        </CharString>
        <CharString name="summation">
          236 -257 181 -88 181 705 180 hstemhm
          155 693 357 693 hintmask 01111000
          580 551 rmoveto
          -429 -632 rlineto
          -12 -19 -5 -22 -20 vvcurveto
          hintmask 10111000
          -56 46 -59 75 vhcurveto
          740 hlineto
          49 42 40 50 49 -42 42 -49 hvcurveto
          -590 hlineto
          392 551 rlineto
          17 24 8 24 25 vvcurveto
          29 -11 29 -19 27 vhcurveto
          -387 545 rlineto
          590 hlineto
          49 42 42 49 50 -42 40 -49 hvcurveto
          -740 hlineto
          -75 -46 -59 -56 -20 4 -22 13 -19 hvcurveto
          endchar
        </CharString>
        <CharString name="t">
          -103 -39 callsubr
          709 176 hstem
          256 236 vstem
          -12 callgsubr
          -85 callsubr
          endchar
        </CharString>
        <CharString name="tbar">
          -103 -39 callsubr
          709 176 hstem
          256 236 vstem
          -12 callgsubr
          -65 -53 51 66 hvcurveto
          290 189 70 callgsubr
          -188 190 181 hlineto
          48 38 40 48 47 -38 41 -48 hvcurveto
          -181 208 hlineto
          67 -51 53 -67 -66 -52 -53 -67 vhcurveto
          -208 -118 -44 callsubr
          118 -190 -128 hlineto
          -63 callgsubr
          125 -292 hlineto
          -163 132 -133 163 vhcurveto
          120 hlineto
          50 38 40 50 hvcurveto
          endchar
        </CharString>
        <CharString name="tcaron">
          242 -39 callsubr
          699 499 -489 176 hstemhm
          256 236 1419 201 hintmask 10110000
          -12 callgsubr
          -85 callsubr
          hintmask 01001000
          143 979 -71 callgsubr
        </CharString>
        <CharString name="tcommaaccent">
          -103 -39 callsubr
          709 176 hstemhm
          256 236 vstemhm
          -12 callgsubr
          -85 callsubr
          -381 -375 -103 callsubr
        </CharString>
        <CharString name="thorn">
          0 180 725 88 -88 182 0 -20 hstemhm
          53 callgsubr
          236 -43 callsubr
          hintmask 11011100
          156 -321 rmoveto
          -64 53 -80 callgsubr
          321 178 vlineto
          -13 callgsubr
          -78 -44 -32 -36 -35 vhcurveto
          -13 -12 -12 -13 -12 -5 callgsubr
          53 47 65 -34 callsubr
          -64 vhcurveto
          endchar
        </CharString>
        <CharString name="three">
          -39 callsubr
          528 160 309 181 hstem
          609 237 vstem
          165 90 rmoveto
          63 callsubr
          238 hlineto
          241 114 131 163 hvcurveto
          279 vlineto
          177 -91 119 -120 -28 -21 -6 -9 -17 vhcurveto
          259 346 rlineto
          13 17 5 22 19 vvcurveto
          59 -45 42 -60 vhcurveto
          -528 hlineto
          -70 callsubr
          348 hlineto
          -265 -378 rlineto
          -12 -17 -5 -19 -18 vvcurveto
          -46 40 -45 55 vhcurveto
          59 9 54 65 hhcurveto
          50 52 -49 -90 hvcurveto
          -270 vlineto
          -66 -52 -33 callsubr
          -238 hlineto
          -39 callgsubr
          hvcurveto
          endchar
        </CharString>
        <CharString name="threequarters">
          735 22 callgsubr
          446 187 vstem
          105 -65 callsubr
          326 -684 -68 callsubr
          endchar
        </CharString>
        <CharString name="threesuperior">
          -107 22 callgsubr
          515 187 vstem
          174 -65 callsubr
          endchar
        </CharString>
        <CharString name="tilde">
          623 1178 -2 callsubr
          393 659 hintmask 00000000
          hintmask 10100000
          886 1382 -71 callsubr
          hintmask 01100000
          -97 callgsubr
          hintmask 10100000
          -92 callsubr
        </CharString>
        <CharString name="tilde.cap">
          -490 1511 -2 callsubr
          -98 659 hintmask 00000000
          hintmask 10100000
          395 1715 -71 callsubr
          hintmask 01100000
          -97 callgsubr
          hintmask 10100000
          -92 callsubr
        </CharString>
        <CharString name="trademark">
          917 73 callsubr
          -1379 181 111 -21 908 180 -162 87 -87 180 hstem
          27 callgsubr
          316 159 -22 237 21 239 -22 237 22 239 -24 236 vstem
          959 616 rmoveto
          46 36 36 43 hvcurveto
          480 vlineto
          47 39 27 44 44 36 -36 -45 vhcurveto
          -473 vlineto
          -44 36 -35 47 43 36 36 43 vhcurveto
          474 vlineto
          42 38 38 44 45 35 -36 -45 vhcurveto
          -473 vlineto
          -44 36 -35 43 47 36 36 43 vhcurveto
          475 vlineto
          111 -87 91 -110 -60 -44 -25 -40 -28 vhcurveto
          -7 -5 -7 -8 -8 hhcurveto
          -8 -3 0 8 -6 hvcurveto
          43 -34 -47 29 -56 hhcurveto
          -52 -31 -22 -24 -25 hvcurveto
          -8 -8 -7 -9 -11 hhcurveto
          -12 -4 9 8 -3 hvcurveto
          11 -5 -21 35 -49 hhcurveto
          -44 -36 -36 -46 hvcurveto
          -595 vlineto
          -44 36 -35 44 vhcurveto
          -404 624 rmoveto
          112 hlineto
          33 26 27 33 32 -26 28 -33 hvcurveto
          -384 hlineto
          -35 -26 -28 -32 -33 27 -27 34 hvcurveto
          111 -542 hlineto
          -44 36 -37 44 46 35 36 45 vhcurveto
          endchar
        </CharString>
        <CharString name="two">
          -39 callsubr
          997 181 hstem
          161 60 callsubr
          227 vstem
          286 1359 rmoveto
          -49 -41 -41 -49 -48 41 -43 49 hvcurveto
          196 hlineto
          74 79 -55 -116 -71 -33 -79 -42 -45 hvcurveto
          -174 -189 rlineto
          -186 -203 -39 -95 -203 vvcurveto
          -2 vlineto
          -67 52 -53 66 vhcurveto
          491 34 callgsubr
          -372 hlineto
          97 24 40 79 89 vhcurveto
          159 178 rlineto
          116 127 86 111 174 vvcurveto
          185 -109 177 -227 vhcurveto
          endchar
        </CharString>
        <CharString name="twosuperior">
          -107 666 141 411 141 hstem
          515 187 vstem
          238 1359 -50 callgsubr
          endchar
        </CharString>
        <CharString name="u">
          -20 37 callgsubr
          hintmask 00000000
          hintmask 10111000
          749 1086 rmoveto
          -66 18 callgsubr
          -67 -56 -40 -64 -65 -52 18 callsubr
          2 callgsubr
          -53 -64 vhcurveto
          -693 -14 callgsubr
          117 -134 145 76 46 32 36 35 vhcurveto
          hintmask 01111000
          11 13 9 14 16 hhcurveto
          17 7 -13 -12 4 hvcurveto
          hintmask 10111000
          -16 9 28 -52 -23 callsubr
          869 52 callsubr
          -65 vhcurveto
          endchar
        </CharString>
        <CharString name="uacute">
          -1 callsubr
          -11 394 -146 -103 callgsubr
          hintmask 00010100
          -350 263 -106 callgsubr
        </CharString>
        <CharString name="ubreve">
          -26 callgsubr
          174 -49 callsubr
          -127 490 -126 -103 callgsubr
          hintmask 00010100
          -239 334 -101 callgsubr
        </CharString>
        <CharString name="ucircumflex">
          -26 callgsubr
          174 -49 callsubr
          -118 490 -135 -103 callgsubr
          hintmask 00010100
          -117 473 -107 callgsubr
        </CharString>
</ttFont>
